<?xml version="1.0" standalone="no"?>
<!DOCTYPE svg PUBLIC "-//W3C//DTD SVG 1.1//EN" "http://www.w3.org/Graphics/SVG/1.1/DTD/svg11.dtd" >
<svg xmlns="http://www.w3.org/2000/svg" xmlns:xlink="http://www.w3.org/1999/xlink" version="1.1">
<metadata>
Created by FontForge 20150824 at Wed Nov  2 23:11:06 2016
 By Everything Fonts
Copyright (c) 2012 Natanael Gama (www.ndiscovered.com), with Reserved Font Name "Cinzel"
</metadata>
<defs>
<font id="CinzelRegular" horiz-adv-x="577" >
  <font-face 
    font-family="CinzelRegular"
    font-weight="400"
    font-stretch="normal"
    units-per-em="1000"
    panose-1="0 0 5 0 0 0 0 0 0 0"
    ascent="800"
    descent="-200"
    x-height="600"
    cap-height="700"
    bbox="-11 -239 1328 914"
    underline-thickness="50"
    underline-position="-150"
    unicode-range="U+0020-FB02"
  />
<missing-glyph horiz-adv-x="250" 
 />
    <glyph glyph-name=".notdef" horiz-adv-x="250" 
 />
    <glyph glyph-name=".null" horiz-adv-x="0" 
 />
    <glyph glyph-name="nonmarkingreturn" horiz-adv-x="333" 
 />
    <glyph glyph-name="space" unicode=" " horiz-adv-x="250" 
 />
    <glyph glyph-name="exclam" unicode="!" horiz-adv-x="230" 
d="M140 403l-21 -233h-10l-20 233l-12 299h75zM115 -4q-19 0 -32 13t-13 32t13 32t32 13t32 -13t13 -32t-13 -32t-32 -13z" />
    <glyph glyph-name="quotedbl" unicode="&#x22;" horiz-adv-x="315" 
d="M59 500l-9 5q14 66 17 103.5t-1 91.5l70 14q1 -31 -5 -70.5t-24.5 -83.5t-47.5 -60zM189 500l-9 5q14 66 17 103.5t-1 91.5l70 14q1 -31 -5 -70.5t-24.5 -83.5t-47.5 -60z" />
    <glyph glyph-name="numbersign" unicode="#" horiz-adv-x="536" 
d="M516 467h-113l-38 -220h107v-30h-113l-38 -217h-32l38 217h-168l-38 -217h-32l38 217h-107v30h113l38 220h-107v30h113l35 203h32l-35 -203h168l35 203h32l-35 -203h107v-30zM333 247l38 220h-168l-38 -220h168z" />
    <glyph glyph-name="dollar" unicode="$" horiz-adv-x="469" 
d="M250 402l115 -107q50 -46 50 -121q0 -59 -23.5 -101t-67.5 -64.5t-106 -22.5l-7 -88l-30 3l7 88q-89 10 -129 52q-6 22 -3 64t14 75h9q-6 -68 24.5 -110.5t86.5 -51.5l25 321l-89 82q-54 50 -54 125q0 46 22 84.5t61.5 61t87.5 22.5l6 74l30 -1l-5 -74q32 -3 61 -9h38
v-12v-111h-9q0 28 -11.5 49.5t-32.5 34.5t-49 17zM169 477l52 -49l20 255q-47 -2 -80 -35.5t-33 -77.5q0 -56 41 -93zM243 313l-23 -297h3q57 2 95.5 39.5t38.5 93.5q0 58 -39 94z" />
    <glyph glyph-name="percent" unicode="%" horiz-adv-x="684" 
d="M519 709l22 -9l-373 -711l-25 11l356 676q-4 -2 -14.5 -7.5t-15.5 -8t-16.5 -8t-17 -7t-18 -5t-20 -2.5t-21.5 0q-27 2 -65 22q24 -48 11 -123q-14 -81 -60.5 -128.5t-107.5 -47.5t-90 47.5t-15 128.5q14 80 59.5 127.5t108.5 49.5q18 0 35 -5q20 -5 59 -27.5t66 -24.5
q26 -2 51 6.5t56.5 26.5t34.5 19zM269 537.5q13 72.5 -2 114.5t-54 42q-26 0 -48 -19t-38 -54t-25 -84q-13 -72 2 -114t54 -42t68.5 42t42.5 114.5zM531 339q61 0 90 -47.5t15 -129t-60.5 -129t-107.5 -47.5t-90 47.5t-15 129t60.5 129t107.5 47.5zM583 162.5
q13 72.5 -2 114.5t-54 42t-68.5 -42t-42.5 -114.5t2 -114.5t54 -42t68.5 42t42.5 114.5z" />
    <glyph glyph-name="ampersand" unicode="&#x26;" horiz-adv-x="646" 
d="M642 375h-15q-21 0 -31 -12.5t-6 -33.5q24 -125 -29 -218q36 -31 57 -47.5t55 -34t63 -19.5v-10h-16.5h-22t-24 1t-28.5 3.5t-29 6.5t-32 10.5t-31 16t-32 21.5q-71 -69 -185 -69q-146 0 -226 61t-80 173q0 124 121 185q-38 61 -38 134q0 36 14.5 67.5t40 54.5t63.5 36
t83 13q51 0 97 -19.5t73 -51.5l-18 -113h-10q0 35 -10 64t-28.5 49t-45 30.5t-58.5 10.5q-57 0 -94.5 -40t-37.5 -101q0 -59 37 -112t122 -128q131 -117 181 -159q20 45 20.5 94t-19.5 91q-23 46 -65 46h-15v10h199v-10zM336 20q92 0 151 68q-115 94 -192 165
q-93 86 -128 132q-64 -60 -64 -161q0 -92 61.5 -148t171.5 -56z" />
    <glyph glyph-name="quotesingle" unicode="'" horiz-adv-x="170" 
d="M44 500l-9 5q14 66 17 103.5t-1 91.5l70 14q1 -31 -5 -70.5t-24.5 -83.5t-47.5 -60z" />
    <glyph glyph-name="parenleft" unicode="(" horiz-adv-x="338" 
d="M303 732l6 -8q-63 -30 -107 -140.5t-42 -247.5q2 -144 45.5 -265.5t101.5 -161.5l-6 -9q-86 45 -148 168t-63 266q-1 141 61.5 254t151.5 144z" />
    <glyph glyph-name="parenright" unicode=")" horiz-adv-x="338" 
d="M38 -100l-6 9q58 40 101.5 161.5t45.5 265.5q1 137 -43 247.5t-106 140.5l6 8q89 -31 151.5 -144t61.5 -254q-2 -143 -64 -266t-147 -168z" />
    <glyph glyph-name="asterisk" unicode="*" horiz-adv-x="386" 
d="M348 623l-100 -19l-48 1l39 -26l71 -74l-19 -31l-35 -8l-49 89l-13 46l-14 -46l-48 -89l-35 8l-19 30l70 75l39 26l-47 -1l-101 19l-3 35l24 27l92 -43l38 -29l-16 45l-14 101l33 14l33 -14l-12 -101l-16 -45l37 29l92 44l24 -27z" />
    <glyph glyph-name="plus" unicode="+" horiz-adv-x="481" 
d="M442 332v-45h-179v-178h-45v178h-178v45h178v179h45v-179h179z" />
    <glyph glyph-name="comma" unicode="," horiz-adv-x="185" 
d="M47 -89l-2 8q27 9 37.5 27t7.5 34.5t-12 27.5q-2 2 -7 7.5t-7.5 8.5t-6 8.5t-4.5 10t-0.5 10.5t2.5 12q7 13 21.5 18.5t31 -2t23.5 -26.5q15 -38 6.5 -70t-33.5 -52.5t-57 -21.5z" />
    <glyph glyph-name="hyphen" unicode="-" horiz-adv-x="380" 
d="M34 292l6 22h300l6 -22l-6 -23h-300z" />
    <glyph glyph-name="period" unicode="." horiz-adv-x="179" 
d="M90 -4q-19 0 -32 13t-13 32t13 32t32 13t32 -13t13 -32t-13 -32t-32 -13z" />
    <glyph glyph-name="slash" unicode="/" horiz-adv-x="406" 
d="M7 5l361 709l31 -18l-361 -710z" />
    <glyph glyph-name="zero" unicode="0" horiz-adv-x="596" 
d="M298 714q109 0 172 -97.5t63 -266.5t-63 -266.5t-172 -97.5t-172 97.5t-63 266.5t63 266.5t172 97.5zM298 684q-77 0 -121 -89.5t-44 -244.5t44 -244.5t121 -89.5t121 89.5t44 244.5t-44 244.5t-121 89.5z" />
    <glyph glyph-name="one" unicode="1" horiz-adv-x="344" 
d="M67 0h217v10h-21q-23 0 -39 15.5t-16 38.5v650h-10q-27 -32 -59 -45t-79 -19v-10h38q46 0 46 -49v-527q0 -22 -16.5 -38t-38.5 -16h-21z" />
    <glyph glyph-name="two" unicode="2" horiz-adv-x="553" 
d="M102 536l-10 -1l-18 114q19 18 49 33t64 23.5t66 8.5q100 0 159.5 -53t59.5 -145q0 -28 -7.5 -57.5t-21 -58.5t-30 -56.5t-39.5 -56.5t-43 -53t-46 -51.5t-44.5 -46.5t-43 -43.5l-36.5 -36.5h230q43 0 66.5 18t50.5 67h10l-48 -141h-410v10q50 46 103 103.5t108 128.5
t90.5 143.5t35.5 126.5q0 81 -38.5 127t-105.5 45q-72 -1 -112.5 -39.5t-38.5 -108.5z" />
    <glyph glyph-name="three" unicode="3" horiz-adv-x="503" 
d="M78 548l-17 93q59 66 156 71q88 4 142.5 -39t54.5 -110q0 -61 -43 -111t-94 -55q64 -11 110 -58.5t46 -122.5q0 -58 -30.5 -109.5t-80.5 -86.5t-119.5 -50t-142.5 -2l2 10q79 -2 146.5 28t108.5 86.5t41 126.5q0 82 -56 123.5t-149 41.5l2 10q34 0 67 11.5t60 32.5
t42.5 54.5t13.5 72.5q-2 49 -33 83t-90 34q-62 0 -96 -37t-31 -97h-10z" />
    <glyph glyph-name="four" unicode="4" horiz-adv-x="583" 
d="M503 249h-87v-186q0 -22 16 -37.5t39 -15.5h11v-10h-198l1 10h10q23 0 39 15t17 37v187h-311v10l366 455h10v-410h43q26 0 35.5 4t19.5 16h10zM115 304h236v292z" />
    <glyph glyph-name="five" unicode="5" horiz-adv-x="498" 
d="M422 729l-33 -105l-235 -15l-46 -158q51 11 98 12t87.5 -13.5t70 -39t45.5 -65.5t14 -91t-19.5 -93t-44.5 -72.5t-61 -53.5t-69.5 -36.5t-70 -22t-62 -9t-46.5 1.5l2 10q22 -1 50.5 6.5t60.5 21t63.5 36.5t57.5 51.5t43.5 68t20.5 83.5q4 66 -33 109t-101 51t-148 -17
l-9 4l78 271l198 15q54 0 79 50h10z" />
    <glyph glyph-name="six" unicode="6" horiz-adv-x="560" 
d="M185 315l-6 9q31 37 72.5 58.5t83.5 21t78.5 -18t62 -62t29.5 -107.5q6 -91 -53 -160.5t-157 -70.5q-103 -2 -167.5 75.5t-62.5 211.5q1 52 10.5 104t27 101.5t46 93t64.5 77.5t84 57t104 29l4 -7q-70 -22 -121.5 -67t-82.5 -106.5t-46 -131.5t-15 -150q0 -117 40 -187
t115 -70q67 0 101.5 54.5t33.5 132.5q-1 50 -16.5 87t-46 57.5t-72.5 20.5q-71 -1 -110 -52z" />
    <glyph glyph-name="seven" unicode="7" horiz-adv-x="502" 
d="M63 698l-28 -113h10q12 31 29 45.5t46 14.5h282l-88 -231q-50 -130 -163 -414h70q17 72 60.5 200.5t73.5 209.5l108 288h-400z" />
    <glyph glyph-name="eight" unicode="8" horiz-adv-x="552" 
d="M333 373q27 -14 45.5 -24.5t42 -28.5t37.5 -37t24 -47.5t10 -60.5q0 -84 -59 -136.5t-157 -52.5q-99 0 -159.5 54t-56.5 141q3 62 38.5 107t105.5 78q-108 78 -108 181q0 72 48.5 119t131.5 48q79 2 129.5 -44t50.5 -125q0 -60 -32 -105.5t-91 -66.5zM274 403l22 -12
q85 63 85 162q0 60 -28 95.5t-76 35.5q-25 0 -45.5 -10t-33.5 -27t-20 -39.5t-7 -47.5q0 -98 103 -157zM277 16q68 0 104 42.5t36 102.5q0 17 -2.5 32t-8.5 27t-12.5 22t-17 19.5t-18.5 16t-21.5 14t-21.5 12t-22.5 11.5t-21.5 11q-20 10 -37 21q-98 -67 -99 -176
q-1 -71 37 -113t105 -42z" />
    <glyph glyph-name="nine" unicode="9" horiz-adv-x="560" 
d="M376 382l5 -9q-29 -37 -71 -58t-85 -20t-80.5 19t-62 62t-26.5 105q-3 104 56.5 166.5t153.5 64.5q105 2 167 -74.5t62 -213.5q0 -51 -9 -102t-26.5 -101.5t-46 -94.5t-64.5 -79t-85 -57t-105 -27l-3 7q68 19 120 63.5t83 106t46 131.5t15 147q0 124 -39 194t-115 70
q-68 0 -102.5 -53.5t-32.5 -133.5q2 -75 37 -120.5t98 -44.5q71 2 110 52z" />
    <glyph glyph-name="colon" unicode=":" horiz-adv-x="170" 
d="M90 379q-19 0 -32 13t-13 31.5t13 32t32 13.5t32 -13.5t13 -32t-13 -31.5t-32 -13zM90 -4q-19 0 -32 13t-13 32t13 32t32 13t32 -13t13 -32t-13 -32t-32 -13z" />
    <glyph glyph-name="semicolon" unicode=";" horiz-adv-x="600" 
d="M90 407q-19 0 -32 13.5t-13 32t13 31.5t32 13t32 -13t13 -31.5t-13 -32t-32 -13.5zM47 -89l-2 8q27 9 37.5 27t7.5 34.5t-12 27.5q-2 2 -7 7.5t-7.5 8.5t-6 8.5t-4.5 10t-0.5 10.5t2.5 12q7 13 21.5 18.5t31 -2t23.5 -26.5q15 -38 6.5 -70t-33.5 -52.5t-57 -21.5z" />
    <glyph glyph-name="less" unicode="&#x3c;" horiz-adv-x="481" 
d="M442 523v-48l-343 -165l343 -166v-48l-402 191v45z" />
    <glyph glyph-name="equal" unicode="=" horiz-adv-x="481" 
d="M40 364v45h402v-45h-402zM40 189v45h402v-45h-402z" />
    <glyph glyph-name="greater" unicode="&#x3e;" horiz-adv-x="481" 
d="M40 523l402 -191v-45l-402 -191v48l342 166l-342 165v48z" />
    <glyph glyph-name="question" unicode="?" horiz-adv-x="413" 
d="M30 530l-10 95q23 42 61.5 65.5t86.5 23.5q91 0 143 -45t52 -125q0 -32 -11 -61t-28.5 -50t-39 -43t-40.5 -39.5t-35.5 -39.5t-22.5 -44q-8 -22 -7 -46t17 -46l-6 -5q-44 41 -44 96q0 25 14.5 52t35.5 51t42 49.5t35.5 58.5t14.5 67q0 44 -14.5 75.5t-41.5 48t-64 16.5
q-60 0 -94.5 -41t-33.5 -113h-10zM180.5 -4q-18.5 0 -32 13t-13.5 32t13.5 32t32 13t31.5 -13t13 -32t-13 -32t-31.5 -13z" />
    <glyph glyph-name="at" unicode="@" horiz-adv-x="977" 
d="M550 234h-164q-60 -84 -103 -122.5t-92 -38.5q-54 -1 -90.5 43.5t-41 116t31.5 162.5q65 154 206.5 235t319.5 58q150 -20 232 -126.5t66 -252.5q-7 -62 -27.5 -120.5t-54.5 -110.5t-79 -93.5t-105 -68t-128.5 -36t-152.5 4.5t-174 52l-4 10q179 -66 319.5 -35t231 137.5
t109.5 259.5q17 142 -47 237.5t-186 111.5q-150 19 -273.5 -52.5t-187.5 -215.5q-32 -71 -39 -137.5t13 -108t61 -41.5q18 0 38 9.5t35 22t36 37t32 38.5t31.5 43.5t26.5 37.5l127 173q47 57 55 77h7l41 -404q3 -23 14.5 -35t26.5 -12h5l-1 -7h-158l1 7h7q13 0 27 10.5
t14 26.5zM538 451l-136 -194h147z" />
    <glyph glyph-name="A" unicode="A" horiz-adv-x="712" 
d="M359 714l268 -641q14 -31 38 -47t50 -16h8v-10h-225v10h9q21 0 34.5 17.5t3.5 45.5l-64 170h-270l-67 -171q-10 -28 3.5 -45t34.5 -17h9v-10h-201v10h9q25 0 49 16t39 47l226 538q37 81 37 103h9zM223 273h246l-120 321z" />
    <glyph glyph-name="B" unicode="B" horiz-adv-x="586" 
d="M60 700h199q103 0 160 -45.5t57 -121.5q0 -60 -32 -99.5t-78 -52.5q79 -12 125 -65t46 -128q0 -86 -61.5 -137t-171.5 -51h-244l1 10h12q26 0 44.5 18t19.5 44v556q0 26 -19 44t-45 18h-12zM202 36h98q77 0 119.5 41.5t42.5 117.5q0 43 -14.5 75.5t-36.5 51t-53.5 30
t-60 15t-61.5 3.5v9q17 0 33.5 2t36.5 7t36 16t30 26.5t21.5 40t7.5 55.5q0 68 -37.5 105t-108.5 37h-53v-632z" />
    <glyph glyph-name="C" unicode="C" horiz-adv-x="760" 
d="M702 292h8l-12 -157q-91 -149 -281 -149q-158 1 -257.5 101t-99.5 264q0 163 99.5 263t263.5 100q134 0 237 -68l20 -141h-9q-22 86 -89 132.5t-159 46.5q-131 0 -209.5 -91t-78.5 -241t77.5 -241.5t204.5 -94.5q56 0 102 15t85 46t64.5 85.5t33.5 129.5z" />
    <glyph glyph-name="D" unicode="D" horiz-adv-x="807" 
d="M60 700h339q160 0 259.5 -96.5t99.5 -253.5t-99.5 -253.5t-259.5 -96.5h-339v10h13q26 0 44.5 18.5t19.5 44.5v560q0 24 -19.5 40.5t-44.5 16.5h-12zM202 670v-640h197q84 0 148.5 40t100 112.5t35.5 167.5q0 144 -78.5 232t-205.5 88h-197z" />
    <glyph glyph-name="E" unicode="E" 
d="M533 162l-58 -162h-415v10h13q26 0 44.5 18.5t19.5 44.5v560q-3 24 -21 40.5t-43 16.5h-12l-1 10h293q31 0 67.5 6t51.5 12v-29v-17v-80h-10v18q0 24 -16.5 41t-39.5 18h-204v-309h169q20 1 34 15t14 35v14h10v-158h-10v15q0 20 -13.5 34t-33.5 15h-170v-299h143
q74 0 113 33t65 98h10z" />
    <glyph glyph-name="F" unicode="F" horiz-adv-x="541" 
d="M472 718v-29v-17v-67h-10v15q0 20 -14 34.5t-35 14.5h-211v-309h169q20 1 34 15t14 34v15h10v-158h-10v15q0 20 -13.5 34t-33.5 15h-170v-257q0 -26 19 -44.5t45 -18.5h13v-10h-219v10h13q26 0 44.5 18.5t19.5 44.5v560q0 24 -19.5 40.5t-44.5 16.5h-12l-1 10h293
q31 0 67.5 6t51.5 12z" />
    <glyph glyph-name="G" unicode="G" horiz-adv-x="798" 
d="M774 325h-15q-25 0 -38 -11.5t-12 -33.5v-165q-26 -34 -62 -61t-96.5 -47.5t-131.5 -20.5q-160 1 -259.5 101t-99.5 263t99.5 263.5t259.5 100.5q138 0 243 -68l20 -141h-9q-22 86 -88.5 132.5t-165.5 46.5q-127 0 -205.5 -92t-78.5 -242t78.5 -241.5t205.5 -92.5
q65 0 123.5 23t102.5 64v177q0 22 -13.5 33.5t-37.5 11.5h-16v10h196v-10z" />
    <glyph glyph-name="H" unicode="H" horiz-adv-x="813" 
d="M753 0h-219v10h13q26 0 44.5 18t19.5 44v259h-409v-258q0 -26 19 -44.5t45 -18.5h13v-10h-219v10h13q26 0 44.5 18.5t19.5 44.5v555q-1 26 -19.5 44t-44.5 18h-13v10h219v-10h-13q-26 0 -44.5 -18t-19.5 -44v-267h409v267q-1 17 -9.5 31.5t-23 22.5t-31.5 8h-13v10h219
v-10h-13q-26 0 -44.5 -18.5t-19.5 -44.5v-554q1 -26 19.5 -44.5t44.5 -18.5h13v-10z" />
    <glyph glyph-name="I" unicode="I" horiz-adv-x="338" 
d="M279 10v-10h-219v10h13q26 0 44.5 18.5t19.5 44.5v555q-1 26 -19.5 44t-44.5 18h-13v10h219v-10h-13q-26 0 -44.5 -18t-19.5 -44v-555q0 -26 19 -44.5t45 -18.5h13z" />
    <glyph glyph-name="J" unicode="J" horiz-adv-x="324" 
d="M60 700h219v-10h-13q-17 0 -31.5 -8.5t-23 -22.5t-9.5 -32v-627q0 -84 -52.5 -142t-129.5 -58v9q49 17 83 73.5t34 120.5v624q-1 26 -19.5 44.5t-44.5 18.5h-13v10z" />
    <glyph glyph-name="K" unicode="K" horiz-adv-x="657" 
d="M202 628v-555q0 -26 19 -44.5t45 -18.5h13v-10h-219v10h13q26 0 44.5 18.5t19.5 44.5v555q-1 26 -19.5 44t-44.5 18h-13v10h219v-10h-13q-26 0 -44.5 -18t-19.5 -44zM300 372l273 -321q40 -40 95 -41v-10h-43q-102 0 -150 57l-241 291l236 296q13 17 5 32t-29 15h-10v9
h211v-9h-4q-66 0 -108 -47z" />
    <glyph glyph-name="L" unicode="L" horiz-adv-x="562" 
d="M523 162h10l-58 -162h-415v10h13q26 0 44.5 18.5t19.5 44.5v554q-1 26 -19.5 44.5t-44.5 18.5h-13v10h219v-10h-13q-17 0 -32 -8.5t-23.5 -23t-8.5 -31.5v-596h143q74 0 113 33t65 98z" />
    <glyph glyph-name="M" unicode="M" horiz-adv-x="931" 
d="M750 714l77 -641q3 -20 13.5 -34t26 -21.5t33.5 -7.5h16v-10h-217v9h15q17 0 29 13.5t10 29.5l-45 503l-210 -467q-28 -61 -34 -102h-10l-256 555l-43 -489q-2 -16 10 -29.5t28 -13.5h16v-9h-194v10h16q28 0 48.5 17t24.5 46l75 641h10l279 -603l273 603h9z" />
    <glyph glyph-name="N" unicode="N" horiz-adv-x="841" 
d="M590 700h206v-10h-18q-25 0 -43 -17.5t-19 -42.5v-516q0 -29 2.5 -61t4.5 -49l2 -18h-9l-545 582v-498q0 -17 8.5 -30.5t22.5 -21.5t30 -8h19v-10h-206v10h19q25 0 43 17.5t18 43.5v519q0 30 -2 61.5t-5 47.5l-2 16h10l545 -582v496q-1 26 -19 43.5t-43 17.5h-19v10z" />
    <glyph glyph-name="O" unicode="O" horiz-adv-x="838" 
d="M429 714q160 0 260 -100.5t100 -263.5t-100 -263.5t-260 -100.5t-259.5 100.5t-99.5 263.5t99.5 263.5t259.5 100.5zM429.5 16q127.5 0 205 92t77.5 242q0 99 -35 175t-99.5 117.5t-148.5 41.5q-127 0 -204.5 -92t-77.5 -242t77.5 -242t205 -92z" />
    <glyph glyph-name="P" unicode="P" 
d="M60 700h261q96 0 151 -51.5t55 -141.5q0 -44 -18 -82t-48.5 -62t-67.5 -37t-78.5 -9.5t-78.5 22.5v10q2 -1 6 -1.5t15.5 -1.5t23 -1t28 2t31.5 6t31.5 12t30 20t25 30.5t19.5 41.5q7 23 6 60q-2 70 -37 111.5t-98 41.5h-115v-597q1 -26 19.5 -44.5t44.5 -18.5h13v-10
h-219v10h13q26 0 44.5 18.5t19.5 44.5v559q-3 25 -21 41.5t-43 16.5h-12z" />
    <glyph glyph-name="Q" unicode="Q" horiz-adv-x="837" 
d="M1324 -84l4 -5q-8 -21 -33 -47.5t-71 -52t-102.5 -40.5t-134.5 -7.5t-159 42.5q-37 16 -125 61.5t-161.5 76.5t-133.5 42q-155 4 -251.5 104t-96.5 260q0 163 99.5 263.5t259.5 100.5t259 -100.5t99 -263.5q0 -139 -74 -234t-198 -121q109 -33 331 -128q78 -33 165 -42
t175.5 13.5t147.5 77.5zM135 350q0 -150 78.5 -242t206 -92t205 92t77.5 242q0 99 -35 175t-99.5 117.5t-148.5 41.5q-128 0 -206 -92t-78 -242z" />
    <glyph glyph-name="R" unicode="R" horiz-adv-x="677" 
d="M60 700h270q91 0 143 -50.5t52 -137.5q0 -74 -49.5 -132.5t-120.5 -58.5q15 -7 35.5 -27.5t36.5 -42.5q86 -123 125 -165q13 -15 24 -25.5t24 -20.5t26 -16t29 -10t33 -4v-10h-55q-43 0 -80 15.5t-55.5 32t-39.5 40.5q-6 7 -67 95t-64 92q-17 21 -28 33t-29 23t-35 11v10
q23 -1 53 0q124 3 156 104q7 23 6 60q-2 67 -35 108t-89 44q-22 1 -50 1h-49.5h-24.5v-596q0 -26 18.5 -44.5t45.5 -18.5h12l1 -10h-219v10h13q26 0 44.5 18t19.5 44v555q-1 26 -19.5 44.5t-44.5 18.5h-13v10z" />
    <glyph glyph-name="S" unicode="S" horiz-adv-x="475" 
d="M171 477l197 -182q50 -46 50 -122q0 -84 -51 -135.5t-136 -51.5q-44 0 -93.5 13.5t-76.5 41.5q-5 22 -2 64t14 75h9q-8 -76 34 -122t110 -42q57 3 95.5 39.5t38.5 94.5q0 57 -39 93l-192 178q-54 50 -54 124q0 68 47.5 118.5t128.5 50.5q38 0 86 -10h39v-12v-111h-9
q0 47 -32.5 75t-80.5 28q-54 0 -88.5 -34t-34.5 -81q0 -55 40 -92z" />
    <glyph glyph-name="T" unicode="T" horiz-adv-x="618" 
d="M140 701h338q16 0 34.5 2t35 4.5t30.5 5.5t21 6v-126l-10 1v17q0 24 -17 41.5t-40 18.5h-190v-599q1 -26 19.5 -44t44.5 -18h13v-10h-219v10h13q26 0 44.5 18t19.5 43v600h-190q-24 -1 -40.5 -18.5t-16.5 -41.5v-17l-10 -1v126q15 -6 52 -12t68 -6z" />
    <glyph glyph-name="U" unicode="U" horiz-adv-x="785" 
d="M550 700h185v-10h-16q-21 0 -36.5 -13.5t-16.5 -33.5v-396q0 -117 -74 -189t-196 -72q-124 0 -200.5 71.5t-76.5 188.5v394q0 15 -7 26t-19 17.5t-27 6.5h-16v10h203v-10h-16q-22 0 -37 -13.5t-16 -34.5v-382q0 -109 58.5 -176t153.5 -67q101 0 162 63.5t61 166.5v395
q-1 21 -16 34.5t-37 13.5h-16v10z" />
    <glyph glyph-name="V" unicode="V" horiz-adv-x="740" 
d="M549 700h201v-10h-9q-16 0 -31.5 -6t-31 -20.5t-24.5 -35.5l-241 -539q-37 -81 -37 -103h-9l-281 641q-14 32 -38.5 47.5t-49.5 15.5h-8v10h225v-10h-9q-13 0 -24 -7t-16 -21t3 -34l209 -524l218 524q10 28 -3.5 45t-34.5 17h-9v10z" />
    <glyph glyph-name="W" unicode="W" horiz-adv-x="982" 
d="M795 700h197v-10h-8q-17 0 -33.5 -6t-32 -20.5t-22.5 -35.5l-166 -529q-20 -63 -22 -111h-9l-204 572l-152 -461q-19 -62 -21 -111h-9l-227 641q-12 30 -37 45.5t-51 15.5h-8v10h222v-10h-9q-21 0 -34 -17t-5 -44l152 -487l186 574l9 -1l197 -553l134 468q7 28 -5 44
t-33 16h-9v10z" />
    <glyph glyph-name="X" unicode="X" horiz-adv-x="662" 
d="M659 10h14v-10h-244v10h12q22 0 34.5 20t1.5 41l-154 243l-154 -242q-12 -21 1 -41.5t34 -20.5h13v-10h-227v10h14q30 0 57 17t45 42l191 285l-175 277q-11 16 -26 29t-35 21.5t-40 8.5h-14v10h242v-10h-12q-21 0 -34 -20.5t-2 -40.5l138 -216l136 215q12 21 0 41.5
t-34 20.5h-12v10h225v-10h-14q-30 0 -56.5 -17t-44.5 -42l-175 -258l194 -305q11 -16 26 -28.5t35 -21t40 -8.5z" />
    <glyph glyph-name="Y" unicode="Y" horiz-adv-x="661" 
d="M450 700h222v-10h-14q-30 0 -56.5 -16.5t-44.5 -41.5l-197 -320v-239q0 -26 18.5 -44.5t45.5 -18.5h12v-10h-218v10h13q26 0 44.5 18t19.5 44v241l-191 319q-15 24 -42.5 41t-57.5 17h-14v10h246v-10h-13q-22 0 -34 -20.5t-1 -41.5l150 -280l160 280v1q11 20 -1.5 40.5
t-34.5 20.5h-12v10z" />
    <glyph glyph-name="Z" unicode="Z" horiz-adv-x="651" 
d="M617 154l-33 -154h-3h-521v9l420 662h-337q-25 -1 -42 -18t-17 -42v-18h-10v81v16v29q15 -6 53 -12t69 -6h278q14 0 31.5 1t32 3t26 4.5t16.5 4.5v-9l-428 -675h318q53 0 87 34t50 90h10z" />
    <glyph glyph-name="bracketleft" unicode="[" horiz-adv-x="332" 
d="M120 -90v812h169v-10l-104 -20v-752l107 -20v-10h-172z" />
    <glyph glyph-name="backslash" unicode="\" horiz-adv-x="406" 
d="M7 696l31 18l361 -709l-31 -19z" />
    <glyph glyph-name="bracketright" unicode="]" horiz-adv-x="332" 
d="M43 722h169v-812h-172v10l107 20v752l-104 20v10z" />
    <glyph glyph-name="asciicircum" unicode="^" horiz-adv-x="523" 
d="M232 371l-197 -189h63l164 154l163 -154h63l-196 189h-60z" />
    <glyph glyph-name="underscore" unicode="_" horiz-adv-x="500" 
d="M0 -90v30h500v-30h-500z" />
    <glyph glyph-name="grave" unicode="`" horiz-adv-x="439" 
d="M240 753l-7 -7q-81 38 -161 85q14 28 41 53q63 -61 127 -131z" />
    <glyph glyph-name="a" unicode="a" horiz-adv-x="663" 
d="M336 614l247 -546q29 -58 77 -58h8v-10h-205v10h8q19 0 31.5 16.5t3.5 43.5l-55 133h-253l-55 -130q-10 -28 2.5 -45.5t32.5 -17.5h8v-10h-191v10h8q21 0 42.5 14.5t35.5 43.5l207 443l4 8t9.5 21t11 26.5t9.5 27t5 20.5h9zM211 233h228l-112 274z" />
    <glyph glyph-name="b" unicode="b" horiz-adv-x="570" 
d="M55 600h204q26 0 50 -2.5t54 -12t52 -25t37 -44t15 -66.5q0 -44 -33 -78.5t-77 -45.5q73 -8 120.5 -53t47.5 -105q0 -47 -20.5 -81t-54.5 -52t-70.5 -26.5t-76.5 -8.5h-248v10h12q25 0 42 15.5t18 38.5v472q-1 16 -8.5 28.5t-21 19t-30.5 6.5h-12v10zM190 30h112
q68 0 110 34.5t42 103.5q0 149 -233 149v10q176 0 176 123q0 120 -139 120h-68v-540z" />
    <glyph glyph-name="c" unicode="c" horiz-adv-x="705" 
d="M657 252h9l-11 -137q-39 -60 -113 -94.5t-162 -34.5q-153 1 -241.5 85t-88.5 229q0 146 88.5 230t241.5 84q62 0 125 -16t109 -44l22 -142h-9q-43 172 -248 172q-119 0 -188 -76t-69 -208q0 -86 31 -149.5t89.5 -98t137.5 -35.5q77 -1 136 23t97.5 78t43.5 134z" />
    <glyph glyph-name="d" unicode="d" horiz-adv-x="760" 
d="M55 600h334q98 0 170.5 -36t111.5 -104t39 -160q0 -139 -86.5 -219.5t-234.5 -80.5h-334v10h13q24 0 40 16t17 38v472q-1 24 -17.5 39t-40.5 15h-12v10zM190 570v-540h199q115 0 182 72.5t67 197.5q0 62 -17.5 112.5t-49.5 85t-78.5 53.5t-103.5 19h-199z" />
    <glyph glyph-name="e" unicode="e" horiz-adv-x="546" 
d="M516 143l-55 -143h-406v10h14q24 0 40.5 15.5t17.5 37.5v475q0 22 -17 37t-41 15h-14v10h292q19 0 42.5 2.5t42 6t27.5 7.5v-114l-11 1v15q0 21 -14 36t-36 15h-208v-254h171q20 0 30.5 12t10.5 30v13h11v-140h-11v13q0 8 -2.5 15.5t-7 13t-12 9t-16.5 4.5h-174v-254h157
q46 0 77.5 16t48 38t33.5 58h10z" />
    <glyph glyph-name="f" unicode="f" horiz-adv-x="523" 
d="M191 600h159q29 0 64 5t49 11v-114l-11 1v15q0 10 -3.5 19.5t-10 16.5t-16 11t-20.5 4h-211v-254h174q20 0 30 12t10 30v13h12v-140h-12v13q0 11 -4 20t-12.5 15t-21.5 7h-176v-221q1 -9 4 -17t8 -15t12 -12t16 -7.5t19 -2.5h14v-10h-209v10h14q24 0 41 15.5t18 37.5v475
q-1 14 -8.5 26t-21 19t-29.5 7h-14v10h136z" />
    <glyph glyph-name="g" unicode="g" horiz-adv-x="742" 
d="M663 235v-120q-42 -52 -115.5 -90.5t-169.5 -38.5q-149 1 -238.5 85.5t-89.5 228.5q0 145 89.5 229.5t238.5 84.5q134 0 233 -60l22 -142h-9q-21 88 -81.5 130t-165.5 42q-116 0 -185.5 -76.5t-69.5 -207.5t70 -207.5t186 -76.5q131 0 220 87l1 133q1 18 -11.5 28.5
t-34.5 10.5h-14v10h183v-10h-14q-45 0 -45 -40z" />
    <glyph glyph-name="h" unicode="h" horiz-adv-x="746" 
d="M692 0h-204v10h12q23 0 40 15.5t18 37.5v218h-369v-218q1 -22 18 -37.5t40 -15.5h12v-10h-204v10h12q24 0 40.5 16t17.5 38v472q-1 22 -18 38t-40 16h-12v10h204v-10h-12q-23 0 -40 -15.5t-18 -37.5v-226h369v225q0 11 -5 21t-12.5 17t-18.5 11.5t-22 4.5h-12v10h204v-10
h-12q-23 0 -40 -15t-18 -37v-475q0 -11 5 -20.5t12.5 -17t18.5 -11.5t22 -4h12v-10z" />
    <glyph glyph-name="i" unicode="i" horiz-adv-x="336" 
d="M282 0h-227v10h14q27 0 47 16t20 38v472q0 22 -20 38t-48 16h-13v10h226v-10h-13q-27 0 -46.5 -15t-21.5 -37v-475q1 -22 21 -37.5t47 -15.5h13z" />
    <glyph glyph-name="j" unicode="j" horiz-adv-x="309" 
d="M54 600h220v-10h-13q-17 0 -32 -7t-23.5 -19.5t-9.5 -27.5v-536q0 -73 -54.5 -125.5t-128.5 -52.5v10q49 15 84 64t35 104v540q-2 21 -20.5 35.5t-44.5 14.5h-12z" />
    <glyph glyph-name="k" unicode="k" horiz-adv-x="624" 
d="M294 321l248 -270q18 -22 37 -31t50 -10v-10h-37q-98 0 -147 57l-220 241l215 253q11 14 3.5 26.5t-25.5 12.5h-9v10h204v-10h-4q-61 0 -97 -36zM190 537v-474q0 -22 17.5 -37.5t41.5 -15.5h11v-10h-205v10h12q24 0 41 16t18 38v472q-1 22 -18 38t-41 16h-12v10h205v-10
h-12q-15 0 -28.5 -7t-21.5 -19t-8 -27z" />
    <glyph glyph-name="l" unicode="l" horiz-adv-x="536" 
d="M506 143h10l-55 -143h-406v10h14q24 0 40.5 15.5t17.5 37.5v473q-1 22 -18.5 38t-41.5 16h-12v10h207v-10h-12q-24 0 -41.5 -16t-17.5 -38v-505h156q46 0 78 16t48.5 38t32.5 58z" />
    <glyph glyph-name="m" unicode="m" horiz-adv-x="878" 
d="M707 614l81 -549q4 -25 23 -40t45 -15h15v-10h-208v9h15q15 0 26.5 11.5t9.5 27.5l-52 412l-189 -372q-28 -61 -35 -102h-10l-241 465l-45 -403q-2 -15 9.5 -27t27.5 -12h14v-9h-185v10h15q17 0 31.5 6.5t24.5 19.5t12 31l78 547h10l264 -508l255 508h9z" />
    <glyph glyph-name="n" unicode="n" horiz-adv-x="779" 
d="M555 600h189v-10h-17q-22 0 -38 -14.5t-17 -35.5v-426q0 -29 2 -61t5 -49l2 -18h-9l-520 493v-417q0 -22 16 -37t39 -15h17v-10h-189v10h17q23 0 39 15t16 37v428q0 30 -2 61.5t-5 47.5l-2 16l11 -1l519 -489v415q-2 21 -18 35.5t-38 14.5h-17v10z" />
    <glyph glyph-name="o" unicode="o" horiz-adv-x="774" 
d="M387.5 614q92.5 0 169.5 -39.5t122.5 -111.5t45.5 -163t-45.5 -163t-122.5 -111.5t-170 -39.5q-69 0 -131 23t-107.5 64t-72 100t-26.5 127q0 91 45.5 163t122.5 111.5t169.5 39.5zM387 16q112 0 188 79.5t76 204.5t-76 204.5t-188 79.5t-187.5 -79.5t-75.5 -204.5
t75.5 -204.5t187.5 -79.5z" />
    <glyph glyph-name="p" unicode="p" horiz-adv-x="553" 
d="M55 600h234q105 0 166.5 -46t61.5 -125q0 -55 -26 -97t-67 -62.5t-93 -20t-102 24.5v10l10 -2.5t23.5 -3t34.5 0t39 7t40 17t35 32.5t27 50q7 20 7 54q0 61 -42 96t-116 35h-97v-506q1 -15 8.5 -27.5t20.5 -19.5t29 -7h14v-10h-207v10h14q24 0 40.5 15.5t17.5 37.5v474
q-1 23 -17.5 38t-40.5 15h-14v10z" />
    <glyph glyph-name="q" unicode="q" horiz-adv-x="777" 
d="M1191 -74l3 -4q-7 -18 -29.5 -41t-63 -46.5t-90.5 -37t-118.5 -7.5t-140.5 36q-37 15 -110 53t-139 67.5t-118 39.5q-143 0 -239 88t-96 226q0 68 26 127t70.5 100t105.5 64t129 23q91 0 166.5 -39.5t119.5 -111.5t44 -163q0 -116 -69.5 -198.5t-180.5 -106.5
q86 -25 297 -109q69 -28 146 -36t156 10t131 66zM124 300q0 -125 73.5 -204.5t183 -79.5t183.5 79.5t74 204.5t-74 204.5t-183.5 79.5t-183 -79.5t-73.5 -204.5z" />
    <glyph glyph-name="r" unicode="r" horiz-adv-x="627" 
d="M55 600h251q94 0 148.5 -43t54.5 -119q0 -64 -44 -111t-112 -54q8 -3 18.5 -11.5t21 -19.5t20 -23t17.5 -24l13 -17t35 -44t40 -48q25 -28 39 -41t36.5 -24t48.5 -11v-10h-31q-40 0 -71 7.5t-53 23t-34 27t-28 30.5q-6 8 -50.5 70.5t-47.5 66.5q-54 67 -101 67v10h57
q19 0 28.5 1t27.5 3.5t28.5 8t23.5 14.5t22.5 24t16.5 35q8 23 7 57q-2 56 -37 88t-96 35q-25 1 -51.5 1h-43.5h-20v-505q0 -15 7.5 -27.5t20.5 -19.5t29 -7h13l1 -10h-205v10h14q23 0 39.5 15.5t16.5 37.5v475q0 22 -16.5 37t-39.5 15h-14v10z" />
    <glyph glyph-name="s" unicode="s" horiz-adv-x="462" 
d="M160 410l202 -156q45 -37 46 -107q0 -67 -51.5 -114t-125.5 -47q-49 0 -98 12t-75 35q-5 19 -2.5 58t12.5 66h12q-7 -66 32.5 -104.5t107.5 -36.5q62 2 97.5 31.5t35.5 78.5q0 48 -36 80l-200 154q-47 40 -48 108q-1 40 21 73.5t60.5 53t83.5 19.5q59 0 99 -9h33l2 -109
h-11q0 42 -29 65t-87 23q-50 0 -85.5 -27.5t-34.5 -67.5q0 -47 39 -79z" />
    <glyph glyph-name="t" unicode="t" horiz-adv-x="578" 
d="M126 601h326q11 0 25 1t26.5 2.5t24.5 3.5t21.5 4.5t14.5 4.5v-113h-11v16q0 21 -14 36t-36 15h-181v-508q1 -15 9 -27t21 -19t29 -7h11v-10h-206v10h12q24 0 41 16t18 38v507h-181q-23 0 -36.5 -15t-13.5 -36v-16h-11v113q9 -4 27.5 -7.5t42 -6t41.5 -2.5z" />
    <glyph glyph-name="u" unicode="u" horiz-adv-x="700" 
d="M493 600h172v-10h-15q-12 0 -23 -5.5t-17.5 -15t-7.5 -21.5v-337q0 -104 -66.5 -164.5t-182.5 -60.5t-183 60t-67 164v337q0 18 -14 30.5t-34 12.5h-15v10h190v-10h-15q-20 0 -34 -12.5t-14 -30.5v-325q0 -97 49.5 -153t135.5 -56q95 0 149.5 53t54.5 145v336
q-1 19 -14.5 31t-33.5 12h-15v10z" />
    <glyph glyph-name="v" unicode="v" horiz-adv-x="663" 
d="M478 600h190v-10h-8q-22 0 -43 -14.5t-36 -43.5l-206 -443l-4 -8t-9.5 -21t-11 -26.5t-9.5 -27t-5 -20.5h-9l-247 545q-29 59 -77 59h-8v10h205v-10h-8q-19 0 -31 -17t-4 -44l179 -436l184 434q10 28 -2.5 45.5t-32.5 17.5h-7v10z" />
    <glyph glyph-name="w" unicode="w" horiz-adv-x="899" 
d="M721 600h183v-10h-7q-60 0 -82 -59l-145 -432q-22 -63 -23 -111h-10l-186 476l-130 -365q-20 -62 -22 -111h-9l-210 547q-23 55 -80 55h-8v10h206v-10h-8q-18 0 -29.5 -13.5t-4.5 -40.5l133 -407l169 487l10 -1l179 -456l112 371q10 29 -0.5 44.5t-29.5 15.5h-8v10z" />
    <glyph glyph-name="x" unicode="x" horiz-adv-x="626" 
d="M624 10h13v-10h-237v10h12q20 0 32.5 17.5t1.5 35.5l-138 198l-146 -197q-13 -18 -0.5 -36t33.5 -18h12v-10h-218v10h13q54 0 95 49l186 238l-169 243q-15 21 -41.5 35.5t-54.5 14.5h-13v10h235v-10h-12q-20 0 -32.5 -17.5t-0.5 -35.5l127 -182l121 182q12 17 -0.5 35
t-32.5 18h-12v10h222v-10h-14q-28 0 -53.5 -14.5t-42.5 -36.5l-161 -224l179 -256q11 -14 25 -24.5t33 -17.5t38 -7z" />
    <glyph glyph-name="y" unicode="y" horiz-adv-x="640" 
d="M436 600h209v-10h-12q-27 0 -51.5 -14.5t-40.5 -36.5l-192 -291v-184q0 -22 17 -38t41 -16h12v-10h-205v10h12q24 0 41 16t17 38v185l-185 291q-34 50 -92 50h-12v10h232v-10h-12q-19 0 -29.5 -15t-4.5 -33l146 -259l155 258q8 19 -3 34t-31 15h-12v10z" />
    <glyph glyph-name="z" unicode="z" horiz-adv-x="608" 
d="M573 143h10l-54 -143h-479v9l373 562h-298q-15 -1 -26 -8t-17 -18.5t-6 -24.5v-16h-11v69v18v26q13 -6 47.5 -10.5t64.5 -5.5h230q31 0 67 4t46 9v-9l-380 -575h274q46 1 78 16.5t48.5 37.5t32.5 59z" />
    <glyph glyph-name="braceleft" unicode="{" horiz-adv-x="337" 
d="M85 314v10q45 1 53 16q4 20 1 42.5t-9 65t-6 69.5q1 97 43.5 156.5t128.5 59.5l2 -8q-34 -9 -56 -26.5t-33 -46t-15 -59t-5 -76.5q0 -16 1 -43.5t1.5 -44t-1.5 -38t-7 -34.5t-15.5 -24.5t-26.5 -16.5q16 -3 27 -14.5t15.5 -25t6.5 -35t1.5 -39t-1.5 -44t-1 -42.5
q1 -46 5 -76.5t15 -59t33 -46t56 -26.5l-2 -8q-86 0 -128.5 59.5t-43.5 156.5q0 26 5 69l7.5 64.5t-1.5 42.5q-8 18 -50 22z" />
    <glyph glyph-name="bar" unicode="|" horiz-adv-x="245" 
d="M100 -180v880h45v-880h-45z" />
    <glyph glyph-name="braceright" unicode="}" horiz-adv-x="337" 
d="M40 725l2 8q58 0 97 -29.5t56 -76.5t18 -110q0 -22 -3.5 -52t-7 -51.5t-5 -44.5t2.5 -29q7 -15 53 -16v-10q-43 -4 -51 -22q-4 -21 -1.5 -42.5l7.5 -64.5t5 -69q-1 -97 -43 -156.5t-128 -59.5l-2 8q34 9 56 26.5t33 46t15 59t4 76.5q0 16 -1 42.5t-1.5 44t1.5 39t7 35
t16 25t27 14.5q-16 5 -26.5 16.5t-15.5 24.5t-7 34.5t-1.5 38t1 44t0.5 43.5q0 46 -4 76.5t-15 59t-33 46t-56 26.5z" />
    <glyph glyph-name="asciitilde" unicode="~" horiz-adv-x="493" 
d="M408 353h45q16 -68 -17.5 -103.5t-89.5 -35.5q-19 0 -42 10t-44 24t-41.5 28.5t-41 25t-37.5 11.5q-31 1 -47 -22.5t-8 -71.5h-45q-12 65 18.5 101.5t81.5 37.5q24 0 54.5 -15t55 -33.5t52 -34.5t44.5 -16q35 -1 55.5 25t6.5 69z" />
    <glyph glyph-name="exclamdown" unicode="&#xa1;" horiz-adv-x="230" 
d="M115 706q19 0 32 -13.5t13 -32t-13 -31.5t-32 -13t-32 13t-13 31.5t13 32t32 13.5zM90 299l21 230h10l20 -230l12 -299h-75z" />
    <glyph glyph-name="cent" unicode="&#xa2;" horiz-adv-x="602" 
d="M555 304h8l-8 -118q-33 -53 -93 -82t-140 -29l-7 -84l-29 3l7 83q-112 11 -177.5 82.5t-65.5 186.5q0 127 77 199t209 72l7 84l30 -1l-6 -85q90 -9 154 -50l18 -122h-7q-31 129 -168 143l-39 -481q100 0 162 49t68 150zM295 108l39 479q-100 0 -154.5 -63t-54.5 -178
q0 -68 20 -118.5t58 -81t92 -38.5z" />
    <glyph glyph-name="sterling" unicode="&#xa3;" 
d="M538 159h10l-46 -135q-47 -22 -98.5 -30t-93.5 -2q-28 4 -60 12t-50.5 13.5t-45.5 9t-45 -2.5q-22 -5 -41 -24h-10v10q42 34 71.5 118t30.5 201h-110l12 36h97q-16 329 201 349q46 4 83 -12.5t59 -44.5l-27 -91h-10q8 64 -22.5 93.5t-82.5 24.5q-36 -4 -61 -20t-39.5 -43
t-22 -65t-9 -86t0.5 -105h184l-13 -36h-171q0 -63 -8.5 -109.5t-26.5 -78.5t-31 -48t-38 -39q12 4 26.5 5.5t27.5 1.5t30.5 -1.5t31.5 -3.5t34.5 -4.5t36.5 -3.5q19 -2 40.5 -1t42.5 4.5t41.5 12.5t38.5 21t34.5 31.5t28.5 42.5z" />
    <glyph glyph-name="currency" unicode="&#xa4;" horiz-adv-x="541" 
d="M492 154l-22 -22l-60 61q-59 -54 -139.5 -54t-140.5 52l-59 -59l-21 22l59 58q-53 61 -52.5 141t53.5 140l-60 60l21 21l60 -60q60 51 139.5 51t138.5 -52l61 61l22 -21l-62 -61q52 -60 52.5 -139t-51.5 -139zM140 222.5q54 -53.5 129.5 -53.5t129 53.5t53.5 129.5
t-53.5 129.5t-129 53.5t-129.5 -53.5t-54 -129.5t54 -129.5z" />
    <glyph glyph-name="yen" unicode="&#xa5;" horiz-adv-x="661" 
d="M450 700h222v-10h-14q-30 0 -56.5 -16.5t-44.5 -41.5l-134 -217h127v-30h-145l-45 -73v-17h190v-30h-190v-193q0 -26 19 -44t45 -18h12v-10h-218v10h13q26 0 44.5 18.5t19.5 44.5v192h-190v30h190v18l-43 72h-147v30h129l-130 217q-15 24 -42.5 41t-57.5 17h-14v10h246
v-10h-13q-22 0 -34 -20.5t-1 -41.5l150 -280l160 280v1q11 20 -1.5 40.5t-34.5 20.5h-12v10z" />
    <glyph glyph-name="brokenbar" unicode="&#xa6;" horiz-adv-x="245" 
d="M100 350v350h45v-350h-45zM100 -180v350h45v-350h-45z" />
    <glyph glyph-name="section" unicode="&#xa7;" horiz-adv-x="511" 
d="M278 708q86 14 126 -31q27 -29 10 -56q-4 -5 -9 -9q-10 -8 -25.5 0t-32 22.5t-38.5 26.5t-45 13t-52 -18q-35 -25 -37 -57.5t36 -88t125 -143.5q40 -41 66 -85.5t36 -86.5t9 -83.5t-13 -77.5t-31.5 -68t-45 -56t-55 -40t-59.5 -21q-86 -14 -127 30q-28 29 -11 56
q4 6 10 11q12 9 33 -4t42.5 -31.5t52.5 -25t64 16.5q35 24 35 62t-40 95.5t-123 137.5q-67 64 -94.5 136.5t-17 134t41 114t76.5 85.5t93 41zM139 583q-15 -28 -23.5 -52t-11 -58.5t7.5 -67t38 -74t74 -83.5q177 -162 147 -263q100 157 -82 332q-64 61 -98 107t-45 82t-7 77
z" />
    <glyph glyph-name="dieresis" unicode="&#xa8;" horiz-adv-x="600" 
d="M186 700q-16 0 -27.5 11.5t-11.5 27.5t11.5 27.5t27.5 11.5t27.5 -11.5t11.5 -27.5t-11.5 -27.5t-27.5 -11.5zM374.5 700q-16.5 0 -27.5 11.5t-11 27.5t11 27.5t27.5 11.5t28 -11.5t11.5 -27.5t-11.5 -27.5t-28 -11.5z" />
    <glyph glyph-name="copyright" unicode="&#xa9;" horiz-adv-x="848" 
d="M424 714q151 0 257.5 -106.5t106.5 -257.5t-106.5 -257.5t-257.5 -106.5t-257.5 106.5t-106.5 257.5t106.5 257.5t257.5 106.5zM424 677q-89 0 -164.5 -43.5t-119 -119t-43.5 -164.5t43.5 -164.5t119 -119t164.5 -43.5t164.5 43.5t119 119t43.5 164.5t-43.5 164.5
t-119 119t-164.5 43.5zM616 316h6l-7 -97q-26 -43 -75.5 -67.5t-109.5 -24.5q-98 0 -163.5 64t-65.5 159q0 96 65.5 159.5t163.5 63.5q91 0 158 -43l14 -100h-6q-13 54 -57.5 85.5t-108.5 31.5q-70 0 -116.5 -56.5t-46.5 -140.5q0 -83 46.5 -139t116.5 -58q52 0 91.5 16
t65 53t29.5 94z" />
    <glyph glyph-name="ordfeminine" unicode="&#xaa;" horiz-adv-x="368" 
d="M186 714l135 -294q18 -37 43 -37h4v-5h-123v5h5q7 0 12.5 4.5t8 12.5t-1.5 20l-26 66h-123l-29 -67q-6 -16 1 -26t18 -10h4v-5h-114v5h4q27 0 44 35l112 237q20 44 21 59h5zM130 510h104l-50 128z" />
    <glyph glyph-name="guillemotleft" unicode="&#xab;" horiz-adv-x="453" 
d="M215 490l-175 -198l175 -202l9 5l-119 197l118 193zM385 490l-175 -198l175 -202l9 5l-119 197l118 193z" />
    <glyph glyph-name="logicalnot" unicode="&#xac;" horiz-adv-x="601" 
d="M40 397h522v-202h-45v157h-477v45z" />
    <glyph glyph-name="softhyphen" unicode="&#xad;" horiz-adv-x="380" 
d="M34 292l6 22h300l6 -22l-6 -23h-300z" />
    <glyph glyph-name="registered" unicode="&#xae;" horiz-adv-x="245" 
d="M123 701q47 0 80 -33t33 -80t-33 -80t-80 -33t-80 33t-33 80t33 80t80 33zM122.5 495q38.5 0 66 27.5t27.5 65.5t-27.5 65.5t-66 27.5t-65.5 -27.5t-27 -65.5t27 -65.5t65.5 -27.5zM105 652h21q19 0 30.5 -9t11.5 -24q0 -12 -8 -21.5t-21 -11.5q3 0 6 -2.5t6 -6.5
t5.5 -7.5t6 -9t5.5 -7.5q11 -16 20 -19v-2h-12q-10 0 -17.5 2.5t-13 8t-8.5 9.5t-8 13t-6 12q-8 13 -11 13v2h10q14 3 18 17q2 5 1 12q0 22 -24 21l-12 1v-98q0 -11 10 -11h3v-2h-50v2h2q10 0 11 10v95q-1 11 -11 11h-2v2h37z" />
    <glyph glyph-name="macron" unicode="&#xaf;" horiz-adv-x="600" 
d="M170 703v35h250v-35h-250z" />
    <glyph glyph-name="degree" unicode="&#xb0;" horiz-adv-x="257" 
d="M128.5 664q40.5 0 69.5 -28.5t29 -69.5t-29 -70t-69.5 -29t-69.5 29t-29 70t29 69.5t69.5 28.5zM128.5 625q-24.5 0 -42 -17t-17.5 -42t17.5 -42t42 -17t42 17t17.5 42t-17.5 42t-42 17z" />
    <glyph glyph-name="plusminus" unicode="&#xb1;" horiz-adv-x="481" 
d="M263 402h179v-45h-179v-178h-45v178h-178v45h178v179h45v-179zM40 60v45h402v-45h-402z" />
    <glyph glyph-name="twosuperior" unicode="&#xb2;" horiz-adv-x="375" 
d="M58 595h-7l-11 75q19 20 50.5 32t63.5 12q41 0 74.5 -15t53.5 -43t20 -64q0 -31 -13 -61.5t-28.5 -52.5t-44 -48t-45.5 -38.5t-45 -32.5q-9 -7 -13 -9h138q12 0 21 1.5t16.5 5.5t14 11t12.5 16t14 22h6l-31 -98h-274v7q12 11 51 44.5t61 55t50 53t41.5 62t13.5 59.5
q0 47 -26 74t-67.5 26t-69 -26t-26.5 -68z" />
    <glyph glyph-name="threesuperior" unicode="&#xb3;" horiz-adv-x="310" 
d="M51 613l-11 62q30 36 95 37q53 1 88 -24.5t35 -66.5q0 -30 -26.5 -56t-59.5 -33q40 -5 70 -30.5t30 -62.5q0 -88 -70 -130.5t-172 -22.5l1 7q83 -2 135.5 36t52.5 108q0 86 -130 86l1 6q50 0 83 25.5t33 68.5q-1 30 -20.5 47.5t-50.5 17.5q-40 0 -59 -17.5t-18 -57.5h-7z
" />
    <glyph glyph-name="acute" unicode="&#xb4;" horiz-adv-x="439" 
d="M208 746l-7 7q76 82 127 131q26 -27 41 -53q-65 -37 -161 -85z" />
    <glyph glyph-name="paragraph" unicode="&#xb6;" horiz-adv-x="520" 
d="M503 743l7 -6q-29 -65 -105 -67h-13v-523q0 -59 -9.5 -92t-38.5 -68l-9 8q14 24 20 49t6.5 40.5t0.5 60.5v525h-83v-670q0 -28 -1 -46.5t-6 -44t-13.5 -43t-25.5 -35.5t-40 -30l-7 9q41 42 52 78.5t8 111.5v333q-85 0 -141 50.5t-55 133.5t57 133t139 50h162h7h9t8.5 0.5
t10.5 2t10.5 3t12 5t12 8t13 10.5t12.5 14z" />
    <glyph glyph-name="periodcentered" unicode="&#xb7;" horiz-adv-x="170" 
d="M85 305q-19 0 -32 13t-13 32t13 32t32 13t32 -13t13 -32t-13 -32t-32 -13z" />
    <glyph glyph-name="cedilla" unicode="&#xb8;" horiz-adv-x="600" 
d="M248 -62l48 63h27l-41 -49q14 5 30.5 5.5t33.5 -4t28.5 -20t12.5 -39.5q1 -46 -44 -67.5t-97 -5.5l1 10q36 0 63.5 15.5t26.5 48.5q-2 29 -30 37.5t-54 -4.5z" />
    <glyph glyph-name="onesuperior" unicode="&#xb9;" horiz-adv-x="211" 
d="M45 308h146v7h-14q-15 0 -26 10.5t-11 24.5v364h-6q-18 -21 -40 -29.5t-54 -13.5v-6h25q31 0 31 -33v-281q0 -15 -11 -25.5t-26 -10.5h-14v-7z" />
    <glyph glyph-name="ordmasculine" unicode="&#xba;" horiz-adv-x="412" 
d="M206 714q73 0 125 -50t52 -122t-52 -122t-125 -50t-124.5 50t-51.5 122t51.5 122t124.5 50zM206.5 391q52.5 0 87 43t34.5 108t-34.5 108t-87 43t-87 -43t-34.5 -108t34.5 -108t87 -43z" />
    <glyph glyph-name="guillemotright" unicode="&#xbb;" horiz-adv-x="453" 
d="M69 90l175 202l-175 198l-8 -5l118 -193l-119 -197zM239 90l175 202l-175 198l-8 -5l118 -193l-119 -197z" />
    <glyph glyph-name="onequarter" unicode="&#xbc;" horiz-adv-x="713" 
d="M578 714l-478 -712l25 -16l477 711zM197 315h14v-7h-146v7h14q15 0 26 10.5t11 25.5v281q0 33 -31 33h-25v6q32 5 54 13.5t40 29.5h7v-364q0 -14 10.5 -24.5t25.5 -10.5zM675 130h-58v-89q1 -14 11.5 -24.5t25.5 -10.5h7v-7h-132v7h7q15 0 25.5 9.5t11.5 24.5v90h-182v6
l220 269h6v-242h29q17 0 23.5 3t13.5 11h6zM445 163h128v160z" />
    <glyph glyph-name="onehalf" unicode="&#xbd;" horiz-adv-x="805" 
d="M577 714l-478 -712l25 -16l477 711zM65 308h146v7h-14q-15 0 -26 10.5t-11 24.5v364h-6q-12 -15 -29 -24t-30.5 -12.5t-34.5 -6.5v-6h25q31 0 31 -33v-281q0 -15 -11 -25.5t-26 -10.5h-14v-7zM488 287h-7l-12 75q20 20 51.5 32t62.5 12q63 0 106 -34t43 -88
q0 -31 -13 -61.5t-29 -52.5t-44 -48t-45 -38.5t-45 -32.5q-9 -7 -13 -9h138q28 0 43.5 11.5t34.5 44.5h6l-31 -98h-274v7q13 12 42.5 37.5t49 43t45.5 44.5t42 49t27 49t11 51q0 47 -26 74t-67.5 26t-69 -26t-26.5 -68z" />
    <glyph glyph-name="threequarters" unicode="&#xbe;" horiz-adv-x="713" 
d="M621 714l-478 -712l25 -16l477 711zM51 613l-11 62q30 36 95 37q53 1 88 -24.5t35 -66.5q0 -30 -26.5 -56t-59.5 -33q25 -3 47.5 -15t37.5 -32.5t15 -45.5q0 -88 -70 -130.5t-172 -22.5l1 7q40 -1 74 8t59.5 26.5t40 46t14.5 63.5q0 86 -130 86l1 6q50 0 83 25.5t33 68.5
q-1 30 -20.5 47.5t-50.5 17.5q-40 0 -59 -17.5t-18 -57.5h-7zM680 130h-58v-89q0 -14 11 -24.5t26 -10.5h7v-7h-132v7h7q15 0 25.5 9.5t11.5 24.5v90h-182v6l220 269h6v-242h29q17 0 23.5 3t12.5 11h7zM450 163h128v160z" />
    <glyph glyph-name="questiondown" unicode="&#xbf;" horiz-adv-x="433" 
d="M233 704q19 0 32 -13t13 -32t-13 -32t-32 -13t-32 13t-13 32t13 32t32 13zM383 170l10 -95q-23 -42 -61 -65.5t-86 -23.5q-61 0 -105 20t-67.5 58.5t-23.5 91.5q0 32 11.5 61t28.5 50t38.5 43t41 39.5t35.5 39.5t22 44q8 22 7.5 46t-17.5 46l6 5q45 -41 45 -96
q0 -25 -15 -52t-36 -51t-42 -49.5t-35.5 -58.5t-14.5 -67q0 -66 32 -103t89 -37q60 0 94.5 41t32.5 113h10z" />
    <glyph glyph-name="Agrave" unicode="&#xc0;" horiz-adv-x="712" 
d="M364 771l-7 -7q-81 38 -161 85q14 28 41 53q63 -61 127 -131zM359 714l268 -641q9 -21 24.5 -36t31 -21t32.5 -6h8v-10h-225v10h9q21 0 34.5 17.5t3.5 45.5l-64 170h-270l-67 -171q-5 -15 -3.5 -26.5t8 -19.5t15.5 -12t18 -4h9v-10h-201v10h9q25 0 49 16t39 47l226 538
q37 81 37 103h9zM223 273h246l-120 321z" />
    <glyph glyph-name="Aacute" unicode="&#xc1;" horiz-adv-x="712" 
d="M357 764l-7 7q76 82 127 131q26 -27 40 -53q-64 -37 -160 -85zM359 714l268 -641q14 -31 38 -47t50 -16h8v-10h-225v10h9q21 0 34.5 17.5t3.5 45.5l-64 170h-270l-67 -171q-10 -28 3.5 -45t34.5 -17h9v-10h-201v10h9q25 0 49 16t39 47l226 538q37 81 37 103h9zM223 273
h246l-120 321z" />
    <glyph glyph-name="Acircumflex" unicode="&#xc2;" horiz-adv-x="712" 
d="M351 890l-106 -119l6 -8l105 66l114 -66l6 8l-115 119h-10zM359 714l268 -641q14 -31 38 -47t50 -16h8v-10h-225v10h9q21 0 34.5 17.5t3.5 45.5l-64 170h-270l-67 -171q-10 -28 3.5 -45t34.5 -17h9v-10h-201v10h9q25 0 49 16t39 47l226 538q37 81 37 103h9zM223 273h246
l-120 321z" />
    <glyph glyph-name="Atilde" unicode="&#xc3;" horiz-adv-x="712" 
d="M492 843h-10q-14 -34 -55 -34q-16 0 -56.5 21.5t-64.5 21.5t-41 -23t-23 -62h10q17 41 54 41q15 0 56.5 -22t64.5 -22q17 0 31 9.5t22.5 27t11.5 42.5zM359 714l268 -641q14 -31 38 -47t50 -16h8v-10h-225v10h9q21 0 34.5 17.5t3.5 45.5l-64 170h-270l-67 -171
q-10 -28 3.5 -45t34.5 -17h9v-10h-201v10h9q25 0 49 16t39 47l226 538q37 81 37 103h9zM223 273h246l-120 321z" />
    <glyph glyph-name="Adieresis" unicode="&#xc4;" horiz-adv-x="712" 
d="M262.5 764q-16.5 0 -28 11.5t-11.5 27.5t11.5 27.5t28 11.5t28 -11.5t11.5 -27.5t-11.5 -27.5t-28 -11.5zM451 764q-16 0 -27.5 11.5t-11.5 27.5t11.5 27.5t27.5 11.5t27.5 -11.5t11.5 -27.5t-11.5 -27.5t-27.5 -11.5zM359 714l268 -641q14 -31 38 -47t50 -16h8v-10h-225
v10h9q21 0 34.5 17.5t3.5 45.5l-64 170h-270l-67 -171q-10 -28 3.5 -45t34.5 -17h9v-10h-201v10h9q25 0 49 16t39 47l226 538q37 81 37 103h9zM223 273h246l-120 321z" />
    <glyph glyph-name="Aring" unicode="&#xc5;" horiz-adv-x="712" 
d="M365 702l262 -629q14 -31 38 -47t50 -16h8v-10h-225v10h9q21 0 34.5 17.5t3.5 45.5l-64 170h-270l-67 -171q-5 -15 -3.5 -26.5t8 -19.5t15.5 -12t18 -4h9v-10h-201v10h9q25 0 49 16t39 47l226 538q28 60 35 91q-33 2 -55 20.5t-22 46.5q0 30 24 49t61 19t61 -18t24 -50
q0 -27 -21.5 -46t-54.5 -21zM311 769.5q0 -24.5 12.5 -38.5t32 -14t32 14t12.5 38.5t-12.5 38.5t-32 14t-32 -14t-12.5 -38.5zM223 273h246l-120 321z" />
    <glyph glyph-name="AE" unicode="&#xc6;" horiz-adv-x="902" 
d="M858 139l-56 -139h-1h-395l1 10h9q20 0 34.5 14t15.5 34v262h-164l-150 -253q-12 -21 -3.5 -39.5t30.5 -17.5h10v-10h-199v10h7q24 0 50.5 18.5t41.5 42.5l374 584q6 13 -0.5 24t-20.5 11h-4v10h243q31 0 68 6t51 12v-113h-10v15q0 20 -14 34.5t-34 14.5h-211v-319h169
q20 1 34 15t14 35v14h10v-158h-10v15q0 20 -14 34t-33 15h-170v-289h164q108 1 153 108h10zM319 350h147v248z" />
    <glyph glyph-name="Ccedilla" unicode="&#xc7;" horiz-adv-x="760" 
d="M702 292h8l-12 -157q-87 -143 -266 -149l-38 -43q15 5 31.5 5.5t33 -4t28 -20t12.5 -39.5q1 -46 -44 -67.5t-97 -5.5l1 10q36 0 63.5 15.5t26.5 48.5q-1 29 -29 37.5t-55 -4.5l-5 10l44 57q-153 5 -248.5 104.5t-95.5 260.5q0 163 99.5 263t263.5 100q134 0 237 -68
l20 -141h-9q-22 86 -89 132.5t-159 46.5q-131 0 -209.5 -91t-78.5 -241t77.5 -241.5t204.5 -94.5q56 0 102 15t85 46t64.5 85.5t33.5 129.5z" />
    <glyph glyph-name="Egrave" unicode="&#xc8;" 
d="M305 771l-7 -7q-80 38 -161 85q15 28 41 53q64 -61 127 -131zM533 162l-58 -162h-415v10h13q26 0 44.5 18.5t19.5 44.5v560q-3 24 -21 40.5t-43 16.5h-12l-1 10h293q20 0 45 3t45 7t29 8v-29v-17v-80h-10v18q0 24 -16.5 41t-39.5 18h-204v-309h169q20 1 34 15t14 35v14
h10v-158h-10v15q0 20 -13.5 34t-33.5 15h-170v-299h143q74 0 113 33t65 98h10z" />
    <glyph glyph-name="Eacute" unicode="&#xc9;" 
d="M298 764l-7 7q76 82 127 131q27 -27 41 -53q-64 -37 -161 -85zM533 162l-58 -162h-415v10h13q26 0 44.5 18.5t19.5 44.5v560q-3 24 -21 40.5t-43 16.5h-12l-1 10h293q20 0 45 3t45 7t29 8v-29v-17v-80h-10v18q0 24 -16.5 41t-39.5 18h-204v-309h169q20 1 34 15t14 35v14
h10v-158h-10v15q0 20 -13.5 34t-33.5 15h-170v-299h143q74 0 113 33t65 98h10z" />
    <glyph glyph-name="Ecircumflex" unicode="&#xca;" 
d="M293 890l-106 -119l6 -8l105 66l113 -66l6 8l-114 119h-10zM533 162l-58 -162h-415v10h13q26 0 44.5 18.5t19.5 44.5v560q-2 16 -10.5 29t-22.5 20.5t-31 7.5h-12l-1 10h293q20 0 45 3t45 7t29 8v-29v-17v-80h-10v18q0 24 -16.5 41t-39.5 18h-204v-309h169q20 1 34 15
t14 35v14h10v-158h-10v15q0 20 -13.5 34t-33.5 15h-170v-299h143q74 0 113 33t65 98h10z" />
    <glyph glyph-name="Edieresis" unicode="&#xcb;" 
d="M204 764q-16 0 -27.5 11.5t-11.5 27.5t11.5 27.5t27.5 11.5t27.5 -11.5t11.5 -27.5t-11.5 -27.5t-27.5 -11.5zM392.5 764q-16.5 0 -28 11.5t-11.5 27.5t11.5 27.5t28 11.5t28 -11.5t11.5 -27.5t-11.5 -27.5t-28 -11.5zM533 162l-58 -162h-415v10h13q26 0 44.5 18.5
t19.5 44.5v560q-2 16 -10.5 29t-23 20.5t-30.5 7.5h-12l-1 10h293q20 0 45 3t45 7t29 8v-29v-17v-80h-10v18q0 24 -16.5 41t-39.5 18h-204v-309h169q20 1 34 15t14 35v14h10v-158h-10v15q0 10 -3.5 19t-10 15.5t-15 10.5t-18.5 4h-170v-299h143q74 0 113 33t65 98h10z" />
    <glyph glyph-name="Igrave" unicode="&#xcc;" horiz-adv-x="338" 
d="M176 771l-7 -7q-80 38 -161 85q15 28 41 53q64 -61 127 -131zM279 10v-10h-219v10h13q26 0 44.5 18.5t19.5 44.5v555q-1 26 -19.5 44t-44.5 18h-13v10h219v-10h-13q-26 0 -44.5 -18t-19.5 -44v-555q0 -26 19 -44.5t45 -18.5h13z" />
    <glyph glyph-name="Iacute" unicode="&#xcd;" horiz-adv-x="338" 
d="M169 764l-7 7q76 82 127 131q27 -27 41 -53q-64 -37 -161 -85zM279 10v-10h-219v10h13q26 0 44.5 18.5t19.5 44.5v555q-1 26 -19.5 44t-44.5 18h-13v10h219v-10h-13q-26 0 -44.5 -18t-19.5 -44v-555q0 -26 19 -44.5t45 -18.5h13z" />
    <glyph glyph-name="Icircumflex" unicode="&#xce;" horiz-adv-x="338" 
d="M164 890l-106 -119l6 -8l105 66l113 -66l6 8l-114 119h-10zM279 10v-10h-219v10h13q26 0 44.5 18.5t19.5 44.5v555q-1 26 -19.5 44t-44.5 18h-13v10h219v-10h-13q-26 0 -44.5 -18t-19.5 -44v-555q0 -26 19 -44.5t45 -18.5h13z" />
    <glyph glyph-name="Idieresis" unicode="&#xcf;" horiz-adv-x="338" 
d="M75 764q-16 0 -27.5 11.5t-11.5 27.5t11.5 27.5t27.5 11.5t27.5 -11.5t11.5 -27.5t-11.5 -27.5t-27.5 -11.5zM263.5 764q-16.5 0 -28 11.5t-11.5 27.5t11.5 27.5t28 11.5t28 -11.5t11.5 -27.5t-11.5 -27.5t-28 -11.5zM279 10v-10h-219v10h13q26 0 44.5 18.5t19.5 44.5
v555q-1 26 -19.5 44t-44.5 18h-13v10h219v-10h-13q-26 0 -44.5 -18t-19.5 -44v-555q0 -26 19 -44.5t45 -18.5h13z" />
    <glyph glyph-name="Eth" unicode="&#xd0;" horiz-adv-x="807" 
d="M65 700h338q160 0 257.5 -96.5t97.5 -253.5q0 -158 -97.5 -254t-257.5 -96h-338v10h13q26 0 44.5 18.5t19.5 44.5v262h-82v30h82v268q0 24 -19.5 40.5t-44.5 16.5h-13v10zM207 335v-305h196q128 0 206.5 88t78.5 232t-78.5 232t-206.5 88h-196v-305h163v-30h-163z" />
    <glyph glyph-name="Ntilde" unicode="&#xd1;" horiz-adv-x="841" 
d="M562 843h-10q-14 -34 -56 -34q-16 0 -56 21.5t-64 21.5q-25 0 -42 -23t-23 -62h10q17 41 55 41q14 0 55.5 -22t64.5 -22q17 0 31 9.5t23 27t12 42.5zM590 700h206v-10h-18q-25 0 -43 -17.5t-19 -42.5v-516q0 -29 2.5 -61t4.5 -49l2 -18h-9l-545 582v-498q0 -17 8.5 -30.5
t22.5 -21.5t30 -8h19v-10h-206v10h19q25 0 43 17.5t18 43.5v519q0 30 -2 61.5t-5 47.5l-2 16h10l545 -582v496q-1 26 -19 43.5t-43 17.5h-19v10z" />
    <glyph glyph-name="Ograve" unicode="&#xd2;" horiz-adv-x="838" 
d="M426 771l-7 -7q-80 38 -161 85q15 28 41 53q64 -61 127 -131zM419 714q160 0 260 -100.5t100 -263.5t-100 -263.5t-260 -100.5t-259.5 100.5t-99.5 263.5t99.5 263.5t259.5 100.5zM419.5 16q127.5 0 205 92t77.5 242q0 99 -35 175t-99.5 117.5t-148.5 41.5
q-127 0 -204.5 -92t-77.5 -242t77.5 -242t205 -92z" />
    <glyph glyph-name="Oacute" unicode="&#xd3;" horiz-adv-x="838" 
d="M429 764l-7 7q76 82 127 131q27 -27 41 -53q-65 -37 -161 -85zM429 714q160 0 260 -100.5t100 -263.5t-100 -263.5t-260 -100.5t-259.5 100.5t-99.5 263.5t99.5 263.5t259.5 100.5zM429.5 16q127.5 0 205 92t77.5 242q0 99 -35 175t-99.5 117.5t-148.5 41.5
q-127 0 -204.5 -92t-77.5 -242t77.5 -242t205 -92z" />
    <glyph glyph-name="Ocircumflex" unicode="&#xd4;" horiz-adv-x="838" 
d="M424 890l-106 -119l6 -8l104 66l114 -66l6 8l-114 119h-10zM429 714q160 0 260 -100.5t100 -263.5t-100 -263.5t-260 -100.5t-259.5 100.5t-99.5 263.5t99.5 263.5t259.5 100.5zM429.5 16q127.5 0 205 92t77.5 242q0 99 -35 175t-99.5 117.5t-148.5 41.5
q-127 0 -204.5 -92t-77.5 -242t77.5 -242t205 -92z" />
    <glyph glyph-name="Otilde" unicode="&#xd5;" horiz-adv-x="838" 
d="M565 843h-10q-14 -34 -56 -34q-16 0 -56 21.5t-64 21.5t-41.5 -23t-22.5 -62h10q16 41 54 41q15 0 56 -22t64 -22q18 0 31.5 9.5t22.5 27t12 42.5zM429 714q160 0 260 -100.5t100 -263.5t-100 -263.5t-260 -100.5t-259.5 100.5t-99.5 263.5t99.5 263.5t259.5 100.5z
M429.5 16q127.5 0 205 92t77.5 242q0 99 -35 175t-99.5 117.5t-148.5 41.5q-127 0 -204.5 -92t-77.5 -242t77.5 -242t205 -92z" />
    <glyph glyph-name="Odieresis" unicode="&#xd6;" horiz-adv-x="838" 
d="M335 764q-16 0 -27.5 11.5t-11.5 27.5t11.5 27.5t27.5 11.5t27.5 -11.5t11.5 -27.5t-11.5 -27.5t-27.5 -11.5zM523 764q-16 0 -27.5 11.5t-11.5 27.5t11.5 27.5t27.5 11.5t27.5 -11.5t11.5 -27.5t-11.5 -27.5t-27.5 -11.5zM429 714q160 0 260 -100.5t100 -263.5
t-100 -263.5t-260 -100.5t-259.5 100.5t-99.5 263.5t99.5 263.5t259.5 100.5zM429.5 16q127.5 0 205 92t77.5 242q0 99 -35 175t-99.5 117.5t-148.5 41.5q-127 0 -204.5 -92t-77.5 -242t77.5 -242t205 -92z" />
    <glyph glyph-name="multiply" unicode="&#xd7;" horiz-adv-x="415" 
d="M366 436l-126 -126l126 -126l-32 -32l-126 126l-126 -126l-32 32l126 126l-126 126l32 32l126 -126l126 126z" />
    <glyph glyph-name="Oslash" unicode="&#xd8;" horiz-adv-x="828" 
d="M725 700l-64 -76q108 -101 108 -274q0 -108 -44 -191t-124.5 -128t-186.5 -45q-132 0 -224 71l-67 -80l-25 22l66 80q-104 101 -104 271q0 81 25.5 149t71.5 115t112.5 73.5t144.5 26.5q130 0 221 -68l64 76zM199 121l406 487q-76 76 -191 76q-127 0 -204.5 -92
t-77.5 -242q0 -139 67 -229zM627 583l-406 -488q76 -79 193 -79q128 0 205.5 92t77.5 242q0 142 -70 233z" />
    <glyph glyph-name="Ugrave" unicode="&#xd9;" horiz-adv-x="785" 
d="M409 771l-7 -7q-81 38 -161 85q14 28 41 53q63 -61 127 -131zM550 700h185v-10h-16q-21 0 -36.5 -13.5t-16.5 -33.5v-396q0 -117 -74 -189t-196 -72q-124 0 -200.5 71.5t-76.5 188.5v394q0 15 -7 26t-19 17.5t-27 6.5h-16v10h203v-10h-16q-22 0 -37 -13.5t-16 -34.5v-382
q0 -109 58.5 -176t153.5 -67q101 0 162 63.5t61 166.5v395q-1 21 -16 34.5t-37 13.5h-16v10z" />
    <glyph glyph-name="Uacute" unicode="&#xda;" horiz-adv-x="785" 
d="M402 764l-7 7q76 82 127 131q26 -27 40 -53q-64 -37 -160 -85zM550 700h185v-10h-16q-21 0 -36.5 -13.5t-16.5 -33.5v-396q0 -117 -74 -189t-196 -72q-124 0 -200.5 71.5t-76.5 188.5v395q0 21 -15.5 35t-37.5 14h-16v10h203v-10h-16q-14 0 -26 -6t-19 -17t-8 -25v-382
q0 -109 58.5 -176t153.5 -67q50 0 91.5 17t70.5 47t45 72.5t16 93.5v395q0 10 -4.5 19t-11.5 15.5t-16.5 10t-20.5 3.5h-16v10z" />
    <glyph glyph-name="Ucircumflex" unicode="&#xdb;" horiz-adv-x="785" 
d="M396 890l-106 -119l6 -8l105 66l114 -66l6 8l-115 119h-10zM550 700h185v-10h-16q-21 0 -36.5 -13.5t-16.5 -33.5v-396q0 -117 -74 -189t-196 -72q-124 0 -200.5 71.5t-76.5 188.5v394q0 22 -15.5 36t-37.5 14h-16v10h203v-10h-16q-22 0 -37 -13.5t-16 -34.5v-382
q0 -109 58.5 -176t153.5 -67q101 0 162 63.5t61 166.5v395q0 10 -4.5 19t-11.5 15.5t-16.5 10t-20.5 3.5h-16v10z" />
    <glyph glyph-name="Udieresis" unicode="&#xdc;" horiz-adv-x="785" 
d="M307.5 764q-16.5 0 -28 11.5t-11.5 27.5t11.5 27.5t28 11.5t28 -11.5t11.5 -27.5t-11.5 -27.5t-28 -11.5zM496 764q-16 0 -27.5 11.5t-11.5 27.5t11.5 27.5t27.5 11.5t27.5 -11.5t11.5 -27.5t-11.5 -27.5t-27.5 -11.5zM550 700h185v-10h-16q-21 0 -36.5 -13.5
t-16.5 -33.5v-396q0 -117 -74 -189t-196 -72q-124 0 -200.5 71.5t-76.5 188.5v394q0 15 -7 26t-19 17.5t-27 6.5h-16v10h203v-10h-16q-14 0 -26 -6t-19 -17t-8 -25v-382q0 -109 58.5 -176t153.5 -67q50 0 91.5 17t70.5 46.5t45 72.5t16 94v395q0 10 -4.5 19t-11.5 15.5
t-16.5 10t-20.5 3.5h-16v10z" />
    <glyph glyph-name="Yacute" unicode="&#xdd;" horiz-adv-x="661" 
d="M340 764l-7 7q76 82 127 131q27 -27 41 -53q-64 -37 -161 -85zM450 700h222v-10h-14q-30 0 -56.5 -16.5t-44.5 -41.5l-197 -320v-239q0 -26 18.5 -44.5t45.5 -18.5h12v-10h-218v10h13q26 0 44.5 18t19.5 44v241l-191 319q-15 24 -42.5 41t-57.5 17h-14v10h246v-10h-13
q-22 0 -34 -20.5t-1 -41.5l150 -280l160 280v1q11 20 -2 40.5t-34 20.5h-12v10z" />
    <glyph glyph-name="Thorn" unicode="&#xde;" horiz-adv-x="554" 
d="M185 548h119q48 0 86.5 -13.5t63.5 -39t38 -61t13 -80t-17.5 -82t-47.5 -61.5t-66 -37t-77 -9.5t-78 22.5v10q2 -1 5.5 -1.5t15.5 -1.5t23.5 -1t28 1.5t31 6t31 12.5t30 20t25.5 30.5t19 41.5q8 23 7 60q-2 70 -37 111.5t-98 41.5h-115v-445q0 -17 8.5 -31.5t23 -23
t32.5 -8.5h12v-10h-218v10h12q27 0 45.5 18.5t19.5 44.5v555q-1 26 -19.5 44t-44.5 18h-13v10h218v-10h-12q-26 0 -45 -18t-19 -44v-80z" />
    <glyph glyph-name="germandbls" unicode="&#xdf;" horiz-adv-x="924" 
d="M160 410l202 -156q45 -37 46 -107q0 -67 -51.5 -114t-125.5 -47q-49 0 -98 12t-75 35q-5 19 -2.5 58t12.5 66h12q-7 -66 32.5 -104.5t107.5 -36.5q62 2 97.5 31.5t35.5 78.5q0 48 -36 80l-200 154q-47 40 -48 108q-1 40 21 73.5t60.5 53t83.5 19.5q59 0 99 -9h33l2 -109
h-11q0 42 -29 65t-87 23q-50 0 -85.5 -27.5t-34.5 -67.5q0 -47 39 -79zM622 410l203 -156q44 -37 45 -107q0 -67 -51.5 -114t-125.5 -47q-49 0 -98 12t-75 35q-5 19 -2.5 58t12.5 66h12q-7 -66 32.5 -104.5t107.5 -36.5q62 2 97.5 31.5t35.5 78.5q0 48 -36 80l-200 154
q-47 40 -48 108q-1 40 21 73.5t60.5 53t83.5 19.5q59 0 99 -9h33l2 -109h-11q0 42 -29 65t-87 23q-50 0 -85.5 -27.5t-34.5 -67.5q0 -47 39 -79z" />
    <glyph glyph-name="agrave" unicode="&#xe0;" horiz-adv-x="663" 
d="M339 671l-7 -7q-80 38 -161 85q15 28 41 53q64 -61 127 -131zM336 614l247 -546q29 -58 77 -58h8v-10h-205v10h8q19 0 31.5 16.5t3.5 43.5l-55 133h-253l-55 -130q-10 -28 2.5 -45.5t32.5 -17.5h8v-10h-191v10h8q21 0 42.5 14.5t35.5 43.5l207 443l2 5q35 75 37 98h9z
M211 233h228l-112 274z" />
    <glyph glyph-name="aacute" unicode="&#xe1;" horiz-adv-x="663" 
d="M332 664l-7 7q76 82 127 131q27 -27 41 -53q-64 -37 -161 -85zM336 614l247 -546q29 -58 77 -58h8v-10h-205v10h8q19 0 31.5 16.5t3.5 43.5l-55 133h-253l-55 -130q-10 -28 2.5 -45.5t32.5 -17.5h8v-10h-191v10h8q21 0 42.5 14.5t35.5 43.5l207 443l4 8t9.5 21t11 26.5
t9.5 27t5 20.5h9zM211 233h228l-112 274z" />
    <glyph glyph-name="acircumflex" unicode="&#xe2;" horiz-adv-x="663" 
d="M327 790l-106 -119l6 -8l104 66l114 -66l6 8l-114 119h-10zM336 614l247 -546q29 -58 77 -58h8v-10h-205v10h8q19 0 31.5 16.5t3.5 43.5l-55 133h-253l-55 -130q-7 -20 -2.5 -34t14.5 -21.5t23 -7.5h8v-10h-191v10h8q21 0 42.5 14.5t35.5 43.5l207 443l4 8t9.5 21
t11 26.5t9.5 27t5 20.5h9zM211 233h228l-112 274z" />
    <glyph glyph-name="atilde" unicode="&#xe3;" horiz-adv-x="663" 
d="M468 743h-10q-14 -34 -56 -34q-15 0 -55.5 21.5t-64.5 21.5q-16 0 -29.5 -10.5t-22.5 -29.5t-12 -45h10q16 41 54 41q15 0 56.5 -22t63.5 -22q18 0 31.5 9.5t22.5 27t12 42.5zM336 614l247 -546q29 -58 77 -58h8v-10h-205v10h8q19 0 31.5 16.5t3.5 43.5l-55 133h-253
l-55 -130q-7 -20 -2.5 -34t14.5 -21.5t23 -7.5h8v-10h-191v10h8q21 0 42.5 14.5t35.5 43.5l207 443l4 8t9.5 21t11 26.5t9.5 27t5 20.5h9zM211 233h228l-112 274z" />
    <glyph glyph-name="adieresis" unicode="&#xe4;" horiz-adv-x="663" 
d="M238 664q-16 0 -27.5 11.5t-11.5 27.5t11.5 27.5t27.5 11.5t27.5 -11.5t11.5 -27.5t-11.5 -27.5t-27.5 -11.5zM426 664q-16 0 -27.5 11.5t-11.5 27.5t11.5 27.5t27.5 11.5t27.5 -11.5t11.5 -27.5t-11.5 -27.5t-27.5 -11.5zM336 614l247 -546q29 -58 77 -58h8v-10h-205v10
h8q19 0 31.5 16.5t3.5 43.5l-55 133h-253l-55 -130q-10 -28 2.5 -45.5t32.5 -17.5h8v-10h-191v10h8q21 0 42.5 14.5t35.5 43.5l207 443l4 8t9.5 21t11 26.5t9.5 27t5 20.5h9zM211 233h228l-112 274z" />
    <glyph glyph-name="aring" unicode="&#xe5;" horiz-adv-x="663" 
d="M332 814q41 0 67.5 -20t26.5 -55q0 -21 -12 -38.5t-33.5 -27t-48.5 -9.5q-40 0 -66.5 21.5t-26.5 53.5q0 16 7 30t19.5 24t30 15.5t36.5 5.5zM332.5 797q-21.5 0 -35.5 -15.5t-14 -42.5t14 -42t35.5 -15t35 15t13.5 42t-13.5 42.5t-35 15.5zM336 614l247 -546
q29 -58 77 -58h8v-10h-205v10h8q19 0 31.5 16.5t3.5 43.5l-55 133h-253l-55 -130q-10 -28 2.5 -45.5t32.5 -17.5h8v-10h-191v10h8q21 0 42.5 14.5t35.5 43.5l207 443l2 5q35 75 37 98h9zM211 233h228l-112 274z" />
    <glyph glyph-name="ae" unicode="&#xe6;" horiz-adv-x="834" 
d="M800 124l-48 -124h-370v10h8q18 0 30 11.5t13 28.5v221h-153l-140 -220q-4 -11 -2.5 -20.5t9.5 -15t19 -5.5h8v-10h-179v10h6q21 0 43.5 15t36.5 36h1l349 501q5 11 -1 20.5t-18 9.5h-3v8h239q13 0 29 1.5t30 4t25.5 5.5t17.5 5v-103h-10v13q0 17 -12 29.5t-30 12.5h-200
v-266h165q18 0 30 12.5t12 29.5v13h10v-138h-10v10q0 11 -5.5 20.5t-14.5 15.5t-21 6h-166v-241h162q90 1 129 94h11zM300 302h133v209z" />
    <glyph glyph-name="ccedilla" unicode="&#xe7;" horiz-adv-x="705" 
d="M657 252h9l-11 -137q-37 -57 -106 -91t-153 -38l-40 -47q15 5 31.5 5.5t33.5 -4t28 -20t12 -39.5q1 -46 -44 -67.5t-97 -5.5l1 10q36 0 63.5 15.5t26.5 48.5q-1 30 -29 38t-55 -5l-5 10l47 61q-148 4 -233.5 88t-85.5 226q0 146 88.5 230t241.5 84q62 0 125 -16t109 -44
l22 -142h-9q-43 172 -248 172q-119 0 -188 -76t-69 -208q0 -86 31 -149.5t89.5 -98t137.5 -35.5q77 -1 136 23t97.5 78t43.5 134z" />
    <glyph glyph-name="egrave" unicode="&#xe8;" horiz-adv-x="546" 
d="M304 671l-7 -7q-80 38 -161 85q15 28 41 53q63 -61 127 -131zM516 143l-55 -143h-406v10h14q24 0 40.5 15.5t17.5 37.5v475q0 22 -17 37t-41 15h-14v10h292q29 0 63.5 5t48.5 11v-114l-11 1v15q0 14 -6 25.5t-17.5 18.5t-26.5 7h-208v-254h171q14 0 23 6t13.5 15.5
t4.5 20.5v13h11v-140h-11v13q0 17 -10 29t-28 13h-174v-254h157q46 0 77.5 16t48 38t33.5 58h10z" />
    <glyph glyph-name="eacute" unicode="&#xe9;" horiz-adv-x="546" 
d="M297 664l-7 7q76 82 127 131q27 -27 41 -53q-65 -37 -161 -85zM516 143l-55 -143h-406v10h14q24 0 40.5 15.5t17.5 37.5v475q0 22 -17 37t-41 15h-14v10h292q29 0 63.5 5t48.5 11v-113h-11v15q0 14 -6 25.5t-17.5 18.5t-26.5 7h-208v-254h171q14 0 23 6t13.5 15.5
t4.5 20.5v13h11v-140h-11v13q0 17 -10 29t-28 13h-174v-254h157q46 0 77.5 16t48 38t33.5 58h10z" />
    <glyph glyph-name="ecircumflex" unicode="&#xea;" horiz-adv-x="546" 
d="M292 790l-106 -119l6 -8l104 66l114 -66l6 8l-114 119h-10zM516 143l-55 -143h-406v10h14q24 0 40.5 15.5t17.5 37.5v475q0 22 -17 37t-41 15h-14v10h292q29 0 63.5 5t48.5 11v-113h-11v15q0 14 -6 25.5t-17.5 18.5t-26.5 7h-207v-254h170q14 0 23 6t13.5 15.5t4.5 20.5
v13h11v-140h-11v13q0 17 -10 29t-28 13h-173v-254h156q66 0 100 28.5t59 83.5h10z" />
    <glyph glyph-name="edieresis" unicode="&#xeb;" horiz-adv-x="546" 
d="M203 664q-16 0 -27.5 11.5t-11.5 27.5t11.5 27.5t27.5 11.5t27.5 -11.5t11.5 -27.5t-11.5 -27.5t-27.5 -11.5zM391 664q-16 0 -27.5 11.5t-11.5 27.5t11.5 27.5t27.5 11.5t27.5 -11.5t11.5 -27.5t-11.5 -27.5t-27.5 -11.5zM516 143l-55 -143h-406v10h14q24 0 40.5 15.5
t17.5 37.5v475q0 22 -17 37t-41 15h-14v10h292q29 0 63.5 5t48.5 11v-114l-11 1v15q0 21 -14 36t-36 15h-208v-254h171q14 0 23 6t13.5 15.5t4.5 20.5v13h11v-140h-11v13q0 17 -10 29t-28 13h-174v-254h157q46 0 77.5 16t48 38t33.5 58h10z" />
    <glyph glyph-name="igrave" unicode="&#xec;" horiz-adv-x="306" 
d="M161 671l-7 -7q-82 38 -161 85q14 28 41 53q63 -61 127 -131zM251 10l1 -10h-197v10h11q23 0 39 16t16 38v472q0 15 -7.5 27.5t-20 19.5t-27.5 7h-11v10h197l-1 -10h-11q-22 0 -38 -15.5t-17 -37.5v-474q1 -22 17 -37.5t39 -15.5h10z" />
    <glyph glyph-name="iacute" unicode="&#xed;" horiz-adv-x="306" 
d="M154 664l-7 7q76 82 126 131q27 -27 41 -53q-64 -37 -160 -85zM251 10l1 -10h-197v10h11q23 0 39 16t16 38v472q0 22 -16 38t-39 16h-11v10h197l-1 -10h-10q-23 0 -39 -15.5t-17 -37.5v-474q1 -22 17 -37.5t39 -15.5h10z" />
    <glyph glyph-name="icircumflex" unicode="&#xee;" horiz-adv-x="306" 
d="M148 790l-106 -119l6 -8l105 66l114 -66l6 8l-115 119h-10zM251 10l1 -10h-197v10h11q23 0 39 16t16 38v472q0 15 -7.5 27.5t-20 19.5t-27.5 7h-11v10h197l-1 -10h-10q-23 0 -39 -15.5t-17 -37.5v-474q1 -22 17 -37.5t39 -15.5h10z" />
    <glyph glyph-name="idieresis" unicode="&#xef;" horiz-adv-x="306" 
d="M59.5 664q-16.5 0 -28 11.5t-11.5 27.5t11.5 27.5t28 11.5t27.5 -11.5t11 -27.5t-11 -27.5t-27.5 -11.5zM248 664q-16 0 -27.5 11.5t-11.5 27.5t11.5 27.5t27.5 11.5t27.5 -11.5t11.5 -27.5t-11.5 -27.5t-27.5 -11.5zM251 10l1 -10h-197v10h11q23 0 39 16t16 38v472
q0 15 -7.5 27.5t-20 19.5t-27.5 7h-11v10h197l-1 -10h-11q-22 0 -38 -15.5t-17 -37.5v-474q1 -14 8.5 -26.5t20 -19.5t27.5 -7h10z" />
    <glyph glyph-name="eth" unicode="&#xf0;" horiz-adv-x="760" 
d="M55 600h334q98 0 170.5 -36t111.5 -104t39 -160q0 -139 -86.5 -219.5t-234.5 -80.5h-334v10h13q24 0 40 16t17 38v221h-63v30h63v221q-1 24 -17.5 39t-40.5 15h-12v10zM190 285v-255h199q115 0 182 72t67 198q0 62 -17.5 112.5t-49.5 85t-78.5 53.5t-103.5 19h-199v-255
h157v-30h-157z" />
    <glyph glyph-name="ntilde" unicode="&#xf1;" horiz-adv-x="779" 
d="M524 743h-10q-14 -34 -56 -34q-16 0 -56 21.5t-64 21.5q-16 0 -29.5 -10.5t-22.5 -29.5t-12 -45h10q16 41 54 41q15 0 56 -22t64 -22q26 0 43.5 21t22.5 58zM555 600h189v-10h-17q-22 0 -38 -14.5t-17 -35.5v-426q0 -29 2 -61t5 -49l2 -18h-9l-520 493v-417
q0 -14 7.5 -26t20 -19t27.5 -7h17v-10h-189v10h17q23 0 39 15t16 37v428q0 30 -2 61.5t-5 47.5l-2 16l11 -1l519 -489v415q-2 21 -18 35.5t-38 14.5h-17v10z" />
    <glyph glyph-name="ograve" unicode="&#xf2;" horiz-adv-x="774" 
d="M394 671l-7 -7q-80 38 -160 85q14 28 40 53q64 -61 127 -131zM387.5 614q92.5 0 169.5 -39.5t122.5 -111.5t45.5 -163t-45.5 -163t-122.5 -111.5t-169.5 -39.5t-169.5 39.5t-122.5 111.5t-45.5 163t45.5 163t122.5 111.5t169.5 39.5zM387 16q112 0 188 79.5t76 204.5
t-76 204.5t-188 79.5t-187.5 -79.5t-75.5 -204.5t75.5 -204.5t187.5 -79.5z" />
    <glyph glyph-name="oacute" unicode="&#xf3;" horiz-adv-x="774" 
d="M387 664l-7 7q77 82 127 131q27 -27 41 -53q-64 -37 -161 -85zM387.5 614q92.5 0 169.5 -39.5t122.5 -111.5t45.5 -163t-45.5 -163t-122.5 -111.5t-169.5 -39.5t-169.5 39.5t-122.5 111.5t-45.5 163t45.5 163t122.5 111.5t169.5 39.5zM387 16q112 0 188 79.5t76 204.5
t-76 204.5t-188 79.5t-187.5 -79.5t-75.5 -204.5t75.5 -204.5t187.5 -79.5z" />
    <glyph glyph-name="ocircumflex" unicode="&#xf4;" horiz-adv-x="774" 
d="M382 790l-106 -119l6 -8l105 66l113 -66l6 8l-114 119h-10zM387.5 614q92.5 0 169.5 -39.5t122.5 -111.5t45.5 -163t-45.5 -163t-122.5 -111.5t-170 -39.5q-69 0 -131 23t-107.5 64t-72 100t-26.5 127q0 91 45.5 163t122.5 111.5t169.5 39.5zM387 16q112 0 188 79.5
t76 204.5t-76 204.5t-188 79.5t-187.5 -79.5t-75.5 -204.5t75.5 -204.5t187.5 -79.5z" />
    <glyph glyph-name="otilde" unicode="&#xf5;" horiz-adv-x="774" 
d="M523 743h-10q-14 -34 -55 -34q-16 0 -56.5 21.5t-64.5 21.5q-16 0 -29 -10.5t-22 -29.5t-13 -45h10q16 41 54 41q15 0 56.5 -22t64.5 -22q26 0 43.5 21t21.5 58zM387.5 614q92.5 0 169.5 -39.5t122.5 -111.5t45.5 -163t-45.5 -163t-122.5 -111.5t-169.5 -39.5
t-169.5 39.5t-122.5 111.5t-45.5 163t45.5 163t122.5 111.5t169.5 39.5zM387 16q112 0 188 79.5t76 204.5t-76 204.5t-188 79.5t-187.5 -79.5t-75.5 -204.5t75.5 -204.5t187.5 -79.5z" />
    <glyph glyph-name="odieresis" unicode="&#xf6;" horiz-adv-x="774" 
d="M293 664q-16 0 -27.5 11.5t-11.5 27.5t11.5 27.5t27.5 11.5t27.5 -11.5t11.5 -27.5t-11.5 -27.5t-27.5 -11.5zM481.5 664q-16.5 0 -27.5 11.5t-11 27.5t11 27.5t27.5 11.5t28 -11.5t11.5 -27.5t-11.5 -27.5t-28 -11.5zM387.5 614q92.5 0 169.5 -39.5t122.5 -111.5
t45.5 -163t-45.5 -163t-122.5 -111.5t-169.5 -39.5t-169.5 39.5t-122.5 111.5t-45.5 163t45.5 163t122.5 111.5t169.5 39.5zM387 16q112 0 188 79.5t76 204.5t-76 204.5t-188 79.5t-187.5 -79.5t-75.5 -204.5t75.5 -204.5t187.5 -79.5z" />
    <glyph glyph-name="divide" unicode="&#xf7;" horiz-adv-x="481" 
d="M240.5 433q-14.5 0 -25 10.5t-10.5 25t10.5 24.5t25 10t25 -10t10.5 -24.5t-10.5 -25t-25 -10.5zM40 287v45h402v-45h-402zM240.5 117q-14.5 0 -25 10.5t-10.5 25t10.5 24.5t25 10t25 -10t10.5 -24.5t-10.5 -25t-25 -10.5z" />
    <glyph glyph-name="oslash" unicode="&#xf8;" horiz-adv-x="774" 
d="M639 608l-46 -55q61 -42 96.5 -107.5t35.5 -145.5q0 -91 -45.5 -163t-122.5 -111.5t-170 -39.5q-121 0 -212 66l-62 -75l-25 22l61 74q-99 89 -99 227q0 91 45.5 163t122.5 111.5t169 39.5q97 0 176 -43l50 60zM184 114l352 424q-65 46 -149 46q-112 0 -187.5 -79.5
t-75.5 -204.5q0 -109 60 -186zM563 517l-357 -428q74 -73 181 -73q112 0 188 79.5t76 204.5q0 136 -88 217z" />
    <glyph glyph-name="ugrave" unicode="&#xf9;" horiz-adv-x="700" 
d="M358 671l-7 -7q-81 38 -161 85q14 28 41 53q63 -61 127 -131zM493 600h172v-10h-15q-19 0 -33 -12t-15 -30v-337q0 -104 -66.5 -164.5t-182.5 -60.5t-183 60t-67 164v337q0 18 -14 30.5t-34 12.5h-15v10h190v-10h-15q-20 0 -34 -12.5t-14 -30.5v-325q0 -97 49.5 -153
t135.5 -56q95 0 149.5 53t54.5 145v336q-1 19 -14.5 31t-33.5 12h-15v10z" />
    <glyph glyph-name="uacute" unicode="&#xfa;" horiz-adv-x="700" 
d="M350 664l-6 7q76 82 126 131q27 -27 41 -53q-64 -37 -161 -85zM493 600h172v-10h-15q-12 0 -23 -5.5t-17.5 -15t-7.5 -21.5v-337q0 -104 -66.5 -164.5t-182.5 -60.5t-183 60t-67 164v337q0 18 -14 30.5t-34 12.5h-15v10h190v-10h-15q-20 0 -34 -12.5t-14 -30.5v-325
q0 -97 49.5 -153t135.5 -56q95 0 149.5 53t54.5 145v336q-1 19 -14.5 31t-33.5 12h-15v10z" />
    <glyph glyph-name="ucircumflex" unicode="&#xfb;" horiz-adv-x="700" 
d="M345 790l-106 -119l6 -8l105 66l114 -66l6 8l-115 119h-10zM493 600h172v-10h-15q-12 0 -23 -5.5t-17.5 -15t-7.5 -21.5v-337q0 -104 -66.5 -164.5t-182.5 -60.5t-183 60t-67 164v337q0 18 -14 30.5t-34 12.5h-15v10h190v-10h-15q-20 0 -34 -12.5t-14 -30.5v-325
q0 -97 49.5 -153t135.5 -56q95 0 149.5 53t54.5 145v336q0 9 -4 17t-10.5 14t-15 9t-18.5 3h-15v10z" />
    <glyph glyph-name="udieresis" unicode="&#xfc;" horiz-adv-x="700" 
d="M256.5 664q-16.5 0 -28 11.5t-11.5 27.5t11.5 27.5t28 11.5t27.5 -11.5t11 -27.5t-11 -27.5t-27.5 -11.5zM445 664q-16 0 -27.5 11.5t-11.5 27.5t11.5 27.5t27.5 11.5t27.5 -11.5t11.5 -27.5t-11.5 -27.5t-27.5 -11.5zM493 600h172v-10h-15q-12 0 -23 -5.5t-17.5 -15
t-7.5 -21.5v-337q0 -104 -66.5 -164.5t-182.5 -60.5t-183 60t-67 164v337q0 18 -14 30.5t-34 12.5h-15v10h190v-10h-15q-20 0 -34 -12.5t-14 -30.5v-325q0 -97 49.5 -153t135.5 -56q95 0 149.5 53t54.5 145v336q0 9 -4 17t-10.5 13.5t-15 9t-18.5 3.5h-15v10z" />
    <glyph glyph-name="yacute" unicode="&#xfd;" horiz-adv-x="640" 
d="M333 664l-7 7q77 82 127 131q27 -27 41 -53q-64 -37 -161 -85zM436 600h209v-10h-12q-27 0 -51.5 -14.5t-40.5 -36.5l-192 -291v-184q0 -22 17 -38t41 -16h12v-10h-205v10h12q24 0 41 16t17 38v185l-185 291q-34 50 -92 50h-12v10h232v-10h-12q-19 0 -29.5 -15t-4.5 -33
l146 -259l155 258q8 19 -3 34t-31 15h-12v10z" />
    <glyph glyph-name="thorn" unicode="&#xfe;" horiz-adv-x="527" 
d="M184 475h100q97 0 152.5 -45.5t55.5 -125.5q0 -55 -23.5 -97t-61 -62t-85 -20t-93.5 25v9q3 -1 8 -2t21 -2.5t31 -0.5t35 6.5t36.5 16.5t32 32.5t24.5 50.5q7 20 7 54q0 61 -38.5 96t-105.5 35h-96v-381q0 -23 15.5 -38.5t37.5 -15.5h13v-10h-197l1 10h12q22 0 37.5 15.5
t16.5 37.5v474q-1 23 -16 38t-38 15h-12l-1 10h197v-10h-13q-22 0 -37 -14.5t-16 -36.5v-64z" />
    <glyph glyph-name="ydieresis" unicode="&#xff;" horiz-adv-x="640" 
d="M239 664q-16 0 -27.5 11.5t-11.5 27.5t11.5 27.5t27.5 11.5t27.5 -11.5t11.5 -27.5t-11.5 -27.5t-27.5 -11.5zM427.5 664q-16.5 0 -27.5 11.5t-11 27.5t11 27.5t27.5 11.5t28 -11.5t11.5 -27.5t-11.5 -27.5t-28 -11.5zM436 600h209v-10h-12q-27 0 -51.5 -14.5
t-40.5 -36.5l-192 -291v-184q0 -22 17 -38t41 -16h12v-10h-205v10h12q24 0 41 16t17 38v185l-185 291q-34 50 -92 50h-12v10h232v-10h-12q-19 0 -29.5 -15t-4.5 -33l146 -259l155 258q8 19 -3 34t-31 15h-12v10z" />
    <glyph glyph-name="Amacron" unicode="&#x100;" horiz-adv-x="712" 
d="M234 795v35h250v-35h-250zM359 714l268 -641q14 -31 38 -47t50 -16h8v-10h-225v10h9q21 0 34.5 17.5t3.5 45.5l-64 170h-270l-67 -171q-10 -28 3.5 -45t34.5 -17h9v-10h-201v10h9q25 0 49 16t39 47l226 538q37 81 37 103h9zM223 273h246l-120 321z" />
    <glyph glyph-name="amacron" unicode="&#x101;" horiz-adv-x="663" 
d="M210 695v35h250v-35h-250zM336 614l247 -546q29 -58 77 -58h8v-10h-205v10h8q19 0 31.5 16.5t3.5 43.5l-55 133h-253l-55 -130q-10 -28 2.5 -45.5t32.5 -17.5h8v-10h-191v10h8q21 0 42.5 14.5t35.5 43.5l207 443l4 8t9.5 21t11 26.5t9.5 27t5 20.5h9zM211 233h228
l-112 274z" />
    <glyph glyph-name="Abreve" unicode="&#x102;" horiz-adv-x="712" 
d="M450 868h10q0 -28 -14 -52t-38 -38t-51 -14q-42 0 -72.5 31t-30.5 73h10q8 -22 34 -38t59 -16t59 16t34 38zM359 714l268 -641q14 -31 38 -47t50 -16h8v-10h-225v10h9q21 0 34.5 17.5t3.5 45.5l-64 170h-270l-67 -171q-10 -28 3.5 -45t34.5 -17h9v-10h-201v10h9
q25 0 49 16t39 47l226 538q37 81 37 103h9zM223 273h246l-120 321z" />
    <glyph glyph-name="abreve" unicode="&#x103;" horiz-adv-x="663" 
d="M425 768h10q0 -28 -14 -52t-37.5 -38t-51.5 -14q-42 0 -72.5 31t-30.5 73h10q8 -22 34 -38t59.5 -16t59 16t33.5 38zM336 614l247 -546q29 -58 77 -58h8v-10h-205v10h8q19 0 31.5 16.5t3.5 43.5l-55 133h-253l-55 -130q-10 -28 2.5 -45.5t32.5 -17.5h8v-10h-191v10h8
q21 0 42.5 14.5t35.5 43.5l207 443l4 8t9.5 21t11 26.5t9.5 27t5 20.5h9zM211 233h228l-112 274z" />
    <glyph glyph-name="Aogonek" unicode="&#x104;" horiz-adv-x="737" 
d="M748 9v-9q-26 0 -49.5 1t-34 2t-24 0.5t-28.5 -3.5q-30 -5 -46 -25.5t-16 -45.5q0 -21 12.5 -37.5t30.5 -24t40.5 -3t40.5 22.5l6 -6q-9 -24 -30 -39t-45.5 -17t-47.5 5t-38.5 30t-16.5 56q0 17 7.5 32t18.5 25.5t24 18.5q21 12 25.5 30t-6.5 49l-69 172h-287l-71 -171
q-10 -27 3.5 -44.5t34.5 -17.5h9v-10h-201v10h9q25 0 49 16t39 47l240 538q37 81 37 103h9l283 -646q5 -12 12.5 -22t16 -16.5t18 -11t18.5 -7t18 -2.5h9zM228 273h262l-128 323z" />
    <glyph glyph-name="aogonek" unicode="&#x105;" horiz-adv-x="633" 
d="M664 10v-10q-17 0 -55 2.5t-68 2.5t-48 -5q-53 -13 -51 -71q1 -28 21 -47.5t48.5 -19t52.5 24.5l6 -6q-9 -24 -29.5 -39t-44.5 -16.5t-47 6t-38 30.5t-15 56q-1 30 19.5 54.5t56.5 37.5q50 17 33 62l-54 131h-253l-55 -130q-7 -20 -2.5 -34t14.5 -21.5t23 -7.5h8v-10
h-191v10h8q21 0 42.5 14.5t35.5 43.5l207 443l2 5q35 75 37 98h9l251 -554q27 -50 69 -50h8zM211 233h228l-112 274z" />
    <glyph glyph-name="Cacute" unicode="&#x106;" horiz-adv-x="760" 
d="M417 764l-7 7q76 82 127 131q27 -27 41 -53q-64 -37 -161 -85zM702 292h8l-12 -157q-91 -149 -281 -149q-158 1 -257.5 101t-99.5 264q0 163 99.5 263t263.5 100q134 0 237 -68l20 -141h-9q-22 86 -89 132.5t-159 46.5q-131 0 -209.5 -91t-78.5 -241t77.5 -241.5
t204.5 -94.5q56 0 102 15t85 46t64.5 85.5t33.5 129.5z" />
    <glyph glyph-name="cacute" unicode="&#x107;" horiz-adv-x="705" 
d="M380 664l-7 7q76 82 127 131q27 -27 41 -53q-64 -37 -161 -85zM657 252h9l-11 -137q-39 -60 -113 -94.5t-162 -34.5q-153 1 -241.5 85t-88.5 229q0 146 88.5 230t241.5 84q62 0 125 -16t109 -44l22 -142h-9q-43 172 -248 172q-119 0 -188 -76t-69 -208q0 -130 69.5 -206
t188.5 -77q118 -1 193.5 58t83.5 177z" />
    <glyph glyph-name="Cdotaccent" unicode="&#x10a;" horiz-adv-x="760" 
d="M416 765q-18 0 -30.5 12.5t-12.5 30.5t12.5 30.5t30.5 12.5t30.5 -12.5t12.5 -30.5t-12.5 -30.5t-30.5 -12.5zM702 292h8l-12 -157q-91 -149 -281 -149q-158 1 -257.5 101t-99.5 264q0 163 99.5 263t263.5 100q134 0 237 -68l20 -141h-9q-22 86 -89 132.5t-159 46.5
q-131 0 -209.5 -91t-78.5 -241t77.5 -241.5t204.5 -94.5q56 0 102 15t85 46t64.5 85.5t33.5 129.5z" />
    <glyph glyph-name="cdotaccent" unicode="&#x10b;" horiz-adv-x="705" 
d="M379 665q-18 0 -30.5 12.5t-12.5 30.5t12.5 30.5t30.5 12.5t30.5 -12.5t12.5 -30.5t-12.5 -30.5t-30.5 -12.5zM657 252h9l-11 -137q-39 -60 -113 -94.5t-162 -34.5q-153 1 -241.5 85t-88.5 229q0 146 88.5 230t241.5 84q62 0 125 -16t109 -44l22 -142h-9
q-43 172 -248 172q-119 0 -188 -76t-69 -208q0 -86 31 -149.5t89.5 -98t137.5 -35.5q77 -1 136 23t97.5 78t43.5 134z" />
    <glyph glyph-name="Ccaron" unicode="&#x10c;" horiz-adv-x="760" 
d="M422 764l106 119l-6 8l-104 -66l-114 66l-6 -8l114 -119h10zM702 292h8l-12 -157q-91 -149 -281 -149q-158 1 -257.5 101t-99.5 264q0 108 44.5 190t127 127.5t191.5 45.5q134 0 237 -68l20 -141h-9q-22 86 -89 132.5t-159 46.5q-131 0 -209.5 -91t-78.5 -241
t77.5 -241.5t204.5 -94.5q56 0 102 15t85 46t64.5 85.5t33.5 129.5z" />
    <glyph glyph-name="ccaron" unicode="&#x10d;" horiz-adv-x="705" 
d="M385 664l106 119l-6 8l-104 -66l-114 66l-6 -8l114 -119h10zM657 252h9l-11 -137q-39 -60 -113 -94.5t-162 -34.5q-153 1 -241.5 85t-88.5 229q0 146 88.5 230t241.5 84q62 0 125 -16t109 -44l22 -142h-9q-43 172 -248 172q-119 0 -188 -76t-69 -208q0 -64 18 -116.5
t51 -89t81.5 -56.5t107.5 -21q77 -1 136 23t97.5 78t43.5 134z" />
    <glyph glyph-name="Dcaron" unicode="&#x10e;" horiz-adv-x="807" 
d="M404 764l106 119l-6 8l-104 -66l-114 66l-6 -8l114 -119h10zM60 700h339q160 0 259.5 -96.5t99.5 -253.5t-99.5 -253.5t-259.5 -96.5h-339v10h13q26 0 44.5 18.5t19.5 44.5v560q0 24 -19.5 40.5t-44.5 16.5h-13v10zM202 670v-640h197q84 0 148.5 40t100 112.5t35.5 167.5
q0 144 -78.5 232t-205.5 88h-197z" />
    <glyph glyph-name="dcaron" unicode="&#x10f;" horiz-adv-x="760" 
d="M393 665l106 119l-6 8l-105 -66l-113 66l-6 -8l114 -119h10zM55 600h334q148 0 234.5 -80.5t86.5 -219.5t-86.5 -219.5t-234.5 -80.5h-334v10h13q24 0 40 16t17 38v472q-1 24 -17.5 39t-40.5 15h-12v10zM190 570v-540h199q115 0 182 72.5t67 197.5q0 62 -17.5 112.5
t-49.5 85t-78.5 53.5t-103.5 19h-199z" />
    <glyph glyph-name="Dcroat" unicode="&#x110;" horiz-adv-x="807" 
d="M277 795v35h250v-35h-250zM60 700h339q160 0 259.5 -96.5t99.5 -253.5t-99.5 -253.5t-259.5 -96.5h-339v10h13q26 0 44.5 18.5t19.5 44.5v560q0 24 -19.5 40.5t-44.5 16.5h-12zM202 670v-640h197q84 0 148.5 40t100 112.5t35.5 167.5q0 144 -78.5 232t-205.5 88h-197z
" />
    <glyph glyph-name="dcroat" unicode="&#x111;" horiz-adv-x="760" 
d="M266 696v35h250v-35h-250zM55 600h334q148 0 234.5 -80.5t86.5 -219.5t-86.5 -219.5t-234.5 -80.5h-334v10h13q24 0 40 16t17 38v472q-1 24 -17.5 39t-40.5 15h-12v10zM190 570v-540h199q115 0 182 72.5t67 197.5q0 62 -17.5 112.5t-49.5 85t-78.5 53.5t-103.5 19h-199z
" />
    <glyph glyph-name="Emacron" unicode="&#x112;" 
d="M176 795v35h250v-35h-250zM533 162l-58 -162h-415v10h13q26 0 44.5 18.5t19.5 44.5v560q-3 24 -21 40.5t-43 16.5h-12l-1 10h293q31 0 67.5 6t51.5 12v-29v-17v-80h-10v18q0 24 -16.5 41t-39.5 18h-204v-309h169q20 1 34 15t14 35v14h10v-158h-10v15q0 20 -13.5 34
t-33.5 15h-170v-299h143q74 0 113 33t65 98h10z" />
    <glyph glyph-name="emacron" unicode="&#x113;" horiz-adv-x="546" 
d="M175 695v35h250v-35h-250zM516 143l-55 -143h-406v10h14q24 0 40.5 15.5t17.5 37.5v475q0 22 -17 37t-41 15h-14v10h292q19 0 42.5 2.5t42 6t27.5 7.5v-114l-11 1v15q0 21 -14 36t-36 15h-208v-254h171q20 0 30.5 12t10.5 30v13h11v-140h-11v13q0 8 -2.5 15.5t-7 13
t-12 9t-16.5 4.5h-174v-254h157q46 0 77.5 16t48 38t33.5 58h10z" />
    <glyph glyph-name="Edotaccent" unicode="&#x116;" 
d="M297 765q-18 0 -30.5 12.5t-12.5 30.5t12.5 30.5t30.5 12.5t30.5 -12.5t12.5 -30.5t-12.5 -30.5t-30.5 -12.5zM533 162l-58 -162h-415v10h13q26 0 44.5 18.5t19.5 44.5v560q-2 16 -10.5 29t-23 20.5t-30.5 7.5h-12l-1 10h293q20 0 45 3t45 7t29 8v-29v-17v-80h-10v18
q0 24 -16.5 41t-39.5 18h-204v-309h169q20 1 34 15t14 35v14h10v-158h-10v15q0 20 -13.5 34t-33.5 15h-170v-299h143q74 0 113 33t65 98h10z" />
    <glyph glyph-name="edotaccent" unicode="&#x117;" horiz-adv-x="546" 
d="M295.5 665q-17.5 0 -30.5 12.5t-13 30.5t13 30.5t30.5 12.5t30.5 -12.5t13 -30.5t-13 -30.5t-30.5 -12.5zM516 143l-55 -143h-406v10h14q24 0 40.5 15.5t17.5 37.5v475q0 22 -17 37t-41 15h-14v10h292q29 0 63.5 5t48.5 11v-114l-11 1v15q0 21 -14 36t-36 15h-208v-254
h171q20 0 30.5 12t10.5 30v13h11v-140h-11v13q0 17 -10 29t-28 13h-174v-254h157q46 0 77.5 16t48 38t33.5 58h10z" />
    <glyph glyph-name="Eogonek" unicode="&#x118;" 
d="M533 162l-59 -162q-76 -18 -74 -78q1 -28 20.5 -47.5t48.5 -19t53 24.5l6 -6q-9 -24 -29.5 -39t-44.5 -16.5t-47 6t-38 30.5t-15 56q-1 33 22.5 57t59.5 32h-376v10h13q26 0 44.5 18.5t19.5 44.5v560q-3 24 -21 40.5t-43 16.5h-12l-1 10h293q20 0 45 3t45 7t29 8v-29v-17
v-80h-10v18q0 24 -16.5 41t-39.5 18h-204v-309h169q20 1 34 15t14 35v14h10v-158h-10v15q0 20 -13.5 34t-33.5 15h-170v-299h143q74 0 113 33t65 98h10z" />
    <glyph glyph-name="eogonek" unicode="&#x119;" horiz-adv-x="546" 
d="M461 0h-8q-77 -18 -75 -78q1 -28 21 -47.5t49 -19t52 24.5l6 -6q-8 -24 -29 -39t-45 -17t-46.5 6t-37.5 31t-16 56q0 22 11 40.5t29.5 31t41.5 17.5h-359v10h14q24 0 40.5 15.5t17.5 37.5v475q0 22 -17 37t-41 15h-14v10h292q19 0 42.5 2.5t42 6t27.5 7.5v-114l-11 1v15
q0 21 -14 36t-36 15h-208v-254h171q20 0 30.5 12t10.5 30v13h11v-140h-11v13q0 8 -2.5 15.5t-7 13t-12 9t-16.5 4.5h-174v-254h157q46 0 77.5 16t48 38t33.5 58h10z" />
    <glyph glyph-name="Ecaron" unicode="&#x11a;" 
d="M303 764l106 119l-6 8l-104 -66l-114 66l-6 -8l114 -119h10zM533 162l-58 -162h-415v10h13q26 0 44.5 18.5t19.5 44.5v560q-2 16 -10.5 29t-23 20.5t-30.5 7.5h-12l-1 10h293q31 0 67.5 6t51.5 12v-29v-17v-80h-10v18q0 24 -16.5 41t-39.5 18h-204v-309h169q20 1 34 15
t14 35v14h10v-158h-10v15q0 20 -13.5 34t-33.5 15h-170v-299h143q74 0 113 33t65 98h10z" />
    <glyph glyph-name="ecaron" unicode="&#x11b;" horiz-adv-x="546" 
d="M302 664l106 119l-6 8l-105 -66l-113 66l-6 -8l114 -119h10zM516 143l-55 -143h-406v10h14q16 0 29 7t20.5 19t8.5 27v475q0 22 -17 37t-41 15h-14v10h292q29 0 63.5 5t48.5 11v-114l-11 1v15q0 14 -6 25.5t-17.5 18.5t-26.5 7h-208v-254h171q20 0 30.5 12t10.5 30v13h11
v-140h-11v13q0 17 -10 29t-28 13h-174v-254h157q66 0 100 28.5t59 83.5h10z" />
    <glyph glyph-name="Gbreve" unicode="&#x11e;" horiz-adv-x="798" 
d="M513 868h10q0 -28 -14 -52t-38 -38t-51 -14q-42 0 -72.5 31t-30.5 73h10q8 -22 33.5 -38t59 -16t59.5 16t34 38zM774 325h-15q-25 0 -38 -11.5t-12 -33.5v-165q-41 -54 -114 -91.5t-176 -37.5q-160 1 -259.5 101t-99.5 263t99.5 263.5t259.5 100.5q138 0 243 -68l20 -141
h-9q-22 86 -88.5 132.5t-165.5 46.5q-127 0 -205.5 -92t-78.5 -242t78.5 -241.5t205.5 -92.5q43 0 84.5 10.5t77 30t64.5 46.5v177q0 22 -13.5 33.5t-37.5 11.5h-16v10h196v-10z" />
    <glyph glyph-name="gbreve" unicode="&#x11f;" horiz-adv-x="742" 
d="M471 768h10q0 -28 -14 -52t-37.5 -38t-51.5 -14q-42 0 -72.5 31t-30.5 73h10q8 -22 34 -38t59.5 -16t59 16t33.5 38zM663 235v-120q-42 -52 -115.5 -90.5t-169.5 -38.5q-149 1 -238.5 85.5t-89.5 228.5q0 145 89.5 229.5t238.5 84.5q134 0 233 -60l22 -142h-9
q-21 88 -81.5 130t-165.5 42q-116 0 -185.5 -76.5t-69.5 -207.5t70 -207.5t186 -76.5q131 0 220 87l1 133q1 18 -11.5 28.5t-34.5 10.5h-14v10h183v-10h-14q-45 0 -45 -40z" />
    <glyph glyph-name="Gdotaccent" unicode="&#x120;" horiz-adv-x="798" 
d="M418 765q-18 0 -30.5 12.5t-12.5 30.5t12.5 30.5t30.5 12.5t30.5 -12.5t12.5 -30.5t-12.5 -30.5t-30.5 -12.5zM774 325h-15q-25 0 -38 -11.5t-12 -33.5v-165q-26 -34 -62 -61t-96.5 -47.5t-131.5 -20.5q-160 1 -259.5 101t-99.5 263t99.5 263.5t259.5 100.5
q138 0 243 -68l20 -141h-9q-22 86 -88.5 132.5t-165.5 46.5q-127 0 -205.5 -92t-78.5 -242t78.5 -241.5t205.5 -92.5q65 0 123.5 23t102.5 64v177q0 22 -13.5 33.5t-37.5 11.5h-16v10h196v-10z" />
    <glyph glyph-name="gdotaccent" unicode="&#x121;" horiz-adv-x="742" 
d="M377 665q-18 0 -30.5 12.5t-12.5 30.5t12.5 30.5t30.5 12.5t30.5 -12.5t12.5 -30.5t-12.5 -30.5t-30.5 -12.5zM663 235v-120q-42 -52 -115.5 -90.5t-169.5 -38.5q-149 1 -238.5 85.5t-89.5 228.5q0 145 89.5 229.5t238.5 84.5q134 0 233 -60l22 -142h-9q-21 88 -81.5 130
t-165.5 42q-116 0 -185.5 -76.5t-69.5 -207.5t70 -207.5t186 -76.5q131 0 220 87l1 133q1 18 -11.5 28.5t-34.5 10.5h-14v10h183v-10h-14q-45 0 -45 -40z" />
    <glyph glyph-name="Gcommaaccent" unicode="&#x122;" horiz-adv-x="798" 
d="M774 325h-15q-25 0 -38 -11.5t-12 -33.5v-165q-26 -34 -62 -61t-96.5 -47.5t-131.5 -20.5q-160 1 -259.5 101t-99.5 263t99.5 263.5t259.5 100.5q138 0 243 -68l20 -141h-9q-22 86 -88.5 132.5t-165.5 46.5q-127 0 -205.5 -92t-78.5 -242t78.5 -241.5t205.5 -92.5
q65 0 123.5 23t102.5 64v177q0 22 -13.5 33.5t-37.5 11.5h-16v10h196v-10zM386 -208l-2 7q22 7 31 22t6 28.5t-10 22.5q-2 2 -6 6.5t-6 7t-5 7t-3.5 8t-0.5 8.5t2 10q5 11 17.5 15.5t25.5 -1.5t20 -22q12 -32 5 -58t-27.5 -43t-46.5 -18z" />
    <glyph glyph-name="gcommaaccent" unicode="&#x123;" horiz-adv-x="742" 
d="M663 235v-120q-42 -52 -115.5 -90.5t-169.5 -38.5q-149 1 -238.5 85.5t-89.5 228.5q0 145 89.5 229.5t238.5 84.5q134 0 233 -60l22 -142h-9q-21 88 -81.5 130t-165.5 42q-116 0 -185.5 -76.5t-69.5 -207.5t70 -207.5t186 -76.5q131 0 220 87l1 133q1 18 -11.5 28.5
t-34.5 10.5h-14v10h183v-10h-14q-45 0 -45 -40zM342 -208l-2 7q22 7 31 22t6 28.5t-10 22.5q-2 2 -5 5.5t-5 6t-4.5 6t-4 6.5t-2.5 7t-0.5 8t2.5 8q5 11 17.5 15.5t25.5 -1.5t20 -22q12 -32 5 -58t-27.5 -43t-46.5 -18z" />
    <glyph glyph-name="Hbar" unicode="&#x126;" horiz-adv-x="778" 
d="M736 0h-219v10h13q26 0 44.5 18t19.5 44v259h-409v-258q0 -17 8.5 -31.5t23 -23t32.5 -8.5h12v-10h-218v10h13q26 0 44.5 18.5t19.5 44.5v425h-64v30h64v100q-1 26 -19.5 44t-44.5 18h-13v10h218v-10h-12q-26 0 -45 -18t-19 -44v-100h409v100q-1 26 -19.5 44t-44.5 18
h-13v10h219v-10h-13q-17 0 -32 -8.5t-23.5 -23t-8.5 -31.5v-99h66v-30h-66v-425q0 -26 19 -44.5t45 -18.5h13v-10zM185 361h409v137h-409v-137z" />
    <glyph glyph-name="hbar" unicode="&#x127;" horiz-adv-x="748" 
d="M694 425h-72v-362q1 -22 18 -37.5t40 -15.5h12v-10h-204v10h12q23 0 40 15.5t18 37.5v218h-369v-218q0 -14 8 -26.5t21.5 -19.5t28.5 -7h12v-10h-204v10h12q23 0 40 16t18 38v361h-66v30h66v81q-1 22 -18 38t-40 16h-12v10h204v-10h-12q-23 0 -40 -15.5t-18 -37.5v-82
h369v81q0 11 -5 21t-12.5 17t-18.5 11.5t-22 4.5h-12v10h204v-10h-12q-15 0 -28 -7t-21 -19t-9 -26v-83h72v-30zM558 311v114h-369v-114h369z" />
    <glyph glyph-name="Imacron" unicode="&#x12a;" horiz-adv-x="338" 
d="M47 795v35h250v-35h-250zM279 10v-10h-219v10h13q26 0 44.5 18.5t19.5 44.5v555q-1 26 -19.5 44t-44.5 18h-13v10h219v-10h-13q-26 0 -44.5 -18t-19.5 -44v-555q0 -26 19 -44.5t45 -18.5h13z" />
    <glyph glyph-name="imacron" unicode="&#x12b;" horiz-adv-x="306" 
d="M31 695v35h250v-35h-250zM251 10l1 -10h-197v10h11q23 0 39 16t16 38v472q0 15 -7.5 27.5t-20 19.5t-27.5 7h-11v10h197l-1 -10h-10q-23 0 -39 -15.5t-17 -37.5v-474q1 -14 8.5 -26.5t20 -19.5t27.5 -7h10z" />
    <glyph glyph-name="Iogonek" unicode="&#x12e;" horiz-adv-x="338" 
d="M279 0h-91q-77 -18 -74 -78q1 -28 20.5 -47.5t48.5 -19t53 24.5l6 -6q-9 -24 -30 -39t-45 -16.5t-46.5 6t-37.5 30.5t-16 56q0 33 23 57t59 32h-89v10h13q26 0 44.5 18.5t19.5 44.5v555q-1 26 -19.5 44t-44.5 18h-13v10h219v-10h-13q-26 0 -44.5 -18t-19.5 -44v-555
q0 -26 19 -44.5t45 -18.5h13v-10z" />
    <glyph glyph-name="iogonek" unicode="&#x12f;" horiz-adv-x="307" 
d="M254 0h-78q-77 -18 -75 -78q1 -28 21 -47.5t49 -19t52 24.5l6 -6q-9 -24 -29.5 -39t-44.5 -16.5t-46.5 6t-38 30.5t-15.5 56q0 32 23 56.5t59 32.5h-80v10h11q23 0 39 16t16 38v472q0 15 -7.5 27.5t-20 19.5t-27.5 7h-11v10h197l-1 -10h-11q-14 0 -26.5 -7t-20 -19
t-8.5 -27v-474q1 -14 8.5 -26.5t20 -19.5t26.5 -7h11z" />
    <glyph glyph-name="Idotaccent" unicode="&#x130;" horiz-adv-x="338" 
d="M168 765q-18 0 -30.5 12.5t-12.5 30.5t12.5 30.5t30.5 12.5t30.5 -12.5t12.5 -30.5t-12.5 -30.5t-30.5 -12.5zM279 10v-10h-219v10h13q26 0 44.5 18.5t19.5 44.5v555q-1 26 -19.5 44t-44.5 18h-13v10h219v-10h-13q-26 0 -44.5 -18t-19.5 -44v-555q0 -26 19 -44.5
t45 -18.5h13z" />
    <glyph glyph-name="dotlessi" unicode="&#x131;" horiz-adv-x="306" 
d="M251 10l1 -10h-197v10h11q23 0 39 16t16 38v472q0 15 -7.5 27.5t-20 19.5t-27.5 7h-11v10h197l-1 -10h-10q-23 0 -39 -15.5t-17 -37.5v-474q1 -14 8.5 -26.5t20 -19.5t27.5 -7h10z" />
    <glyph glyph-name="IJ" unicode="&#x132;" horiz-adv-x="662" 
d="M279 10v-10h-219v10h13q26 0 44.5 18.5t19.5 44.5v555q-1 26 -19.5 44t-44.5 18h-13v10h219v-10h-13q-26 0 -44.5 -18t-19.5 -44v-555q0 -26 19 -44.5t45 -18.5h13zM398 700h219v-10h-13q-17 0 -31.5 -8.5t-23 -22.5t-9.5 -32v-627q0 -84 -52.5 -142t-129.5 -58v9
q49 17 83 73.5t34 120.5v624q-1 26 -19.5 44.5t-44.5 18.5h-13v10z" />
    <glyph glyph-name="ij" unicode="&#x133;" horiz-adv-x="645" 
d="M282 0h-227v10h14q27 0 47 16t20 38v472q0 22 -20 38t-48 16h-13v10h226v-10h-13q-27 0 -46.5 -15t-21.5 -37v-475q1 -22 21 -37.5t47 -15.5h13zM390 600h220v-10h-13q-26 0 -45 -16t-20 -38v-536q0 -73 -54.5 -125.5t-128.5 -52.5v10q48 15 83.5 64t35.5 104v540
q-2 21 -20.5 35.5t-44.5 14.5h-12z" />
    <glyph glyph-name="Kcommaaccent" unicode="&#x136;" horiz-adv-x="657" 
d="M202 628v-555q0 -26 19 -44.5t45 -18.5h13v-10h-219v10h13q26 0 44.5 18.5t19.5 44.5v555q-1 26 -19.5 44t-44.5 18h-13v10h219v-10h-13q-26 0 -44.5 -18t-19.5 -44zM300 372l273 -321q40 -40 95 -41v-10h-43q-102 0 -150 57l-241 291l236 296q13 17 5 32t-29 15h-10v9
h211v-9h-4q-66 0 -108 -47zM352 -208l-2 7q23 7 31.5 22t6 28.5t-10.5 22.5q-1 2 -5 6.5t-6 7t-5 7t-3.5 8.5t-0.5 8.5t2 9.5q5 11 17.5 15.5t25.5 -1.5t20 -22q12 -32 5 -58t-27.5 -43t-47.5 -18z" />
    <glyph glyph-name="kcommaaccent" unicode="&#x137;" horiz-adv-x="624" 
d="M190 537v-474q0 -22 17.5 -37.5t41.5 -15.5h11v-10h-205v10h12q24 0 41 16t18 38v472q-1 22 -18 38t-41 16h-12v10h205v-10h-12q-15 0 -28.5 -7t-21.5 -19t-8 -27zM294 321l248 -270q18 -22 37 -31t50 -10v-10h-37q-98 0 -147 57l-220 241l215 253q11 14 3.5 26.5
t-25.5 12.5h-9v10h204v-10h-4q-61 0 -97 -36zM327 -208l-2 7q23 7 31.5 22t6 28.5t-10.5 22.5q-1 2 -5 6.5t-6 7t-5 7t-4 8.5t-0.5 8.5t2.5 9.5q5 11 17.5 15.5t25.5 -1.5t20 -22q18 -45 -5.5 -81t-64.5 -38z" />
    <glyph glyph-name="Lacute" unicode="&#x139;" horiz-adv-x="562" 
d="M169 764l-7 7q77 82 127 131q27 -27 41 -53q-64 -37 -161 -85zM523 162h10l-58 -162h-415v10h13q26 0 44.5 18.5t19.5 44.5v554q-1 26 -19.5 44.5t-44.5 18.5h-13v10h219v-10h-13q-17 0 -32 -8.5t-23.5 -23t-8.5 -31.5v-596h143q74 0 113 33t65 98z" />
    <glyph glyph-name="lacute" unicode="&#x13a;" horiz-adv-x="536" 
d="M157 664l-7 7q76 82 127 131q27 -27 41 -53q-64 -37 -161 -85zM506 143h10l-55 -143h-406v10h14q24 0 40.5 15.5t17.5 37.5v473q-1 22 -18.5 38t-41.5 16h-12v10h207v-10h-12q-24 0 -41.5 -16t-17.5 -38v-505h156q66 1 100 29t59 83z" />
    <glyph glyph-name="Lcommaaccent" unicode="&#x13b;" horiz-adv-x="562" 
d="M523 162h10l-58 -162h-415v10h13q26 0 44.5 18.5t19.5 44.5v554q-1 26 -19.5 44.5t-44.5 18.5h-13v10h219v-10h-13q-17 0 -32 -8.5t-23.5 -23t-8.5 -31.5v-596h143q74 0 113 33t65 98zM273 -194l-1 7q22 7 30.5 22t6 28.5t-9.5 22.5q-2 2 -6 6.5t-6 7t-5 7t-3.5 8.5
t-0.5 8.5t2 9.5q5 11 17.5 15.5t25.5 -1.5t20 -22q12 -32 5 -58t-27.5 -43t-47.5 -18z" />
    <glyph glyph-name="lcommaaccent" unicode="&#x13c;" horiz-adv-x="536" 
d="M506 143h10l-55 -143h-406v10h14q24 0 40.5 15.5t17.5 37.5v473q-1 22 -18.5 38t-41.5 16h-12v10h207v-10h-12q-24 0 -41.5 -16t-17.5 -38v-505h156q46 0 78 16t48.5 38t32.5 58zM294 -208l-2 7q23 7 31.5 22t6 28.5t-10.5 22.5q-1 2 -5 6.5t-6 7t-5 7t-4 8.5t-0.5 8.5
t2.5 9.5q5 11 17.5 15.5t25.5 -1.5t19 -22q12 -32 5.5 -58t-27.5 -43t-47 -18z" />
    <glyph glyph-name="Lcaron" unicode="&#x13d;" horiz-adv-x="562" 
d="M364 562l-2 6q22 7 31 22t6.5 28.5t-10.5 23.5q-2 1 -5 5t-5 6t-4.5 5.5t-4 7t-2.5 7t0 7.5l2 8q8 19 30.5 17.5t32.5 -24.5q19 -45 -4.5 -81.5t-64.5 -37.5zM523 162h10l-58 -162h-415v10h13q26 0 44.5 18.5t19.5 44.5v554q-1 26 -19.5 44.5t-44.5 18.5h-13v10h219v-10
h-13q-26 0 -45 -18.5t-19 -44.5v-596h143q74 0 113 33t65 98z" />
    <glyph glyph-name="lcaron" unicode="&#x13e;" horiz-adv-x="536" 
d="M356 459l-2 6q22 7 31 22t6.5 28.5t-10.5 23.5q-2 1 -5 5t-5 6t-4.5 5.5t-4 7t-2.5 7t0 7.5l2 8q8 19 30.5 17.5t32.5 -24.5q19 -45 -4.5 -81.5t-64.5 -37.5zM506 143h10l-55 -143h-406v10h14q24 0 40.5 15.5t17.5 37.5v473q-1 22 -18.5 38t-41.5 16h-12v10h207v-10h-12
q-24 0 -41.5 -16t-17.5 -38v-505h156q66 1 100 29t59 83z" />
    <glyph glyph-name="Ldot" unicode="&#x13f;" horiz-adv-x="562" 
d="M523 162h10l-58 -162h-415v10h13q26 0 44.5 18.5t19.5 44.5v554q-1 26 -19.5 44.5t-44.5 18.5h-13v10h219v-10h-13q-17 0 -32 -8.5t-23.5 -23t-8.5 -31.5v-596h143q74 0 113 33t65 98zM334.5 403q-18.5 0 -32 13t-13.5 32t13.5 32t32 13t31.5 -13t13 -32t-13 -32
t-31.5 -13z" />
    <glyph glyph-name="ldot" unicode="&#x140;" horiz-adv-x="536" 
d="M506 143h10l-55 -143h-406v10h14q24 0 40.5 15.5t17.5 37.5v473q-1 22 -18.5 38t-41.5 16h-12v10h207v-10h-12q-24 0 -41.5 -16t-17.5 -38v-505h156q46 0 78 16t48.5 38t32.5 58zM314.5 343q-18.5 0 -32 13t-13.5 32t13.5 32t32 13t31.5 -13t13 -32t-13 -32t-31.5 -13z
" />
    <glyph glyph-name="Lslash" unicode="&#x141;" horiz-adv-x="562" 
d="M523 162h10l-58 -162h-415v10h13q26 0 44.5 18.5t19.5 44.5v235l-104 -60l-15 26l119 69v284q-1 26 -19.5 44.5t-44.5 18.5h-13v10h219v-10h-13q-26 0 -45 -18.5t-19 -44.5v-247l124 72l15 -26l-139 -80v-315h143q74 0 113 33t65 98z" />
    <glyph glyph-name="lslash" unicode="&#x142;" horiz-adv-x="536" 
d="M506 143h10l-55 -143h-406v10h14q16 0 29 7t20.5 19t8.5 27v193l-63 -37l-14 25l77 45v247q-1 22 -18.5 38t-41.5 16h-12v10h207v-10h-12q-24 0 -41.5 -16t-17.5 -38v-211l141 82l15 -24l-156 -90v-262h156q46 0 78 16t48.5 38t32.5 58z" />
    <glyph glyph-name="Nacute" unicode="&#x143;" horiz-adv-x="841" 
d="M426 764l-7 7q76 82 127 131q27 -27 41 -53q-65 -37 -161 -85zM590 700h206v-10h-18q-25 0 -43 -17.5t-19 -42.5v-516q0 -29 2.5 -61t4.5 -49l2 -18h-9l-545 582v-498q0 -17 8.5 -30.5t22.5 -21.5t30 -8h19v-10h-206v10h19q25 0 43 17.5t18 43.5v519q0 30 -2 61.5
t-5 47.5l-2 16h10l545 -582v496q-1 26 -19 43.5t-43 17.5h-19v10z" />
    <glyph glyph-name="nacute" unicode="&#x144;" horiz-adv-x="779" 
d="M388 664l-7 7q76 82 127 131q27 -27 41 -53q-65 -37 -161 -85zM555 600h189v-10h-17q-22 0 -38 -14.5t-17 -35.5v-426q0 -29 2 -61t5 -49l2 -18h-9l-520 493v-417q0 -22 16 -37t39 -15h17v-10h-189v10h17q23 0 39 15t16 37v428q0 30 -2 61.5t-5 47.5l-2 16l11 -1
l519 -489v415q-2 21 -18 35.5t-38 14.5h-17v10z" />
    <glyph glyph-name="Ncommaaccent" unicode="&#x145;" horiz-adv-x="841" 
d="M590 700h206v-10h-18q-25 0 -43 -17.5t-19 -42.5v-516q0 -29 2.5 -61t4.5 -49l2 -18h-9l-545 582v-498q0 -17 8.5 -30.5t22.5 -21.5t30 -8h19v-10h-206v10h19q25 0 43 17.5t18 43.5v519q0 30 -2 61.5t-5 47.5l-2 16h10l545 -582v496q-1 26 -19 43.5t-43 17.5h-19v10z
M392 -208l-2 7q22 7 31 22t6.5 28.5t-10.5 22.5q-2 2 -5.5 6.5t-6 7t-5 7t-3.5 8.5t-0.5 8.5t2.5 9.5q5 11 17 15.5t25.5 -1.5t19.5 -22q19 -45 -4.5 -81t-64.5 -38z" />
    <glyph glyph-name="ncommaaccent" unicode="&#x146;" horiz-adv-x="779" 
d="M555 600h189v-10h-17q-22 0 -38 -14.5t-17 -35.5v-426q0 -29 2 -61t5 -49l2 -18h-9l-520 493v-417q0 -22 16 -37t39 -15h17v-10h-189v10h17q23 0 39 15t16 37v428q0 30 -2 61.5t-5 47.5l-2 16l11 -1l519 -489v415q-2 21 -18 35.5t-38 14.5h-17v10zM364 -208l-2 7
q23 7 31.5 22t6 28.5t-10.5 22.5q-1 2 -5 6.5t-6 7t-5 7t-4 8.5t-0.5 8.5t2.5 9.5q5 11 17.5 15.5t25.5 -1.5t19 -22q19 -45 -4.5 -81t-64.5 -38z" />
    <glyph glyph-name="Ncaron" unicode="&#x147;" horiz-adv-x="841" 
d="M431 764l106 119l-6 8l-105 -66l-113 66l-6 -8l114 -119h10zM590 700h206v-10h-18q-25 0 -43 -17.5t-19 -42.5v-516q0 -29 2.5 -61t4.5 -49l2 -18h-9l-545 582v-498q0 -25 18 -42.5t43 -17.5h19v-10h-206v10h19q25 0 43 17.5t18 43.5v519q0 30 -2 61.5t-5 47.5l-2 16h10
l545 -582v496q-1 26 -19 43.5t-43 17.5h-19v10z" />
    <glyph glyph-name="ncaron" unicode="&#x148;" horiz-adv-x="779" 
d="M393 664l106 119l-6 8l-105 -66l-113 66l-6 -8l114 -119h10zM555 600h189v-10h-17q-22 0 -38 -14.5t-17 -35.5v-426q0 -29 2 -61t5 -49l2 -18h-9l-520 493v-417q0 -14 7.5 -26t20 -19t27.5 -7h17v-10h-189v10h17q23 0 39 15t16 37v428q0 30 -2 61.5t-5 47.5l-2 16l11 -1
l519 -489v415q-2 21 -18 35.5t-38 14.5h-17v10z" />
    <glyph glyph-name="Eng" unicode="&#x14a;" horiz-adv-x="819" 
d="M590 700h184v-13h-16q-22 0 -37.5 -15t-15.5 -37v-667q0 -51 -18.5 -88t-46 -55t-63.5 -26l-5 8q37 17 62.5 56.5t25.5 106.5v63l-500 535v-503q0 -22 15.5 -37t37.5 -15h16v-13h-184v13h16q22 0 37.5 15t15.5 37v525q0 30 -2 61.5t-5 47.5l-2 16h10l544 -581v501
q0 22 -15.5 37t-37.5 15h-16v13z" />
    <glyph glyph-name="eng" unicode="&#x14b;" horiz-adv-x="839" 
d="M560 600h184v-10h-16q-21 0 -36 -14t-17 -35v-558q0 -68 -33 -107.5t-85 -50.5l-5 8q33 15 55.5 55t22.5 97v41l-478 453v-417q0 -22 16 -37t39 -15h17v-10h-189v10h17q23 0 39 15t16 37v428q0 30 -2 61.5t-5 47.5l-2 16l11 -1l521 -490v416q0 21 -16 35.5t-38 14.5h-16
v10z" />
    <glyph glyph-name="Omacron" unicode="&#x14c;" horiz-adv-x="838" 
d="M307 795v35h250v-35h-250zM429 714q160 0 260 -100.5t100 -263.5t-100 -263.5t-260 -100.5t-259.5 100.5t-99.5 263.5t99.5 263.5t259.5 100.5zM429.5 16q127.5 0 205 92t77.5 242q0 99 -35 175t-99.5 117.5t-148.5 41.5q-127 0 -204.5 -92t-77.5 -242t77.5 -242t205 -92
z" />
    <glyph glyph-name="omacron" unicode="&#x14d;" horiz-adv-x="774" 
d="M265 695v35h250v-35h-250zM387.5 614q92.5 0 169.5 -39.5t122.5 -111.5t45.5 -163t-45.5 -163t-122.5 -111.5t-169.5 -39.5t-169.5 39.5t-122.5 111.5t-45.5 163t45.5 163t122.5 111.5t169.5 39.5zM387 16q112 0 188 79.5t76 204.5t-76 204.5t-188 79.5t-187.5 -79.5
t-75.5 -204.5t75.5 -204.5t187.5 -79.5z" />
    <glyph glyph-name="Ohungarumlaut" unicode="&#x150;" horiz-adv-x="838" 
d="M372 768l-11 2q30 66 67 131q36 -2 61 -12q-54 -60 -117 -121zM494 768l-11 2q31 73 67 131q30 0 61 -12q-68 -76 -117 -121zM429.5 714q160.5 0 260 -100.5t99.5 -263.5t-99.5 -263.5t-260 -100.5t-260 100.5t-99.5 263.5t99.5 263.5t260 100.5zM429.5 16
q127.5 0 205 92t77.5 242q0 99 -35 175t-99.5 117.5t-148.5 41.5q-127 0 -204.5 -92t-77.5 -242t77.5 -242t205 -92z" />
    <glyph glyph-name="ohungarumlaut" unicode="&#x151;" horiz-adv-x="774" 
d="M330 668l-11 2q31 66 67 131q37 -2 61 -12q-54 -60 -117 -121zM453 668l-11 2q30 73 67 131q29 0 60 -12q-67 -76 -116 -121zM387.5 614q92.5 0 169.5 -39.5t122.5 -111.5t45.5 -163t-45.5 -163t-122.5 -111.5t-169.5 -39.5t-169.5 39.5t-122.5 111.5t-45.5 163t45.5 163
t122.5 111.5t169.5 39.5zM387.5 16q112.5 0 188 79.5t75.5 204.5t-75.5 204.5t-188 79.5t-188 -79.5t-75.5 -204.5t75.5 -204.5t188 -79.5z" />
    <glyph glyph-name="OE" unicode="&#x152;" horiz-adv-x="962" 
d="M932 162l-58 -162h-277h-1q-26 0 -54 -2q-6 0 -56 -6t-72 -6q-159 0 -256.5 100t-97.5 264q0 81 25.5 149t71.5 115t112.5 73.5t144.5 26.5q52 0 113 -9q36 -5 67 -5h158q31 0 68 6t51 12v-18v-108h-12v18q0 24 -16 41t-40 18h-206v-309h173q21 1 35 15t14 35v14h10v-158
h-10v15q0 20 -14 34t-34 15h-174v-299h148q73 0 112 33t65 98h10zM536 64v572q0 25 -37 36.5t-85 11.5q-127 0 -204.5 -92t-77.5 -242t77.5 -242t204.5 -92q29 0 56 5t46.5 16.5t19.5 26.5z" />
    <glyph glyph-name="oe" unicode="&#x153;" horiz-adv-x="885" 
d="M851 143l-51 -143h-265h-1q-26 0 -54 -2q-6 0 -50.5 -6t-65.5 -6q-142 0 -228 84.5t-86 229.5t86 229.5t228 84.5q40 0 101 -9q36 -5 67 -5h162q18 0 39.5 2.5t38.5 6t25 7.5v-113h-10v15q0 22 -13.5 36.5t-35.5 14.5h-203v-255h170q19 1 29.5 12.5t10.5 30.5v12h10v-140
h-10v13q0 18 -10.5 30t-29.5 12h-170v-253h158q61 0 93 28.5t55 83.5h10zM474 65v471q0 25 -32 37t-78 12q-109 0 -176 -77t-67 -208t67 -208t176 -77q43 0 76.5 13.5t33.5 36.5z" />
    <glyph glyph-name="Racute" unicode="&#x154;" horiz-adv-x="677" 
d="M324 764l-7 7q76 82 126 131q27 -27 41 -53q-64 -37 -160 -85zM60 700h270q91 0 143 -50.5t52 -137.5q0 -74 -49.5 -132.5t-120.5 -58.5q15 -7 35.5 -27.5t36.5 -42.5q86 -123 125 -165q17 -19 30.5 -31t30 -23t35 -16.5t40.5 -5.5v-10h-55q-43 0 -80 15.5t-55.5 32
t-39.5 40.5q-6 7 -67 95t-64 92q-17 21 -28 33t-29 23t-35 11v10q23 -1 53 0q124 3 156 104q7 23 6 60q-2 67 -35 108t-89 44q-22 1 -50 1h-49.5h-24.5v-596q0 -26 18.5 -44.5t45.5 -18.5h12l1 -10h-219v10h13q26 0 44.5 18t19.5 44v555q-1 26 -19.5 44.5t-44.5 18.5h-13v10
z" />
    <glyph glyph-name="racute" unicode="&#x155;" horiz-adv-x="627" 
d="M302 664l-7 7q76 82 127 131q27 -27 41 -53q-64 -37 -161 -85zM55 600h251q94 0 148.5 -43t54.5 -119q0 -64 -44 -111t-112 -54q7 -2 15 -8.5t16 -14.5t16.5 -17.5t16 -19t13.5 -18.5l13 -17t35 -44t40 -48q25 -28 39 -41t36.5 -24t48.5 -11v-10h-31q-40 0 -71 7.5
t-53 23t-34 27t-28 30.5q-6 8 -50.5 70.5t-47.5 66.5q-54 67 -101 67v10h57q19 0 28.5 1t27.5 3.5t28.5 8t23.5 14.5t22.5 24t16.5 35q8 23 7 57q-2 56 -37 88t-96 35q-25 1 -51.5 1h-43.5h-20v-505q0 -15 7.5 -27t20.5 -19.5t29 -7.5h13l1 -10h-205v10h14q23 0 39.5 15.5
t16.5 37.5v475q0 22 -16.5 37t-39.5 15h-14v10z" />
    <glyph glyph-name="Rcommaaccent" unicode="&#x156;" horiz-adv-x="677" 
d="M60 700h270q91 0 143 -50.5t52 -137.5q0 -74 -49.5 -132.5t-120.5 -58.5q15 -7 35.5 -27.5t36.5 -42.5q86 -123 125 -165q13 -15 24 -25.5t24 -20.5t26 -16t29 -10t33 -4v-10h-55q-43 0 -80 15.5t-55.5 32t-39.5 40.5q-6 7 -67 95t-64 92q-17 21 -28 33t-29 23t-35 11v10
q23 -1 53 0q124 3 156 104q7 23 6 60q-2 67 -35 108t-89 44q-22 1 -50 1h-49.5h-24.5v-596q0 -26 18.5 -44.5t45.5 -18.5h12l1 -10h-219v10h13q26 0 44.5 18t19.5 44v555q-1 26 -19.5 44.5t-44.5 18.5h-13v10zM344 -194l-2 7q22 7 31 22t6.5 28.5t-10.5 22.5q-2 2 -6 6.5
t-6 7t-4.5 7t-3.5 8.5t-1 8.5t2 9.5q5 11 17.5 15.5t26 -1.5t19.5 -22q19 -45 -4.5 -81t-64.5 -38z" />
    <glyph glyph-name="rcommaaccent" unicode="&#x157;" horiz-adv-x="627" 
d="M55 600h251q94 0 148.5 -43t54.5 -119q0 -64 -44 -111t-112 -54q8 -3 18.5 -11.5t21 -19.5t20 -23t17.5 -24l13 -17t35 -44t40 -48q25 -28 39 -41t36.5 -24t48.5 -11v-10h-31q-40 0 -71 7.5t-53 23t-34 27t-28 30.5q-6 8 -50.5 70.5t-47.5 66.5q-54 67 -101 67v10h57
q19 0 28.5 1t27.5 3.5t28.5 8t23.5 14.5t22.5 24t16.5 35q8 23 7 57q-2 56 -37 88t-96 35q-25 1 -51.5 1h-43.5h-20v-505q0 -15 7.5 -27.5t20.5 -19.5t29 -7h13l1 -10h-205v10h14q23 0 39.5 15.5t16.5 37.5v475q0 22 -16.5 37t-39.5 15h-14v10zM333 -208l-2 7q23 7 31.5 22
t6 28.5t-10.5 22.5q-1 2 -5 6.5t-6 7t-5 7t-3.5 8.5t-0.5 8.5t2 9.5q5 11 17.5 15.5t25.5 -1.5t20 -22q12 -32 5 -58t-27.5 -43t-47.5 -18z" />
    <glyph glyph-name="Rcaron" unicode="&#x158;" horiz-adv-x="677" 
d="M329 764l106 119l-6 8l-105 -66l-114 66l-6 -8l115 -119h10zM60 700h270q91 0 143 -50.5t52 -137.5q0 -74 -49.5 -132.5t-120.5 -58.5q15 -7 35.5 -27.5t36.5 -42.5q86 -123 125 -165q34 -38 64.5 -57t71.5 -19v-10h-55q-43 0 -80 15.5t-55.5 32t-39.5 40.5q-6 7 -67 95
t-64 92q-17 21 -28 33t-29 23t-35 11v10q23 -1 53 0q124 3 156 104q7 23 6 60q-2 67 -35 108t-89 44q-22 1 -50 1h-49.5h-24.5v-596q0 -26 18.5 -44.5t45.5 -18.5h12v-10h-218v10h13q26 0 44.5 18t19.5 44v555q-1 26 -19.5 44.5t-44.5 18.5h-13v10z" />
    <glyph glyph-name="rcaron" unicode="&#x159;" horiz-adv-x="627" 
d="M307 664l106 119l-6 8l-104 -66l-114 66l-6 -8l114 -119h10zM55 600h251q94 0 148.5 -43t54.5 -119q0 -64 -44 -111t-112 -54q16 -7 38 -30t39 -48l13 -17t35 -44t40 -48q19 -21 29.5 -31.5t26.5 -22.5t32 -17t36 -5v-10h-31q-40 0 -71 7.5t-53 23t-34 27t-28 30.5
q-6 8 -50.5 70.5t-47.5 66.5q-54 67 -101 67v10h57q19 0 28.5 1t27.5 3.5t28.5 8t23.5 14.5t22.5 24t16.5 35q8 23 7 57q-2 56 -37 88t-96 35q-25 1 -51.5 1h-43.5h-20v-505q0 -15 7.5 -27.5t20.5 -19.5t29 -7h13l1 -10h-205v10h14q23 0 39 15.5t17 37.5v475q0 22 -16.5 37
t-39.5 15h-14v10z" />
    <glyph glyph-name="Sacute" unicode="&#x15a;" horiz-adv-x="475" 
d="M239 764l-7 7q77 82 127 131q27 -27 41 -53q-64 -37 -161 -85zM171 477l197 -182q50 -46 50 -122q0 -84 -51 -135.5t-136 -51.5q-44 0 -93.5 13.5t-76.5 41.5q-5 22 -2 64t14 75h9q-8 -76 34 -122t110 -42q57 3 95.5 39.5t38.5 94.5q0 57 -39 93l-192 178q-54 50 -54 124
q0 68 47.5 118.5t128.5 50.5q38 0 86 -10h39v-12v-111h-9q0 47 -32.5 75t-80.5 28q-54 0 -88.5 -34t-34.5 -81q0 -55 40 -92z" />
    <glyph glyph-name="sacute" unicode="&#x15b;" horiz-adv-x="462" 
d="M232 664l-7 7q76 82 127 131q27 -27 41 -53q-64 -37 -161 -85zM160 410l202 -156q45 -37 46 -107q0 -67 -51.5 -114t-125.5 -47q-49 0 -98 12t-75 35q-5 19 -2.5 58t12.5 66h12q-7 -66 32.5 -104.5t107.5 -36.5q62 2 97.5 31.5t35.5 78.5q0 48 -36 80l-200 154
q-47 40 -48 108q-1 40 21 73.5t60.5 53t83.5 19.5q59 0 99 -9h33l2 -109h-11q0 42 -29 65t-87 23q-50 0 -85.5 -27.5t-34.5 -67.5q0 -47 39 -79z" />
    <glyph glyph-name="Scedilla" unicode="&#x15e;" horiz-adv-x="475" 
d="M171 477l197 -182q50 -46 50 -122q0 -78 -44.5 -128.5t-120.5 -57.5l-41 -47q15 5 31.5 5.5t33 -4t28 -20t12.5 -39.5q1 -46 -44 -67.5t-97 -5.5l1 10q36 0 63.5 15.5t26.5 48.5q-1 29 -29 37.5t-55 -4.5l-5 10l47 60q-44 1 -91 14.5t-73 40.5q-5 22 -2 64t14 75h9
q-8 -76 34 -122t110 -42q57 3 95.5 39.5t38.5 94.5q0 57 -39 93l-192 178q-54 50 -54 124q0 68 47.5 118.5t128.5 50.5q38 0 86 -10h39v-12v-111h-9q0 47 -32.5 75t-80.5 28q-54 0 -88.5 -34t-34.5 -81q0 -55 40 -92z" />
    <glyph glyph-name="scedilla" unicode="&#x15f;" horiz-adv-x="412" 
d="M149 410l203 -156q44 -37 45 -107q1 -65 -48 -111t-120 -50l-41 -47q15 5 31.5 5.5t33.5 -4t28 -20t12 -39.5q2 -46 -43.5 -67.5t-97.5 -5.5l1 10q37 0 64 15.5t26 48.5q-1 29 -29 37.5t-55 -4.5l-5 10l48 61q-108 6 -154 47q-6 19 -3 58t12 66h12q-7 -66 33 -104.5
t107 -36.5q62 2 97.5 31.5t35.5 78.5q0 48 -36 80l-200 154q-47 40 -48 108q-1 40 21 73.5t60.5 53t83.5 19.5q59 0 99 -9h34l1 -109h-11q0 42 -29 65t-87 23q-50 0 -85 -27.5t-35 -67.5q0 -47 39 -79z" />
    <glyph glyph-name="Scaron" unicode="&#x160;" horiz-adv-x="475" 
d="M244 764l106 119l-6 8l-104 -66l-114 66l-6 -8l114 -119h10zM171 477l197 -182q50 -46 50 -122q0 -84 -51 -135.5t-136 -51.5q-44 0 -93.5 13.5t-76.5 41.5q-5 22 -2 64t14 75h9q-8 -76 34 -122t110 -42q57 3 95.5 39.5t38.5 94.5q0 57 -39 93l-192 178q-54 50 -54 124
q0 68 47.5 118.5t128.5 50.5q38 0 86 -10h39v-12v-111h-10q1 47 -31.5 75t-80.5 28q-54 0 -88.5 -34t-34.5 -81q0 -55 40 -92z" />
    <glyph glyph-name="scaron" unicode="&#x161;" horiz-adv-x="462" 
d="M237 664l106 119l-6 8l-104 -66l-114 66l-6 -8l114 -119h10zM160 410l202 -156q45 -37 46 -107q0 -67 -51.5 -114t-125.5 -47q-49 0 -98 12t-75 35q-5 19 -2.5 58t12.5 66h12q-7 -66 32.5 -104.5t107.5 -36.5q62 2 97.5 31.5t35.5 78.5q0 48 -36 80l-200 154
q-47 40 -48 108q-1 40 21 73.5t60.5 53t83.5 19.5q59 0 99 -9h33l2 -109h-12q0 42 -28.5 65t-86.5 23q-50 0 -85.5 -27.5t-34.5 -67.5q0 -47 39 -79z" />
    <glyph glyph-name="Tcedilla" unicode="&#x162;" horiz-adv-x="618" 
d="M140 701h338q21 0 46 3t45 7t30 8v-126l-10 1v17q0 16 -8 29.5t-21 21.5t-28 9h-190v-599q1 -26 19.5 -44t44.5 -18h13v-10h-93l-41 -48q15 5 31.5 5.5t33 -4t28 -20t12.5 -39.5q1 -46 -44 -67.5t-97 -5.5l1 10q36 0 63.5 15.5t26.5 48.5q-1 29 -29 37.5t-55 -4.5l-5 10
l48 62h-99v10h13q26 0 44.5 18t19.5 43v600h-190q-24 -1 -40.5 -18.5t-16.5 -41.5v-17l-10 -1v126q15 -6 52 -12t68 -6z" />
    <glyph glyph-name="tcedilla" unicode="&#x163;" horiz-adv-x="578" 
d="M126 601h326q19 0 42.5 2.5t42 6t27.5 7.5v-113h-11v16q0 21 -14 36t-36 15h-181v-508q1 -15 9 -27t21 -19t29 -7h11v-10h-88l-41 -48q15 5 31.5 5.5t33 -4t28 -20t12.5 -39.5q1 -46 -44 -67.5t-97 -5.5l1 10q36 0 63.5 15.5t26.5 48.5q-1 29 -29 37.5t-55 -4.5l-5 10
l47 62h-90v10h12q24 0 41 16t18 38v507h-181q-23 0 -36.5 -15t-13.5 -36v-16h-11v113q9 -4 27.5 -7.5t42 -6t41.5 -2.5z" />
    <glyph glyph-name="Tcaron" unicode="&#x164;" horiz-adv-x="618" 
d="M314 764l106 119l-6 8l-105 -66l-113 66l-6 -8l114 -119h10zM140 701h338q31 0 68.5 6t52.5 12v-126l-10 1v17q0 16 -8 29.5t-21 21.5t-28 9h-190v-599q1 -17 9.5 -31t23 -22.5t31.5 -8.5h13v-10h-219v10h13q26 0 44.5 18t19.5 43v600h-190q-24 -1 -40.5 -18.5
t-16.5 -41.5v-17l-10 -1v126q15 -6 52 -12t68 -6z" />
    <glyph glyph-name="tcaron" unicode="&#x165;" horiz-adv-x="578" 
d="M295 665h-10l-115 119l6 8l114 -66l105 66l6 -8zM126 601h326q28 0 63 5t49 11v-113h-11v16q0 14 -6 25.5t-17.5 18.5t-26.5 7h-181v-508q1 -22 18 -37.5t41 -15.5h11v-10h-206v10h12q24 0 41 16t18 38v507h-181q-15 0 -26.5 -7t-17.5 -18.5t-6 -25.5v-16h-11v113
q14 -6 48.5 -11t62.5 -5z" />
    <glyph glyph-name="Tbar" unicode="&#x166;" horiz-adv-x="618" 
d="M140 701h338q31 0 68.5 6t52.5 12v-126l-10 1v17q0 16 -8 29.5t-21 21.5t-28 9h-190v-270h162v-30h-162v-299q1 -26 19.5 -44t44.5 -18h13v-10h-219v10h13q26 0 44.5 18t19.5 43v300h-161v30h161v270h-190q-24 -1 -40.5 -18.5t-16.5 -41.5v-17l-10 -1v126q15 -6 52 -12
t68 -6z" />
    <glyph glyph-name="tbar" unicode="&#x167;" horiz-adv-x="578" 
d="M126 601h326q28 0 63 5t49 11v-113h-11v16q0 14 -6 25.5t-17.5 18.5t-26.5 7h-181v-233h148v-30h-148v-245q1 -22 18 -37.5t41 -15.5h11v-10h-206v10h12q24 0 41.5 16t17.5 38v244h-145v30h145v233h-181q-23 0 -36.5 -15t-13.5 -36v-16h-11v113q9 -4 27.5 -7.5t42 -6
t41.5 -2.5z" />
    <glyph glyph-name="Umacron" unicode="&#x16a;" horiz-adv-x="785" 
d="M279 795v35h250v-35h-250zM550 700h185v-10h-16q-21 0 -36.5 -13.5t-16.5 -33.5v-396q0 -117 -74 -189t-196 -72q-124 0 -200.5 71.5t-76.5 188.5v394q0 15 -7 26t-19 17.5t-27 6.5h-16v10h203v-10h-16q-22 0 -37 -13.5t-16 -34.5v-382q0 -109 58.5 -176t153.5 -67
q101 0 162 63.5t61 166.5v395q-1 21 -16 34.5t-37 13.5h-16v10z" />
    <glyph glyph-name="umacron" unicode="&#x16b;" horiz-adv-x="700" 
d="M228 695v35h250v-35h-250zM493 600h172v-10h-15q-12 0 -23 -5.5t-17.5 -15t-7.5 -21.5v-337q0 -104 -66.5 -164.5t-182.5 -60.5t-183 60t-67 164v337q0 18 -14 30.5t-34 12.5h-15v10h190v-10h-15q-20 0 -34 -12.5t-14 -30.5v-325q0 -97 49.5 -153t135.5 -56
q95 0 149.5 53t54.5 145v336q-1 19 -14.5 31t-33.5 12h-15v10z" />
    <glyph glyph-name="Uring" unicode="&#x16e;" horiz-adv-x="785" 
d="M402 914q41 0 67.5 -20t26.5 -55q0 -10 -3.5 -20t-9.5 -18.5t-14.5 -15t-18.5 -11.5t-22.5 -7.5t-25.5 -2.5q-40 0 -67 21.5t-27 53.5q0 22 12.5 39t33.5 26.5t48 9.5zM401.5 897q-21.5 0 -35 -15.5t-13.5 -42.5t13.5 -42t35 -15t35.5 15t14 42t-14 42.5t-35.5 15.5z
M550 700h185v-10h-16q-21 0 -36.5 -13.5t-16.5 -33.5v-396q0 -117 -74 -189t-196 -72q-124 0 -200.5 71.5t-76.5 188.5v394q0 22 -15.5 36t-37.5 14h-16v10h203v-10h-16q-22 0 -37 -13.5t-16 -34.5v-382q0 -109 58.5 -176t153.5 -67q101 0 162 63.5t61 166.5v395
q-1 21 -16 34.5t-37 13.5h-16v10z" />
    <glyph glyph-name="uring" unicode="&#x16f;" horiz-adv-x="700" 
d="M351 814q41 0 67.5 -20t26.5 -55q0 -21 -12.5 -38.5t-34 -27t-47.5 -9.5q-41 0 -67.5 21.5t-26.5 53.5q0 16 7 30t19.5 24t30 15.5t37.5 5.5zM350.5 797q-21.5 0 -35 -15.5t-13.5 -42.5t13.5 -42t35 -15t35.5 15t14 42t-14 42.5t-35.5 15.5zM493 600h172v-10h-15
q-12 0 -23 -5.5t-17.5 -15t-7.5 -21.5v-337q0 -104 -66.5 -164.5t-182.5 -60.5t-183 60t-67 164v337q0 18 -14 30.5t-34 12.5h-15v10h190v-10h-15q-20 0 -34 -12.5t-14 -30.5v-325q0 -97 49.5 -153t135.5 -56q95 0 149.5 53t54.5 145v336q-1 19 -14.5 31t-33.5 12h-15v10z
" />
    <glyph glyph-name="Uhungarumlaut" unicode="&#x170;" horiz-adv-x="785" 
d="M345 768l-11 2q30 66 67 131q36 -2 60 -12q-54 -60 -116 -121zM467 768l-11 2q30 73 67 131q29 0 61 -12q-68 -76 -117 -121zM550 700h185v-10h-16q-21 0 -36.5 -13.5t-16.5 -33.5v-396q0 -117 -74 -189t-195 -72q-125 0 -201.5 71.5t-76.5 188.5v395q0 21 -15.5 35
t-37.5 14h-16v10h203v-10h-16q-14 0 -26 -6t-19 -17t-8 -25v-382q0 -109 58.5 -176t153.5 -67q101 0 162 63.5t61 166.5v395q-1 21 -16 34.5t-36 13.5h-17v10z" />
    <glyph glyph-name="uhungarumlaut" unicode="&#x171;" horiz-adv-x="700" 
d="M293 668l-11 2q31 66 67 131q37 -2 61 -12q-54 -60 -117 -121zM416 668l-11 2q30 73 67 131q29 0 61 -12q-68 -76 -117 -121zM493 600h172v-10h-15q-12 0 -23 -5.5t-17.5 -15t-7.5 -21.5v-337q0 -104 -66.5 -164.5t-182.5 -60.5t-183 60t-67 164v337q0 18 -14 30.5
t-34 12.5h-15v10h190v-10h-15q-20 0 -34 -12.5t-14 -30.5v-325q0 -97 49.5 -153t135.5 -56q95 0 149.5 53t54.5 145v336q0 9 -4 17t-10.5 14t-15 9t-18.5 3h-15v10z" />
    <glyph glyph-name="Uogonek" unicode="&#x172;" horiz-adv-x="785" 
d="M550 700h185v-10h-16q-21 0 -36.5 -13.5t-16.5 -33.5v-396q0 -105 -60.5 -175t-163.5 -83q-72 -19 -70 -77q1 -28 21 -47.5t49 -19t52 24.5l6 -6q-9 -24 -29.5 -39t-44.5 -16.5t-46.5 6t-38 30.5t-15.5 56q0 29 18.5 52t48.5 33q-123 1 -198.5 72.5t-75.5 187.5v394
q0 15 -7 26t-19 17.5t-27 6.5h-16v10h203v-10h-16q-22 0 -37 -13.5t-16 -34.5v-382q0 -109 58.5 -176t153.5 -67q101 0 162 63.5t61 166.5v395q-1 21 -16 34.5t-37 13.5h-16v10z" />
    <glyph glyph-name="uogonek" unicode="&#x173;" horiz-adv-x="700" 
d="M493 600h172v-10h-15q-12 0 -23 -5.5t-17.5 -15t-7.5 -21.5v-337q0 -64 -26 -112.5t-74.5 -77t-115.5 -34.5h1q-76 -19 -74 -79q1 -28 21 -47.5t48.5 -19t52.5 24.5l6 -6q-9 -24 -29.5 -39t-44.5 -16.5t-47 6t-38 30.5t-15 56q-1 32 21.5 56t56.5 33q-112 2 -177 62
t-65 162v337q0 18 -14 30.5t-34 12.5h-15v10h190v-10h-15q-20 0 -34 -12.5t-14 -30.5v-325q0 -97 49.5 -153t135.5 -56q95 0 149.5 53t54.5 145v336q-1 19 -14.5 31t-33.5 12h-15v10z" />
    <glyph glyph-name="Wcircumflex" unicode="&#x174;" horiz-adv-x="982" 
d="M502 890l-106 -119l6 -8l104 66l114 -66l6 8l-114 119h-10zM795 700h197v-10h-8q-26 0 -51.5 -15.5t-36.5 -46.5l-166 -529q-20 -63 -22 -111h-9l-204 572l-152 -461q-19 -62 -21 -111h-9l-227 641q-12 30 -37 45.5t-51 15.5h-8v10h222v-10h-9q-21 0 -34 -17t-5 -44
l152 -487l186 574l9 -1l197 -553l134 468q7 28 -5 44t-33 16h-9v10z" />
    <glyph glyph-name="wcircumflex" unicode="&#x175;" horiz-adv-x="899" 
d="M458 791l-106 -118l6 -8l104 66l114 -66l6 8l-114 118h-10zM721 600h183v-10h-7q-60 0 -82 -59l-145 -432q-21 -63 -23 -111h-10l-186 476l-130 -365q-20 -62 -22 -111h-9l-210 547q-23 55 -80 55h-8v10h206v-10h-8q-18 0 -29.5 -13.5t-4.5 -40.5l133 -407l169 487l10 -1
l179 -456l112 371q5 16 4.5 27.5t-6 18.5t-13 10.5t-15.5 3.5h-8v10z" />
    <glyph glyph-name="Ycircumflex" unicode="&#x176;" horiz-adv-x="661" 
d="M335 890l-106 -119l6 -8l104 66l114 -66l6 8l-114 119h-10zM450 700h222v-10h-14q-30 0 -56.5 -16.5t-44.5 -41.5l-197 -320v-239q0 -26 18.5 -44.5t45.5 -18.5h12v-10h-218v10h13q26 0 44.5 18t19.5 44v241l-191 319q-15 24 -42.5 41t-57.5 17h-14v10h246v-10h-13
q-22 0 -34 -20.5t-1 -41.5l150 -280l160 280v1q11 20 -1.5 40.5t-34.5 20.5h-12v10z" />
    <glyph glyph-name="ycircumflex" unicode="&#x177;" horiz-adv-x="640" 
d="M328 790l-106 -119l6 -8l105 66l113 -66l6 8l-114 119h-10zM436 600h209v-10h-12q-27 0 -51.5 -14.5t-40.5 -36.5l-192 -291v-184q0 -22 17 -38t41 -16h12v-10h-205v10h12q24 0 41 16t17 38v185l-185 291q-34 50 -92 50h-12v10h232v-10h-12q-19 0 -29.5 -15t-4.5 -33
l146 -259l155 258q8 19 -3 34t-31 15h-12v10z" />
    <glyph glyph-name="Ydieresis" unicode="&#x178;" horiz-adv-x="661" 
d="M246 764q-16 0 -27.5 11.5t-11.5 27.5t11.5 27.5t27.5 11.5t27.5 -11.5t11.5 -27.5t-11.5 -27.5t-27.5 -11.5zM434 764q-16 0 -27.5 11.5t-11.5 27.5t11.5 27.5t27.5 11.5t27.5 -11.5t11.5 -27.5t-11.5 -27.5t-27.5 -11.5zM450 700h222v-10h-14q-30 0 -56.5 -16.5
t-44.5 -41.5l-197 -320v-239q0 -26 18.5 -44.5t45.5 -18.5h12v-10h-218v10h13q26 0 44.5 18t19.5 44v241l-191 319q-15 24 -42.5 41t-57.5 17h-14v10h246v-10h-13q-22 0 -34 -20.5t-1 -41.5l150 -280l160 280v1q11 20 -2 40.5t-34 20.5h-12v10z" />
    <glyph glyph-name="Zacute" unicode="&#x179;" horiz-adv-x="651" 
d="M324 764l-7 7q76 82 127 131q27 -27 41 -53q-65 -37 -161 -85zM617 154l-33 -154h-3h-521v9l420 662h-337q-25 -1 -42 -18t-17 -42v-18h-10v81v16v29q15 -6 53 -12t69 -6h278q19 0 42 2t40.5 5t23.5 6v-9l-428 -675h318q53 0 87 34t50 90h10z" />
    <glyph glyph-name="zacute" unicode="&#x17a;" horiz-adv-x="608" 
d="M300 664l-7 7q76 82 127 131q26 -27 41 -53q-65 -37 -161 -85zM573 143h10l-54 -143h-479v9l373 562h-298q-22 -1 -35.5 -15.5t-13.5 -35.5v-16h-11v69v18v26q13 -6 47.5 -10.5t64.5 -5.5h230q31 0 67 4t46 9v-9l-380 -575h274q46 1 78 16.5t48.5 37.5t32.5 59z" />
    <glyph glyph-name="Zdotaccent" unicode="&#x17b;" horiz-adv-x="651" 
d="M322.5 765q-17.5 0 -30 12.5t-12.5 30.5t12.5 30.5t30 12.5t30.5 -12.5t13 -30.5t-13 -30.5t-30.5 -12.5zM617 154l-33 -154h-3h-521v9l420 662h-337q-25 -1 -42 -18t-17 -42v-18h-10v81v16v29q15 -6 53 -12t69 -6h278q14 0 31.5 1t32 3t26 4.5t16.5 4.5v-9l-428 -675
h318q53 0 87.5 34t49.5 90h10z" />
    <glyph glyph-name="zdotaccent" unicode="&#x17c;" horiz-adv-x="608" 
d="M298.5 665q-17.5 0 -30.5 12.5t-13 30.5t13 30.5t30.5 12.5t30 -12.5t12.5 -30.5t-12.5 -30.5t-30 -12.5zM573 143h10l-54 -143h-479v9l373 562h-298q-15 -1 -26 -8t-17 -18.5t-6 -24.5v-16h-11v69v18v26q13 -6 47.5 -10.5t64.5 -5.5h230q31 0 67 4t46 9v-9l-380 -575
h274q46 1 78 16.5t48.5 37.5t32.5 59z" />
    <glyph glyph-name="Zcaron" unicode="&#x17d;" horiz-adv-x="651" 
d="M329 764l106 119l-6 8l-105 -66l-113 66l-6 -8l114 -119h10zM617 154l-33 -154h-3h-521v9l420 662h-337q-25 -1 -42 -18t-17 -42v-18h-10v81v16v29q15 -6 53 -12t69 -6h278q19 0 42 2t40.5 5t23.5 6v-9l-428 -675h318q53 0 87 34t50 90h10z" />
    <glyph glyph-name="zcaron" unicode="&#x17e;" horiz-adv-x="608" 
d="M305 664l106 119l-6 8l-105 -66l-113 66l-6 -8l114 -119h10zM573 143h10l-54 -143h-479v9l373 562h-298q-22 -1 -35.5 -15.5t-13.5 -36.5v-15h-11v69v18v26q9 -4 27.5 -7.5t41.5 -6t43 -2.5h229q32 0 68 4t46 9v-9l-380 -575h274q46 1 78 16.5t48.5 37.5t32.5 59z" />
    <glyph glyph-name="florin" unicode="&#x192;" horiz-adv-x="493" 
d="M55 600h275q27 0 58.5 5t44.5 11v-114l-10 1v15q0 22 -13.5 36.5t-35.5 14.5h-189v-254h156q19 0 29 12t10 30v13h10v-140h-10v13q0 17 -9.5 29t-27.5 13h-158v-285q0 -72 -49 -125t-116 -53v10q43 15 72 63.5t29 104.5v538q0 11 -4.5 20.5t-11.5 16.5t-16.5 11t-20.5 4
h-13v10z" />
    <glyph glyph-name="Scommaaccent" unicode="&#x218;" horiz-adv-x="472" 
d="M169 476l196 -182q51 -51 51 -120q0 -84 -50 -135.5t-132 -52.5q-52 0 -100 14t-74 41q-7 61 9 119h9q0 -43 19.5 -75.5t55 -50.5t81.5 -18q37 2 65 19t43.5 46.5t15.5 67.5q0 57 -38 95l-191 178q-55 55 -55 124q0 68 48.5 118t115.5 50q61 0 101 -10h35v-12v-96h-9
q0 7 -3.5 16t-9.5 18.5t-14.5 18.5t-19.5 16q-25 19 -74 19q-32 0 -58.5 -16t-41.5 -42t-15 -56q0 -55 40 -94zM200 -207l-2 6q23 7 31.5 22.5t6 28.5t-10.5 23q-1 1 -5.5 6t-6 7t-4.5 7t-3.5 8.5t-0.5 8.5t2 10q7 18 30 16.5t33 -24.5q12 -32 5 -58t-28 -43.5t-47 -17.5z
" />
    <glyph glyph-name="scommaaccent" unicode="&#x219;" horiz-adv-x="462" 
d="M160 410l202 -156q45 -37 46 -107q0 -67 -51.5 -114t-125.5 -47q-49 0 -98 12t-75 35q-5 19 -2.5 58t12.5 66h12q-7 -66 32.5 -104.5t107.5 -36.5q62 2 97.5 31.5t35.5 78.5q0 48 -36 80l-200 154q-47 40 -48 108q-1 40 21 73.5t60.5 53t83.5 19.5q59 0 99 -9h33l2 -109
h-11q0 42 -29 65t-87 23q-50 0 -85.5 -27.5t-34.5 -67.5q0 -47 39 -79zM195 -208l-2 7q23 7 31.5 22t6 28.5t-10.5 22.5q-1 2 -5 6.5t-6 7t-5 7t-4 8.5t-0.5 8.5t2.5 9.5q5 11 17.5 15.5t25.5 -1.5t20 -22q18 -45 -5.5 -81t-64.5 -38z" />
    <glyph glyph-name="uni021A" unicode="&#x21a;" horiz-adv-x="618" 
d="M140 701h338q16 0 34.5 2t35 4.5t30.5 5.5t21 6v-126l-10 1v17q0 24 -17 41.5t-40 18.5h-190v-599q1 -26 19.5 -44t44.5 -18h13v-10h-219v10h13q26 0 44.5 18t19.5 43v600h-190q-24 -1 -40.5 -18.5t-16.5 -41.5v-17l-10 -1v126q15 -6 52 -12t68 -6zM275 -208l-2 7
q23 7 31.5 22t6 28.5t-10.5 22.5q-1 2 -5 6.5t-6 7t-5 7t-4 8.5t-0.5 8.5t2.5 9.5q5 11 17.5 15.5t25.5 -1.5t19 -22q19 -45 -4.5 -81t-64.5 -38z" />
    <glyph glyph-name="uni021B" unicode="&#x21b;" horiz-adv-x="548" 
d="M126 601h326q11 0 25 1t26.5 2.5t24.5 3.5t21.5 4.5t14.5 4.5v-113h-11v16q0 21 -14 36t-36 15h-181v-508q1 -15 9 -27t21 -19t29 -7h11v-10h-206v10h12q24 0 41 16t18 38v507h-181q-23 0 -36.5 -15t-13.5 -36v-16h-11v113q9 -4 27.5 -7.5t42 -6t41.5 -2.5zM254 -208
l-2 7q23 7 31.5 22t6 28.5t-10.5 22.5q-1 2 -5 6.5t-6 7t-5 7t-4 8.5t-0.5 8.5t2.5 9.5q5 11 17.5 15.5t25.5 -1.5t20 -22q18 -45 -5.5 -81t-64.5 -38z" />
    <glyph glyph-name="circumflex" unicode="&#x2c6;" horiz-adv-x="600" 
d="M272 856l-106 -119l6 -8l104 66l114 -66l6 8l-114 119h-10z" />
    <glyph glyph-name="caron" unicode="&#x2c7;" horiz-adv-x="600" 
d="M290 729l106 119l-6 8l-105 -66l-113 66l-6 -8l114 -119h10z" />
    <glyph glyph-name="breve" unicode="&#x2d8;" horiz-adv-x="440" 
d="M313 854h10q0 -28 -14 -52t-37.5 -38t-51.5 -14q-42 0 -72.5 31t-30.5 73h10q8 -22 34 -38t59 -16t59 16t34 38z" />
    <glyph glyph-name="dotaccent" unicode="&#x2d9;" horiz-adv-x="600" 
d="M301 701q-18 0 -30.5 12.5t-12.5 30.5t12.5 30.5t30.5 12.5t30.5 -12.5t12.5 -30.5t-12.5 -30.5t-30.5 -12.5z" />
    <glyph glyph-name="ring" unicode="&#x2da;" horiz-adv-x="600" 
d="M301 849q41 0 67.5 -20t26.5 -55q0 -16 -7 -30t-19.5 -24t-30 -15.5t-37.5 -5.5q-40 0 -66.5 21.5t-26.5 53.5q0 22 12 39t33.5 26.5t47.5 9.5zM301.5 832q-21.5 0 -35.5 -15.5t-14 -42.5t14 -42.5t35.5 -15.5t35 15.5t13.5 42.5t-13.5 42.5t-35 15.5z" />
    <glyph glyph-name="ogonek" unicode="&#x2db;" horiz-adv-x="600" 
d="M425 -107l6 -6q-9 -24 -29.5 -39t-44.5 -16.5t-46.5 6t-38 30.5t-15.5 56q0 39 32.5 65.5t78.5 26.5l10 -3q-77 -18 -75 -78q1 -28 21 -47.5t49 -19t52 24.5z" />
    <glyph glyph-name="tilde" unicode="&#x2dc;" horiz-adv-x="600" 
d="M412 779h-10q-14 -34 -55 -34q-16 0 -56.5 21.5t-64.5 21.5t-41 -23t-23 -62h10q17 41 54 41q15 0 56.5 -22t64.5 -22q17 0 31 9.5t22.5 27t11.5 42.5z" />
    <glyph glyph-name="hungarumlaut" unicode="&#x2dd;" horiz-adv-x="600" 
d="M212 751l-11 2q30 65 67 131q36 -2 61 -13q-54 -60 -117 -120zM334 751l-11 2q30 73 67 131q30 0 61 -13q-68 -75 -117 -120z" />
    <glyph glyph-name="commaaccentcomb" unicode="&#x326;" horiz-adv-x="0" 
d="M32 -144l-2 7q22 7 31 22t6.5 28.5t-10.5 22.5q-2 2 -5.5 6.5t-6 7t-5 7t-3.5 8.5t-1 8.5t3 9.5q7 18 30 17t32 -25q19 -45 -4.5 -81t-64.5 -38z" />
    <glyph glyph-name="Delta" unicode="&#x394;" horiz-adv-x="652" 
d="M321 714h10l316 -704v-10h-642v10zM558 30l-251 582l-258 -582h509z" />
    <glyph glyph-name="Omega" unicode="&#x3a9;" horiz-adv-x="808" 
d="M743 140h10l-48 -140h-240v65q38 22 73 52.5t67 70.5t52 92t21 106q2 82 -33 150.5t-98.5 108t-140.5 39.5q-116 0 -196 -86.5t-80 -211.5q0 -55 18 -106t49 -91t66 -70.5t75 -53.5v-65h-237l-48 140h10q28 -50 51 -67.5t66 -17.5h128q-47 16 -85.5 40t-64.5 53t-45 60
t-30 63.5t-16.5 60.5t-6.5 54q-3 91 42 166t126 118.5t179 43.5q94 0 172.5 -43.5t123.5 -118.5t45 -166q0 -38 -17 -86t-47.5 -96t-80.5 -89t-107 -60h130q43 0 66 17.5t51 67.5z" />
    <glyph glyph-name="mu" unicode="&#x3bc;" horiz-adv-x="878" 
d="M707 614l81 -549q4 -25 23 -40t45 -15h15v-10h-208v9h15q15 0 26.5 11.5t9.5 27.5l-52 412l-189 -372q-28 -61 -35 -102h-10l-241 465l-45 -403q-2 -15 9.5 -27t27.5 -12h14v-9h-185v10h15q17 0 31.5 6.5t24.5 19.5t12 31l78 547h10l264 -508l255 508h9z" />
    <glyph glyph-name="pi" unicode="&#x3c0;" horiz-adv-x="703" 
d="M649 10v-10h-197l1 10h10q23 0 39 16t17 38v452q-1 22 -16.5 38t-37.5 16h-226q-22 0 -37.5 -15.5t-16.5 -37.5v-454q1 -22 17 -37.5t39 -15.5h10l1 -10h-197v10h11q23 0 39 16t16 38v472q0 15 -7.5 27.5t-20 19.5t-27.5 7h-11v10h594v-10h-11q-22 0 -38 -15.5t-17 -37.5
v-474q0 -14 7.5 -26.5t20 -19.5t27.5 -7h11z" />
    <glyph glyph-name="Wgrave" unicode="&#x1e80;" horiz-adv-x="982" 
d="M514 771l-7 -7q-81 38 -161 85q15 28 41 53q63 -61 127 -131zM795 700h197v-10h-8q-26 0 -51.5 -15.5t-36.5 -46.5l-166 -529q-20 -64 -22 -111h-9l-204 572l-152 -461q-19 -62 -21 -111h-9l-227 641q-12 30 -37 45.5t-51 15.5h-8v10h222v-10h-9q-21 0 -34 -17t-5 -44
l152 -487l186 574l9 -1l197 -553l134 468q7 28 -5 44t-33 16h-9v10z" />
    <glyph glyph-name="wgrave" unicode="&#x1e81;" horiz-adv-x="899" 
d="M470 673l-7 -7q-80 38 -161 85q15 28 41 53q64 -61 127 -131zM721 600h183v-10h-7q-60 0 -82 -60l-145 -431q-22 -64 -23 -111h-10l-186 476l-130 -365q-20 -62 -22 -111h-9l-210 547q-23 55 -80 55h-8v10h206v-10h-8q-8 0 -15.5 -3t-13 -9.5t-7 -16.5t1.5 -25l133 -407
l169 487l10 -1l179 -456l112 370q10 30 -0.5 45.5t-29.5 15.5h-8v10z" />
    <glyph glyph-name="Wacute" unicode="&#x1e82;" horiz-adv-x="982" 
d="M507 764l-7 7q76 82 127 131q26 -27 41 -53q-65 -37 -161 -85zM795 700h197v-10h-8q-26 0 -51.5 -15.5t-36.5 -46.5l-166 -529q-20 -63 -22 -111h-9l-204 572l-152 -461q-19 -62 -21 -111h-9l-227 641q-12 30 -37 45.5t-51 15.5h-8v10h222v-10h-9q-21 0 -34 -17t-5 -44
l152 -487l186 574l9 -1l197 -553l134 468q7 28 -5 44t-33 16h-9v10z" />
    <glyph glyph-name="wacute" unicode="&#x1e83;" horiz-adv-x="899" 
d="M463 666l-7 7q76 82 127 131q27 -27 41 -53q-64 -38 -161 -85zM721 600h183v-10h-7q-60 0 -82 -59l-145 -432q-22 -63 -23 -111h-10l-186 476l-130 -365q-20 -62 -22 -111h-9l-210 547q-23 55 -80 55h-8v10h206v-10h-8q-8 0 -15.5 -3t-13 -9.5t-7 -16.5t1.5 -25l133 -407
l169 487l10 -1l179 -456l112 371q5 16 4.5 27.5t-6 18.5t-13 10.5t-15.5 3.5h-8v10z" />
    <glyph glyph-name="Wdieresis" unicode="&#x1e84;" horiz-adv-x="982" 
d="M412.5 764q-16.5 0 -27.5 11.5t-11 27.5t11 27.5t27.5 11.5t28 -11.5t11.5 -27.5t-11.5 -27.5t-28 -11.5zM601 764q-16 0 -27.5 11.5t-11.5 27.5t11.5 27.5t27.5 11.5t27.5 -11.5t11.5 -27.5t-11.5 -27.5t-27.5 -11.5zM795 700h197v-10h-8q-17 0 -33.5 -6t-32 -20.5
t-22.5 -35.5l-166 -529q-20 -63 -22 -111h-9l-204 572l-152 -461q-19 -62 -21 -111h-9l-227 641q-12 30 -37 45.5t-51 15.5h-8v10h222v-10h-9q-21 0 -34 -17t-5 -44l152 -487l186 574l9 -1l197 -553l134 468q7 28 -5 44t-33 16h-9v10z" />
    <glyph glyph-name="wdieresis" unicode="&#x1e85;" horiz-adv-x="899" 
d="M369 666q-16 0 -27.5 11.5t-11.5 27.5t11.5 27.5t27.5 11.5t27.5 -11.5t11.5 -27.5t-11.5 -27.5t-27.5 -11.5zM557.5 666q-16.5 0 -28 11.5t-11.5 27.5t11.5 27.5t28 11.5t27.5 -11.5t11 -27.5t-11 -27.5t-27.5 -11.5zM721 600h183v-10h-7q-60 0 -82 -59l-145 -432
q-22 -63 -23 -111h-10l-186 476l-130 -365q-20 -62 -22 -111h-9l-210 547q-23 55 -80 55h-8v10h206v-10h-8q-18 0 -29.5 -13.5t-4.5 -40.5l133 -407l169 487l10 -1l179 -456l112 371q10 29 -0.5 44.5t-29.5 15.5h-8v10z" />
    <glyph glyph-name="Ygrave" unicode="&#x1ef2;" horiz-adv-x="661" 
d="M347 771l-7 -7q-80 38 -161 85q15 28 41 53q64 -61 127 -131zM450 700h222v-10h-14q-30 0 -56.5 -16.5t-44.5 -41.5l-197 -320v-239q0 -26 18.5 -44.5t45.5 -18.5h12v-10h-218v10h13q26 0 44.5 18t19.5 44v241l-191 319q-15 24 -42.5 41t-57.5 17h-14v10h246v-10h-13
q-22 0 -34 -20.5t-1 -41.5l150 -280l160 280v1q11 20 -1.5 40.5t-34.5 20.5h-12v10z" />
    <glyph glyph-name="ygrave" unicode="&#x1ef3;" horiz-adv-x="640" 
d="M340 671l-7 -7q-80 38 -160 85q14 28 41 53q63 -61 126 -131zM436 600h209v-10h-12q-27 0 -51.5 -14.5t-40.5 -36.5l-192 -291v-184q0 -9 3 -17t8.5 -15t12.5 -12t16 -7.5t18 -2.5h12v-10h-205v10h12q24 0 41 16t17 38v185l-185 291q-34 50 -92 50h-12v10h232v-10h-12
q-19 0 -29.5 -15t-4.5 -33l146 -259l155 258q8 19 -3 34t-31 15h-12v10z" />
    <glyph glyph-name="endash" unicode="&#x2013;" horiz-adv-x="500" 
d="M0 271v40h500v-40h-500z" />
    <glyph glyph-name="emdash" unicode="&#x2014;" horiz-adv-x="800" 
d="M0 271v40h800v-40h-800z" />
    <glyph glyph-name="quoteleft" unicode="&#x2018;" horiz-adv-x="200" 
d="M150 784l2 -9q-22 -8 -34.5 -21t-14 -27.5t2 -27.5t11.5 -22q2 -2 6 -6.5t6.5 -8t6 -8t5 -8.5t3 -9t0.5 -10.5t-3 -11.5q-7 -15 -23 -20.5t-34 2.5t-26 28q-25 60 6 108.5t86 50.5z" />
    <glyph glyph-name="quoteright" unicode="&#x2019;" horiz-adv-x="200" 
d="M53 598l-3 8q28 9 39.5 28t8 36t-13.5 29q-1 2 -6.5 8t-8 9t-6 8.5t-4.5 10t-1 11t3 12.5q6 14 22 19.5t32.5 -2t24.5 -27.5q24 -56 -6 -102.5t-81 -47.5z" />
    <glyph glyph-name="quotesinglbase" unicode="&#x201a;" horiz-adv-x="200" 
d="M50 -97l-2 8q29 10 41 30t8.5 37.5t-14.5 30.5q-1 2 -6.5 8t-8 9.5t-6.5 9.5t-5 10.5t-1 11t3 13.5q7 15 23.5 20.5t34 -2.5t25.5 -28q25 -60 -6 -108t-86 -50z" />
    <glyph glyph-name="quotedblleft" unicode="&#x201c;" horiz-adv-x="340" 
d="M150 784l2 -9q-22 -8 -34.5 -21t-14 -27.5t2 -27.5t11.5 -22q2 -2 6 -6.5t6.5 -8t6 -8t5 -8.5t3 -9t0.5 -10.5t-3 -11.5q-7 -15 -23 -20.5t-34 2.5t-26 28q-25 60 6 108.5t86 50.5zM290 784l2 -9q-29 -10 -40.5 -30t-8.5 -37.5t14 -30.5q2 -2 6 -6.5t6.5 -8t6 -8t5 -8.5
t3 -9t0.5 -10.5t-3 -11.5q-7 -15 -23 -20.5t-34 2.5t-26 28q-25 60 6 108.5t86 50.5z" />
    <glyph glyph-name="quotedblright" unicode="&#x201d;" horiz-adv-x="340" 
d="M53 598l-3 8q28 9 39.5 28t8 36t-13.5 29q-1 2 -6.5 8t-8 9t-6 8.5t-4.5 10t-1 11t3 12.5q6 14 22 19.5t32.5 -2t24.5 -27.5q24 -56 -6 -102.5t-81 -47.5zM193 598l-3 8q28 9 39 28t8 36t-13 29q-1 2 -6.5 8t-8 9t-6 8.5t-4.5 10t-1 11t3 12.5q6 14 22 19.5t32.5 -2
t24.5 -27.5q24 -56 -6 -102.5t-81 -47.5z" />
    <glyph glyph-name="quotedblbase" unicode="&#x201e;" horiz-adv-x="340" 
d="M48 -102l-3 9q24 8 37 22t14.5 29t-2.5 28.5t-11 22.5q-2 3 -7 8t-7.5 8t-6 8t-5.5 9.5t-3 9.5t-0.5 11t3.5 12q5 11 17 17.5t25 6t25.5 -9.5t19.5 -25q26 -63 -6.5 -113.5t-89.5 -52.5zM180 -102l-3 9q24 8 37 22t14.5 29t-2.5 28.5t-11 22.5q-2 3 -8 9.5t-8.5 9.5
t-6.5 9.5t-5 11.5t-1 12t3 14q7 15 24.5 21t35.5 -2.5t27 -29.5q17 -45 7.5 -81.5t-38.5 -60t-65 -24.5z" />
    <glyph glyph-name="dagger" unicode="&#x2020;" horiz-adv-x="517" 
d="M478 438l-14 -37l-156 18l-45 15l16 -43l12 -236l-27 -335h-10l-28 335l13 236l15 43l-45 -16l-155 -17l-14 37l14 38l155 -18l45 -14l-15 41l-18 215l39 14l36 -14l-17 -215l-15 -41l44 15l156 17z" />
    <glyph glyph-name="daggerdbl" unicode="&#x2021;" horiz-adv-x="518" 
d="M465 132l14 -37l-14 -38l-155 18l-45 15l15 -42l17 -215l-38 -14l-37 14l18 215l15 42l-45 -15l-155 -18l-14 38l14 37l155 -17l45 -15l-15 42l-18 125l17 124l15 43l-45 -16l-155 -17l-14 37l14 38l155 -18l45 -14l-15 41l-18 215l39 14l36 -14l-17 -215l-15 -41l44 15
l156 17l14 -38l-14 -37l-156 18l-45 15l16 -43l18 -124l-17 -125l-15 -42l45 15z" />
    <glyph glyph-name="bullet" unicode="&#x2022;" horiz-adv-x="335" 
d="M181 237q-13 -4 -27 0q-43 15 -55 27t-27 55q-4 14 0 27q15 43 27 55.5t55 26.5q14 5 27 0q31 -10 44 -17.5t20.5 -20.5t17.5 -44q5 -13 0 -28q-10 -30 -18 -42.5t-20.5 -20.5t-43.5 -18z" />
    <glyph glyph-name="ellipsis" unicode="&#x2026;" horiz-adv-x="570" 
d="M90 -4q-19 0 -32 13t-13 32t13 32t32 13t32 -13t13 -32t-13 -32t-32 -13zM290 -4q-19 0 -32 13t-13 32t13 32t32 13t32 -13t13 -32t-13 -32t-32 -13zM480 -4q-19 0 -32 13t-13 32t13 32t32 13t32 -13t13 -32t-13 -32t-32 -13z" />
    <glyph glyph-name="perthousand" unicode="&#x2030;" horiz-adv-x="1015" 
d="M519 709l22 -9l-373 -711l-25 11l356 676q-4 -2 -14.5 -7.5t-15.5 -8t-16.5 -8t-17 -7t-18 -5t-20 -2.5t-21.5 0q-27 2 -65 22q24 -48 11 -123q-14 -81 -60.5 -128.5t-107.5 -47.5t-90 47.5t-15 128.5q14 80 59.5 127.5t108.5 49.5q18 0 35 -5q20 -5 59 -27.5t66 -24.5
q26 -2 51 6.5t56.5 26.5t34.5 19zM269 537.5q13 72.5 -2 114.5t-54 42q-26 0 -48 -19t-38 -54t-25 -84q-13 -72 2 -114t54 -42t68.5 42t42.5 114.5zM531 339q61 0 90 -47.5t15 -129t-60.5 -129t-107.5 -47.5t-90 47.5t-15 129t60.5 129t107.5 47.5zM861 339q61 0 90 -47.5
t15 -129t-60.5 -129t-107.5 -47.5t-90 47.5t-15 129t60.5 129t107.5 47.5zM583 162.5q13 72.5 -2 114.5t-54 42t-68.5 -42t-42.5 -114.5t2 -114.5t54 -42t68.5 42t42.5 114.5zM913 162.5q13 72.5 -2 114.5t-54 42t-68.5 -42t-42.5 -114.5t2 -114.5t54 -42t68.5 42
t42.5 114.5z" />
    <glyph glyph-name="guilsinglleft" unicode="&#x2039;" horiz-adv-x="283" 
d="M215 490l-175 -198l175 -202l9 5l-119 197l118 193z" />
    <glyph glyph-name="guilsinglright" unicode="&#x203a;" horiz-adv-x="283" 
d="M69 90l175 202l-175 198l-8 -5l118 -193l-119 -197z" />
    <glyph glyph-name="fraction" unicode="&#x2044;" horiz-adv-x="542" 
d="M498 714l-478 -712l25 -16l477 711z" />
    <glyph glyph-name="Euro" unicode="&#x20ac;" horiz-adv-x="733" 
d="M673 154h10l-1 -105q-30 -31 -90.5 -46.5t-128.5 -15.5q-136 0 -237 84t-124 213h-112l11 30h96q-1 18 -1 36q0 17 1 34h-107l11 30h100q22 130 123.5 215t238.5 85q170 0 219 -59l-32 -96h-10q6 31 -3.5 54.5t-28 36.5t-45.5 21t-51 10.5t-49 2.5q-108 0 -188 -76.5
t-99 -193.5h425l-11 -30h-418q-1 -17 -1 -33q0 -19 1 -37h394l-10 -30h-380q21 -117 100.5 -192t186.5 -75q94 0 145.5 32.5t64.5 104.5z" />
    <glyph glyph-name="trademark" unicode="&#x2122;" horiz-adv-x="446" 
d="M44 700h95q22 0 34 5v-41h-3v5q0 7 -4.5 11.5t-11.5 5.5h-47v-163q0 -7 5 -12t13 -5h3v-3h-73v3h3q5 0 9 2t6.5 6t2.5 9v163h-47q-7 -1 -11.5 -5.5t-4.5 -11.5v-5h-3v41q12 -5 34 -5zM381 704l31 -181q4 -17 20 -17h5v-3h-71v3h4q5 0 8.5 3.5t2.5 8.5l-18 121l-53 -111
q-8 -17 -10 -29h-2l-69 134l-9 -115q0 -5 3.5 -8.5t7.5 -3.5h5v-3h-62v3h5q18 0 20 17l21 181h3l83 -156l72 156h3z" />
    <glyph glyph-name="partialdiff" unicode="&#x2202;" horiz-adv-x="566" 
d="M79 577l-9 7q38 75 91.5 107t131.5 23q68 -8 119 -61.5t75.5 -137.5t18.5 -182q-7 -107 -37 -183.5t-82 -118t-124 -45.5q-53 -3 -93.5 12t-63.5 43t-35 64.5t-11 76.5t12 80q10 38 34 72.5t60 59.5t77.5 35t92.5 -4.5t99 -56.5q1 71 -14 131.5t-49 104t-83 55.5
q-129 31 -210 -82zM434 333l1 21q-52 29 -96.5 37t-76.5 -1t-57.5 -33t-41.5 -55t-25 -71q-13 -61 -4 -110.5t44 -79.5t85 -25q64 6 112.5 93t58.5 224z" />
    <glyph glyph-name="product" unicode="&#x220f;" horiz-adv-x="763" 
d="M709 -190v-10h-197l1 10h10q23 0 39 15.5t17 38.5v752q-1 22 -16.5 38t-37.5 16h-286q-22 0 -37.5 -15.5t-16.5 -37.5v-754q1 -22 17 -37.5t39 -15.5h10l1 -10h-197v10h11q15 0 27.5 7t20 19.5t7.5 27.5v772q0 15 -7.5 27.5t-20 19.5t-27.5 7h-11v10h654v-10h-11
q-22 0 -38 -15.5t-17 -37.5v-774q0 -22 16.5 -37.5t38.5 -15.5h11z" />
    <glyph glyph-name="summation" unicode="&#x2211;" horiz-adv-x="635" 
d="M601 9l-33 -189h-528v10l264 422l-258 438v10h402q21 0 46.5 3t45.5 7t30 8v-126l-10 1v17q0 25 -17 42t-41 18h-370l228 -391l-245 -395h347q33 2 60 19.5t43 44t26 61.5h10z" />
    <glyph glyph-name="minus" unicode="&#x2212;" horiz-adv-x="481" 
d="M40 287v45h402v-45h-402z" />
    <glyph glyph-name="radical" unicode="&#x221a;" horiz-adv-x="594" 
d="M25 400l-5 30l139 20l123 -441l262 834l30 -2l-307 -988l-160 559z" />
    <glyph glyph-name="infinity" unicode="&#x221e;" horiz-adv-x="593" 
d="M316 263q-25 -42 -66.5 -70t-87.5 -28q-53 0 -88 37.5t-34 94.5t35.5 94.5t86.5 37.5q41 0 82.5 -27t72.5 -68q30 41 71.5 68t82.5 27q52 0 87 -37.5t35 -94.5q1 -57 -34 -94.5t-88 -37.5q-47 0 -88.5 28.5t-66.5 69.5zM162 208q35 0 69 26t58 64q-66 88 -127 88
q-31 0 -54 -26t-23 -63t23 -63t54 -26zM471 208q32 0 54.5 26t22.5 63q0 24 -10.5 44.5t-28 32.5t-38.5 12q-61 0 -127 -88q25 -40 58.5 -65t68.5 -25z" />
    <glyph glyph-name="integral" unicode="&#x222b;" horiz-adv-x="440" 
d="M314 792q26 2 52.5 -5.5t38.5 -26.5q7 -12 5.5 -24.5t-9.5 -21.5q-12 -14 -28.5 -14t-26.5 11q-5 5 -10.5 13.5t-8.5 14.5t-9 10.5t-14 4.5q-31 0 -35 -90q-30 -590 -35 -662q-3 -33 -9 -62.5t-18.5 -59.5t-35.5 -49t-54 -22q-17 -2 -34 0.5t-33 10.5t-24 21q-7 11 -6 24
t9 22q13 14 29.5 14t26.5 -11q5 -5 10 -13.5t8.5 -14.5t9.5 -10.5t14 -4.5q30 0 35 90q30 590 35 662q2 33 8.5 62.5t19 59.5t35.5 49t54 22z" />
    <glyph glyph-name="approxequal" unicode="&#x2248;" horiz-adv-x="481" 
d="M67 350l-27 24q52 69 115 60q36 -5 90 -30.5t74 -29.5q17 -4 38 4t30 14.5t28 21.5l27 -25l-6.5 -6.5l-9 -9t-10.5 -10t-12 -10t-14 -9.5t-16 -8t-17 -5.5t-18 -2.5t-20 1q-34 6 -86 30.5t-78 29.5q-7 1 -13.5 1.5t-13 -0.5t-10.5 -1.5t-10 -4t-8 -5t-8.5 -7t-8 -6.5
t-8.5 -8zM67 180l-27 24q52 69 115 60q28 -4 58.5 -17t58.5 -26t47 -17q17 -4 38 4t30 14.5t28 21.5l27 -25l-6.5 -6.5l-9 -9t-10.5 -10t-12 -10t-14 -9.5t-16 -8t-17 -5.5t-18 -2.5t-20 1q-27 5 -57 18t-57.5 25.5t-49.5 16.5q-7 1 -13 1.5t-11 0t-10 -2t-8.5 -2.5t-8.5 -4
l-7.5 -4.5t-7.5 -6.5t-7 -6.5t-7.5 -7.5t-7.5 -7z" />
    <glyph glyph-name="notequal" unicode="&#x2260;" horiz-adv-x="481" 
d="M442 364h-140l-63 -130h203v-45h-225l-59 -122l-41 18l50 104h-127v45h149l63 130h-212v45h234l54 110l40 -19l-44 -91h118v-45z" />
    <glyph glyph-name="lessequal" unicode="&#x2264;" horiz-adv-x="481" 
d="M442 589v-48l-343 -165l343 -166v-48l-402 191v45zM40 43v45h402v-45h-402z" />
    <glyph glyph-name="greaterequal" unicode="&#x2265;" horiz-adv-x="481" 
d="M40 589l402 -191v-45l-402 -191v48l342 166l-342 165v48zM40 43v45h402v-45h-402z" />
    <glyph glyph-name="lozenge" unicode="&#x25ca;" horiz-adv-x="530" 
d="M481 350l-222 364l-209 -364l209 -364zM93 350l166 295l179 -295l-179 -295z" />
    <glyph glyph-name="fi" unicode="&#xfb01;" horiz-adv-x="859" 
d="M191 600h159q29 0 64 5t49 11v-114l-11 1v15q0 10 -3.5 19.5t-10 16.5t-16 11t-20.5 4h-211v-254h174q20 0 30 12t10 30v13h12v-140h-12v13q0 11 -4 20t-12.5 15t-21.5 7h-176v-221q1 -9 4 -17t8 -15t12 -12t16 -7.5t19 -2.5h14v-10h-209v10h14q24 0 41 15.5t18 37.5v475
q-1 14 -8.5 26t-21 19t-29.5 7h-14v10h136zM805 0h-227v10h14q27 0 47 16t20 38v472q0 22 -20 38t-48 16h-13v10h226v-10h-13q-27 0 -46.5 -15t-21.5 -37v-475q1 -22 21 -37.5t47 -15.5h13z" />
    <glyph glyph-name="fl" unicode="&#xfb02;" horiz-adv-x="1059" 
d="M191 600h159q29 0 64 5t49 11v-114l-11 1v15q0 10 -3.5 19.5t-10 16.5t-16 11t-20.5 4h-211v-254h174q20 0 30 12t10 30v13h12v-140h-12v13q0 11 -4 20t-12.5 15t-21.5 7h-176v-221q1 -9 4 -17t8 -15t12 -12t16 -7.5t19 -2.5h14v-10h-209v10h14q24 0 41 15.5t18 37.5v475
q-1 14 -8.5 26t-21 19t-29.5 7h-14v10h136zM1029 143h10l-55 -143h-406v10h14q24 0 40.5 15.5t17.5 37.5v473q-1 22 -18.5 38t-41.5 16h-12v10h207v-10h-12q-24 0 -41.5 -16t-17.5 -38v-505h156q66 0 100 28.5t59 83.5z" />
    </font>
</defs>
</svg>
